<?xml version="1.0" encoding="UTF-8"?>
<svg width="24px" height="24px" viewBox="0 0 24 24" version="1.1" xmlns="http://www.w3.org/2000/svg" xmlns:xlink="http://www.w3.org/1999/xlink">
    <!-- Generator: Sketch 48.2 (47327) - http://www.bohemiancoding.com/sketch -->
    <title>@Metrics/Budget</title>
    <desc>Created with Sketch.</desc>
    <defs></defs>
    <g id="Symbols" stroke="none" stroke-width="1" fill="none" fill-rule="evenodd">
        <g id="@Metrics/Budget">
            <rect id="Bounding-Box" x="0" y="0" width="24" height="24"></rect>
            <path d="M18.2631579,3 L5.73684211,3 C5.29473684,3 5,3.29473684 5,3.73684211 L5,19.9473684 C5,20.3894737 5.29473684,20.6842105 5.73684211,20.6842105 L18.2631579,20.6842105 C18.7052632,20.6842105 19,20.3894737 19,19.9473684 L19,3.73684211 C19,3.29473684 18.7052632,3 18.2631579,3 Z M9.42105263,17.7368421 C9.42105263,18.1789474 9.12631579,18.4736842 8.68421053,18.4736842 L7.94736842,18.4736842 C7.50526316,18.4736842 7.21052632,18.1789474 7.21052632,17.7368421 L7.21052632,17 C7.21052632,16.5578947 7.50526316,16.2631579 7.94736842,16.2631579 L8.68421053,16.2631579 C9.12631579,16.2631579 9.42105263,16.5578947 9.42105263,17 L9.42105263,17.7368421 Z M9.42105263,14.0526316 C9.42105263,14.4947368 9.12631579,14.7894737 8.68421053,14.7894737 L7.94736842,14.7894737 C7.50526316,14.7894737 7.21052632,14.4947368 7.21052632,14.0526316 L7.21052632,13.3157895 C7.21052632,12.8736842 7.50526316,12.5789474 7.94736842,12.5789474 L8.68421053,12.5789474 C9.12631579,12.5789474 9.42105263,12.8736842 9.42105263,13.3157895 L9.42105263,14.0526316 Z M9.42105263,10.3684211 C9.42105263,10.8105263 9.12631579,11.1052632 8.68421053,11.1052632 L7.94736842,11.1052632 C7.50526316,11.1052632 7.21052632,10.8105263 7.21052632,10.3684211 L7.21052632,9.63157895 C7.21052632,9.18947368 7.50526316,8.89473684 7.94736842,8.89473684 L8.68421053,8.89473684 C9.12631579,8.89473684 9.42105263,9.18947368 9.42105263,9.63157895 L9.42105263,10.3684211 Z M13.1052632,17.7368421 C13.1052632,18.1789474 12.8105263,18.4736842 12.3684211,18.4736842 L11.6315789,18.4736842 C11.1894737,18.4736842 10.8947368,18.1789474 10.8947368,17.7368421 L10.8947368,17 C10.8947368,16.5578947 11.1894737,16.2631579 11.6315789,16.2631579 L12.3684211,16.2631579 C12.8105263,16.2631579 13.1052632,16.5578947 13.1052632,17 L13.1052632,17.7368421 Z M13.1052632,14.0526316 C13.1052632,14.4947368 12.8105263,14.7894737 12.3684211,14.7894737 L11.6315789,14.7894737 C11.1894737,14.7894737 10.8947368,14.4947368 10.8947368,14.0526316 L10.8947368,13.3157895 C10.8947368,12.8736842 11.1894737,12.5789474 11.6315789,12.5789474 L12.3684211,12.5789474 C12.8105263,12.5789474 13.1052632,12.8736842 13.1052632,13.3157895 L13.1052632,14.0526316 Z M13.1052632,10.3684211 C13.1052632,10.8105263 12.8105263,11.1052632 12.3684211,11.1052632 L11.6315789,11.1052632 C11.1894737,11.1052632 10.8947368,10.8105263 10.8947368,10.3684211 L10.8947368,9.63157895 C10.8947368,9.18947368 11.1894737,8.89473684 11.6315789,8.89473684 L12.3684211,8.89473684 C12.8105263,8.89473684 13.1052632,9.18947368 13.1052632,9.63157895 L13.1052632,10.3684211 Z M16.7894737,17.7368421 C16.7894737,18.1789474 16.4947368,18.4736842 16.0526316,18.4736842 L15.3157895,18.4736842 C14.8736842,18.4736842 14.5789474,18.1789474 14.5789474,17.7368421 L14.5789474,13.3157895 C14.5789474,12.8736842 14.8736842,12.5789474 15.3157895,12.5789474 L16.0526316,12.5789474 C16.4947368,12.5789474 16.7894737,12.8736842 16.7894737,13.3157895 L16.7894737,17.7368421 Z M16.7894737,10.3684211 C16.7894737,10.8105263 16.4947368,11.1052632 16.0526316,11.1052632 L15.3157895,11.1052632 C14.8736842,11.1052632 14.5789474,10.8105263 14.5789474,10.3684211 L14.5789474,9.63157895 C14.5789474,9.18947368 14.8736842,8.89473684 15.3157895,8.89473684 L16.0526316,8.89473684 C16.4947368,8.89473684 16.7894737,9.18947368 16.7894737,9.63157895 L16.7894737,10.3684211 Z M16.7894737,6.68421053 C16.7894737,7.12631579 16.4947368,7.42105263 16.0526316,7.42105263 L7.94736842,7.42105263 C7.50526316,7.42105263 7.21052632,7.12631579 7.21052632,6.68421053 L7.21052632,5.94736842 C7.21052632,5.50526316 7.50526316,5.21052632 7.94736842,5.21052632 L16.0526316,5.21052632 C16.4947368,5.21052632 16.7894737,5.50526316 16.7894737,5.94736842 L16.7894737,6.68421053 Z" id="Shape" fill="#202022" fill-rule="nonzero"></path>
        </g>
    </g>
</svg>