<?xml version="1.0" encoding="UTF-8"?>
<svg width="24px" height="24px" viewBox="0 0 24 24" version="1.1" xmlns="http://www.w3.org/2000/svg" xmlns:xlink="http://www.w3.org/1999/xlink">
    <!-- Generator: Sketch 48.2 (47327) - http://www.bohemiancoding.com/sketch -->
    <title>@Metrics/Currency</title>
    <desc>Created with Sketch.</desc>
    <defs></defs>
    <g id="Symbols" stroke="none" stroke-width="1" fill="none" fill-rule="evenodd">
        <g id="@Metrics/Currency">
            <rect id="Bounding-Box" x="0" y="0" width="24" height="24"></rect>
            <path d="M17.5985884,13.19 C17.3279743,12.68 16.9671556,12.26 16.5261548,11.93 C16.0851541,11.6 15.5739942,11.33 15.0127206,11.14 C14.451447,10.94 13.8701279,10.78 13.2888087,10.64 C12.6874441,10.5 12.0961023,10.38 11.5348287,10.26 C10.9635323,10.13 10.4623951,9.99 10.0213944,9.82 C9.58039371,9.65 9.21957495,9.44 8.94896088,9.19 C8.67834681,8.94 8.5380284,8.6 8.5380284,8.19 C8.5380284,7.86 8.62823309,7.59 8.81866521,7.38 C9.00909734,7.17 9.23962043,7.02 9.51023451,6.91 C9.78084858,6.8 10.0815309,6.73 10.3922359,6.69 C10.702941,6.65 10.973555,6.63 11.1940554,6.63 C11.9056702,6.63 12.5471257,6.77 13.0983766,7.04 C13.6496275,7.31 14.0104463,7.85 14.1607874,8.66 L17.5284292,8.66 C17.4382245,7.82 17.2077014,7.1 16.8368599,6.5 C16.4660184,5.9 16.0049722,5.42 15.4537213,5.05 C14.8924477,4.68 14.2710376,4.41 13.589491,4.24 C13.3990589,4.19 13.2086268,4.17 13.0181947,4.14 L13.0181947,3 C13.0181947,2.45 12.5671712,2 12.0159203,2 L11.013646,2 C10.4623951,2 10.0113717,2.45 10.0113717,3 L10.0113717,4.1 C9.79087132,4.13 9.58039371,4.15 9.34987061,4.2 C8.61821035,4.33 7.95670929,4.57 7.36536743,4.91 C6.76400283,5.25 6.2728884,5.71 5.89202416,6.26 C5.50113717,6.82 5.31070504,7.51 5.31070504,8.34 C5.31070504,9.1 5.44100071,9.75 5.71161478,10.27 C5.9722061,10.79 6.33302486,11.22 6.77402557,11.55 C7.21502628,11.88 7.71616345,12.15 8.27743707,12.34 C8.82868796,12.54 9.41000707,12.7 10.0213944,12.84 C10.6027135,12.98 11.1840326,13.1 11.7453063,13.22 C12.3065799,13.34 12.8177398,13.48 13.2587405,13.65 C13.6997412,13.82 14.06056,14.04 14.3512195,14.31 C14.6318564,14.58 14.7821975,14.94 14.802243,15.37 C14.8222885,15.8 14.722061,16.15 14.5015607,16.41 C14.2810603,16.67 14.0104463,16.88 13.669673,17.01 C13.3288997,17.15 12.968081,17.24 12.577194,17.29 C12.186307,17.34 11.8455337,17.36 11.5448514,17.36 C10.6728727,17.36 9.93118973,17.16 9.30977964,16.77 C8.68836955,16.38 8.32755079,15.69 8.2373461,14.71 L5,14.71 C5.02004549,15.61 5.19043212,16.39 5.52118265,17.05 C5.85193318,17.71 6.30295663,18.26 6.87425301,18.7 C7.44554938,19.14 8.12709592,19.47 8.9088699,19.68 C9.25966592,19.78 9.62048468,19.84 9.99132619,19.89 L9.99132619,21 C9.99132619,21.55 10.4423496,22 10.9936005,22 L11.9958749,22 C12.5471257,22 12.9981492,21.55 12.9981492,21 L12.9981492,19.87 C13.2487178,19.83 13.4992864,19.8 13.7598777,19.74 C14.5316289,19.56 15.233221,19.28 15.8646538,18.89 C16.4960866,18.5 17.0072465,17.99 17.4081563,17.36 C17.809066,16.73 17.9994981,15.97 17.9994981,15.07 C18.0095209,14.32 17.8692025,13.7 17.5985884,13.19 Z" id="Currency" fill="#202022" fill-rule="nonzero"></path>
        </g>
    </g>
</svg>