<?xml version="1.0" encoding="UTF-8"?>
<svg width="24px" height="24px" viewBox="0 0 24 24" version="1.1" xmlns="http://www.w3.org/2000/svg" xmlns:xlink="http://www.w3.org/1999/xlink">
    <!-- Generator: Sketch 48.2 (47327) - http://www.bohemiancoding.com/sketch -->
    <title>@Metrics//Percent</title>
    <desc>Created with Sketch.</desc>
    <defs></defs>
    <g id="Symbols" stroke="none" stroke-width="1" fill="none" fill-rule="evenodd">
        <g id="@Metrics//Percent">
            <rect id="Bounding-Box" x="0" y="0" width="24" height="24"></rect>
            <path d="M8.61580381,6.09944751 C10.0708447,6.09944751 11.2152589,7.27624309 11.2152589,8.75138122 C11.2152589,10.2099448 10.0708447,11.3867403 8.61580381,11.3867403 C7.16076294,11.3867403 6,10.2099448 6,8.75138122 C6,7.27624309 7.16076294,6.09944751 8.61580381,6.09944751 Z M8.63215259,7.27624309 C7.83106267,7.27624309 7.22615804,7.90607735 7.22615804,8.73480663 C7.22615804,9.5801105 7.83106267,10.2099448 8.63215259,10.2099448 C9.40054496,10.2099448 9.98910082,9.5801105 9.98910082,8.73480663 C9.98910082,7.90607735 9.40054496,7.27624309 8.63215259,7.27624309 Z M15.400545,12.6132597 C16.8555858,12.6132597 18,13.7900552 18,15.2651934 C18,16.7237569 16.8555858,17.9005525 15.400545,17.9005525 C13.9455041,17.9005525 12.7847411,16.7237569 12.7847411,15.2651934 C12.7847411,13.7900552 13.9455041,12.6132597 15.400545,12.6132597 Z M15.4168937,13.7900552 C14.6158038,13.7900552 14.0108992,14.4198895 14.0108992,15.2486188 C14.0108992,16.0939227 14.6158038,16.7237569 15.4168937,16.7237569 C16.1852861,16.7237569 16.773842,16.0939227 16.773842,15.2486188 C16.773842,14.4198895 16.1852861,13.7900552 15.4168937,13.7900552 Z M15.6457766,6 L16.5449591,6.66298343 L8.41961853,18 L7.52043597,17.3370166 L15.6457766,6 Z" id="%" fill="#202022"></path>
        </g>
    </g>
</svg>