<?xml version="1.0" encoding="UTF-8"?>
<svg width="24px" height="24px" viewBox="0 0 24 24" version="1.1" xmlns="http://www.w3.org/2000/svg" xmlns:xlink="http://www.w3.org/1999/xlink">
    <!-- Generator: Sketch 48.2 (47327) - http://www.bohemiancoding.com/sketch -->
    <title>@Targeting/Chrome</title>
    <desc>Created with Sketch.</desc>
    <defs></defs>
    <g id="Symbols" stroke="none" stroke-width="1" fill="none" fill-rule="evenodd">
        <g id="@Targeting/Chrome">
            <rect id="Bounding-Box" x="0" y="0" width="24" height="24"></rect>
            <path d="M11.962867,0.000431888395 C14.1062798,-0.0174204687 16.1201676,0.518180237 18.0045844,1.607249 C20.0765519,2.80343791 21.6483642,4.4637971 22.720072,6.58837456 L12.7800411,6.06616012 C11.3510982,5.98581852 10.038276,6.31833667 8.84153826,7.06372356 C7.64479754,7.80911046 6.8187022,8.83344644 6.36322822,10.1367585 L2.66585749,4.45934301 C3.80901086,3.03998464 5.19774346,1.94423624 6.83209761,1.17206781 C8.46644875,0.399902373 10.1766892,0.00935806693 11.962867,0.000431888395 Z M1.9558551,5.42343328 L6.47039751,14.3010847 C7.11342224,15.5776182 8.05561714,16.5461596 9.29700923,17.2067418 C10.5384043,17.867327 11.8467585,18.068175 13.2221167,17.8092978 L10.1409741,23.8482448 C8.24762703,23.5536608 6.52845629,22.8506862 4.98341089,21.7393002 C3.43836849,20.6279157 2.22155236,19.2175015 1.33292859,17.5080213 C0.44430513,15.7985411 0,13.9618779 0,11.9979837 C0,9.61452905 0.6519451,7.42303524 1.9558551,5.42343328 Z M23.2023368,7.68636351 C23.7203287,9.02538327 23.9860194,10.4112475 23.9994148,11.8439981 C24.0128102,13.2767487 23.7962391,14.642529 23.3496954,15.941375 C22.9031517,17.240224 22.2199467,18.4542502 21.3000655,19.5834898 C20.3801843,20.7127294 19.2817006,21.6477976 18.0045844,22.3887214 C15.9504804,23.575985 13.7267221,24.1071213 11.3332437,23.9821462 L16.7587302,15.6400985 C17.5446483,14.4706881 17.9130431,13.1740917 17.8639236,11.7502672 C17.8148041,10.3264428 17.33924,9.08786952 16.4372223,8.03450847 L23.2023368,7.68636351 Z M12.0030562,7.95416686 C13.1194185,7.95416686 14.0727762,8.34917126 14.8631595,9.13919205 C15.6535427,9.92921283 16.0487284,10.8821364 16.0487284,11.9979837 C16.0487284,13.113834 15.6535427,14.0667545 14.8631595,14.8567753 C14.0727762,15.6467961 13.1194185,16.0418035 12.0030562,16.0418035 C10.886694,16.0418035 9.93333625,15.6467961 9.142953,14.8567753 C8.35256975,14.0667545 7.95738413,13.113834 7.95738413,11.9979837 C7.95738413,10.8821364 8.35256975,9.92921283 9.142953,9.13919205 C9.93333625,8.34917126 10.886694,7.95416686 12.0030562,7.95416686 Z" id="Page-1" fill="#202022"></path>
        </g>
    </g>
</svg>