<?xml version="1.0" encoding="UTF-8"?>
<svg width="24px" height="24px" viewBox="0 0 24 24" version="1.1" xmlns="http://www.w3.org/2000/svg" xmlns:xlink="http://www.w3.org/1999/xlink">
    <!-- Generator: Sketch 48.2 (47327) - http://www.bohemiancoding.com/sketch -->
    <title>@Targeting/Devices</title>
    <desc>Created with Sketch.</desc>
    <defs></defs>
    <g id="Symbols" stroke="none" stroke-width="1" fill="none" fill-rule="evenodd">
        <g id="@Targeting/Devices">
            <rect id="Bounding-Box" x="0" y="0" width="24" height="24"></rect>
            <path d="M4,6 L21,6 C21.5522847,6 22,5.55228475 22,5 L22,5 C22,4.44771525 21.5522847,4 21,4 L4,4 C2.9,4 2,4.9 2,6 L2,17 L1,17 C0.44771525,17 -6.76353751e-17,17.4477153 0,18 L0,19 C6.76353751e-17,19.5522847 0.44771525,20 1,20 L13,20 C13.5522847,20 14,19.5522847 14,19 L14,18 C14,17.4477153 13.5522847,17 13,17 L4,17 L4,6 Z M23,8 L17,8 C16.45,8 16,8.45 16,9 L16,19 C16,19.55 16.45,20 17,20 L23,20 C23.55,20 24,19.55 24,19 L24,9 C24,8.45 23.55,8 23,8 Z M22,17 L18,17 L18,10 L22,10 L22,17 Z" id="Shape" fill="#202022" fill-rule="nonzero"></path>
        </g>
    </g>
</svg>