<?xml version="1.0" encoding="UTF-8"?>
<svg width="24px" height="24px" viewBox="0 0 24 24" version="1.1" xmlns="http://www.w3.org/2000/svg" xmlns:xlink="http://www.w3.org/1999/xlink">
    <!-- Generator: Sketch 48.2 (47327) - http://www.bohemiancoding.com/sketch -->
    <title>@Targeting/Firefox</title>
    <desc>Created with Sketch.</desc>
    <defs></defs>
    <g id="Symbols" stroke="none" stroke-width="1" fill="none" fill-rule="evenodd">
        <g id="@Targeting/Firefox">
            <rect id="Bounding-Box" x="0" y="0" width="24" height="24"></rect>
            <path d="M12.0311945,24 C9.51702358,24 7.2760675,23.3068578 5.30826355,21.9205526 C3.34045661,20.5342471 1.87684114,18.6989172 0.917369364,16.4145071 C0.402097552,15.2078225 0.104488118,13.8215387 0.0245321372,12.2556123 C-0.0554238438,10.6896858 0.0600663909,9.15832738 0.371006304,7.66148428 C0.681946247,6.16464426 1.17500064,4.72769852 1.85018442,3.35060373 C2.52536819,1.97350894 3.32047497,0.856653406 4.23552624,0 L4.08894144,3.88255539 C4.18666464,3.75359638 4.48871463,3.6822104 4.99510335,3.66839436 C5.50149208,3.65457522 5.81242546,3.7259643 5.92791841,3.88255539 C6.30104741,3.13643651 7.01397781,2.50086453 8.06673049,1.97582089 C9.11948317,1.45077416 10.1611167,1.17904319 11.1916609,1.1606218 C10.7119253,1.57513092 10.1811133,2.25906214 9.59921279,3.21243403 C9.01730933,4.16580592 8.7574584,4.91882353 8.81964507,5.47150235 C9.0417446,5.5451941 9.31936529,5.60736938 9.65251608,5.6580313 C9.98566687,5.70869321 10.2655084,5.74323332 10.4920496,5.7616578 C10.7185909,5.78007919 11.0206438,5.79850367 11.3982115,5.81692506 C11.7757822,5.83534645 12.0000996,5.84916559 12.0711727,5.85837628 C12.2044324,5.90443285 12.2466315,6.11398854 12.1977699,6.48704643 C12.1489053,6.86010432 12.0134277,7.20782661 11.7913282,7.53022259 C11.7469083,7.59470364 11.6736174,7.67990566 11.5714495,7.78583794 C11.4692846,7.89176712 11.2183141,8.05526623 10.8185349,8.27633838 C10.4187557,8.49741052 9.97012095,8.65400162 9.47261561,8.74611475 L9.6725037,11.3575138 L7.82020165,10.4317771 C7.66028879,10.8278648 7.62697312,11.2032223 7.72025761,11.5578588 C7.81353911,11.9124953 7.97344899,12.2187664 8.19999021,12.4766844 C8.42653144,12.7345993 8.7174772,12.9257336 9.07283943,13.0500873 C9.42819869,13.1744378 9.78799366,13.2043757 10.1522393,13.1398946 C10.6053217,13.0569953 11.0406314,12.8981015 11.4581804,12.6632133 C11.8757263,12.4283221 12.2466285,12.2210721 12.5708959,12.0414512 C12.8951603,11.8618303 13.2216426,11.7812305 13.5503517,11.799655 C14.092274,11.8365009 14.4898263,11.9884835 14.7430207,12.2556123 C14.996215,12.522741 15.082834,12.822104 15.0028776,13.1537138 C14.9939942,13.1721352 14.982887,13.1974677 14.9695619,13.2297051 C14.9562368,13.2619456 14.9184794,13.3195156 14.8562928,13.402418 C14.7941031,13.4853205 14.7141497,13.5567064 14.6164235,13.616579 C14.5187003,13.6764547 14.378781,13.7248109 14.1966567,13.7616568 C14.0145354,13.7985026 13.8079848,13.803108 13.5770018,13.7754759 C13.043963,14.6505507 12.4021026,15.2746093 11.6514059,15.6476672 C10.9007092,16.0207282 9.97012394,16.1565921 8.85962329,16.0552683 C9.5170385,16.6171578 10.2388523,16.9971206 11.0250855,17.1951629 C11.8113217,17.3932084 12.5597857,17.4208404 13.2705072,17.2780654 C13.9812257,17.1352903 14.6675029,16.8957999 15.3293628,16.5595848 C15.9912197,16.2233728 16.5597862,15.8203832 17.0350801,15.3506037 C17.510374,14.8808274 17.8679511,14.4018434 18.1078174,13.9136425 C18.4898298,13.0754136 18.6630647,12.1888347 18.6275282,11.2538842 C18.5919947,10.3189368 18.4254223,9.45077932 18.127808,8.64939627 C17.8301937,7.84801013 17.481503,7.27231076 17.0817208,6.92227961 C17.854629,7.27231076 18.4631737,7.63845444 18.9073727,8.02072613 C19.3515748,8.40299471 19.693603,8.92112414 19.9334693,9.57512989 C20.066732,8.00920347 19.8113198,6.42948268 19.1672296,4.83592419 C18.5231395,3.24236259 17.5925542,1.93437277 16.375447,0.911917574 C18.729708,1.62118749 20.5597837,2.90845325 21.8657307,4.77374581 C23.1716778,6.63904146 23.8424091,9.02243869 23.8779456,11.9240056 C23.8957124,13.0938443 23.7158149,14.2682728 23.3382442,15.4473222 C22.9606765,16.6263716 22.4120977,17.7225062 21.6924928,18.7357507 C20.9728909,19.7489983 20.1333633,20.6516928 19.1738922,21.4438685 C18.214421,22.236043 17.1150425,22.8601013 15.8757238,23.3160623 C14.6364081,23.772023 13.3549113,24 12.0311945,24 Z" id="Page-1" fill="#202022"></path>
        </g>
    </g>
</svg>