<?xml version="1.0" encoding="UTF-8"?>
<svg width="24px" height="24px" viewBox="0 0 24 24" version="1.1" xmlns="http://www.w3.org/2000/svg" xmlns:xlink="http://www.w3.org/1999/xlink">
    <!-- Generator: Sketch 48.2 (47327) - http://www.bohemiancoding.com/sketch -->
    <title>@Targeting/food</title>
    <desc>Created with Sketch.</desc>
    <defs></defs>
    <g id="Symbols" stroke="none" stroke-width="1" fill="none" fill-rule="evenodd">
        <g id="@Targeting/food">
            <rect id="Bounding-Box" x="0" y="0" width="24" height="24"></rect>
            <path d="M19.5,15.0769231 L11.65,15.0769231 L11.2375,13.8461538 L18.25,13.8461538 C18.7375,13.8461538 19.15,13.5630769 19.3625,13.1569231 L19.375,13.1569231 L21.875,8.23384615 L21.8625,8.23384615 C21.9375,8.07384615 22,7.88923077 22,7.69230769 C22,7.01538462 21.4375,6.46153846 20.75,6.46153846 L8.7375,6.46153846 L8.1875,4.83692308 L8.175,4.83692308 C8,4.35692308 7.55,4 7,4 L3.25,4 C2.5625,4 2,4.55384615 2,5.23076923 C2,5.90769231 2.5625,6.46153846 3.25,6.46153846 L6.1,6.46153846 L9.0125,15.0769231 L7,15.0769231 C5.625,15.0769231 4.5,16.1846154 4.5,17.5384615 C4.5,18.8923077 5.625,20 7,20 C8.375,20 9.5,18.8923077 9.5,17.5384615 L17,17.5384615 C17,18.8923077 18.125,20 19.5,20 C20.875,20 22,18.8923077 22,17.5384615 C22,16.1846154 20.875,15.0769231 19.5,15.0769231 Z M9.5625,8.92307692 L18.725,8.92307692 L17.475,11.3846154 L10.4,11.3846154 L9.5625,8.92307692 Z" id="Shape" fill="#202022" fill-rule="nonzero"></path>
        </g>
    </g>
</svg>