<?xml version="1.0" encoding="UTF-8"?>
<svg width="24px" height="24px" viewBox="0 0 24 24" version="1.1" xmlns="http://www.w3.org/2000/svg" xmlns:xlink="http://www.w3.org/1999/xlink">
    <!-- Generator: Sketch 48.2 (47327) - http://www.bohemiancoding.com/sketch -->
    <title>@Targeting/Explorer</title>
    <desc>Created with Sketch.</desc>
    <defs></defs>
    <g id="Symbols" stroke="none" stroke-width="1" fill="none" fill-rule="evenodd">
        <g id="@Targeting/Explorer">
            <rect id="Bounding-Box" x="0" y="0" width="24" height="24"></rect>
            <path d="M9.36117414,22.4041459 C8.05546762,22.08186 6.86163331,21.5570039 5.77963439,20.8295608 C4.69763547,20.1021177 3.79598198,19.2227506 3.07464937,18.1914379 C1.80546722,20.9538839 1.72785647,22.7862779 2.84181436,23.6886764 C3.07921445,23.8820475 3.46726821,23.9948458 4.00598512,24.0270742 C4.54470204,24.0593027 5.1267842,24.0155648 5.75224388,23.8958588 C6.37770355,23.7761528 7.02141437,23.5850866 7.6833978,23.3226542 C8.34538123,23.0602221 8.9046349,22.7540556 9.36117414,22.4041459 Z M9.04616175,10.9262453 L15.2368136,10.9262453 C15.2368136,9.93176568 14.9560455,9.15368744 14.3945031,8.59199196 C13.8329577,8.03029338 13.0637009,7.74944874 12.0867051,7.74944874 C11.146233,7.74944874 10.4043668,8.03719902 9.86108169,8.61270886 C9.31779969,9.18821871 9.04616175,9.95938822 9.04616175,10.9262453 Z M23.1668765,5.7466876 L22.7012071,5.7466876 C22.9386069,4.8074562 23.0413275,4.0247742 23.0093719,3.39861993 C22.9774132,2.77246567 22.8632799,2.26602455 22.6669659,1.87928421 C22.470655,1.49254078 22.1807567,1.23011426 21.7972619,1.09199227 C21.4137702,0.95386718 20.9869101,0.903225853 20.5166756,0.940055909 C20.0464381,0.976889059 19.5214256,1.09889481 18.9416198,1.30607934 C18.3618141,1.51326387 17.7751668,1.77338852 17.1816658,2.08646565 C16.5881648,2.39954279 15.9764096,2.76325815 15.3463848,3.17762722 C16.5242567,3.51832689 17.6130879,4.04088116 18.6129122,4.74530548 C19.6127335,5.4497298 20.4573203,6.27384562 21.1466973,7.21768077 C21.8360713,8.16151593 22.3382583,9.22734445 22.6532707,10.4151942 C22.9682831,11.603047 23.0390449,12.8092963 22.8655625,14.0339792 L9.10094585,14.0339792 C9.10094585,14.5864703 9.14659977,15.0744933 9.23790762,15.4980699 C9.32921547,15.9216434 9.48443758,16.3129844 9.70357703,16.6721022 C9.92271648,17.03122 10.2400083,17.3074608 10.6554587,17.500831 C11.0709091,17.6942012 11.5845089,17.7908863 12.1962733,17.7908863 C12.9906534,17.7908863 13.6412119,17.5883086 14.1479732,17.1831501 C14.6547314,16.7779917 14.9857185,16.2163055 15.1409407,15.4980699 L22.5368549,15.4980699 C21.8885667,17.6159435 20.6034276,19.3516527 18.6813916,20.7052501 C16.7593586,22.0588474 14.5794137,22.7356378 12.1414892,22.7356378 C11.3836328,22.7356378 10.6577443,22.6665777 9.96380225,22.5284554 C9.64422478,22.8967813 8.95486004,23.329558 7.89568655,23.8267981 C6.83651306,24.3240379 5.70431355,24.6831504 4.49904505,24.9041459 C3.29377961,25.1251416 2.29397279,24.9640014 1.49959329,24.4207205 C0.787390542,23.8682316 0.330857439,23.1361946 0.129979836,22.224588 C-0.070897797,21.31298 -0.0389404798,20.3277234 0.2258528,19.2687882 C0.490645866,18.2098498 0.892395181,17.0956818 1.4311124,15.926244 C1.96982963,14.7568093 2.624955,13.6150157 3.39650631,12.5008322 C4.168061,11.3866457 4.9601463,10.3438391 5.77278676,9.37237827 C6.58542722,8.40091748 7.39577593,7.55608166 8.20385131,6.83784607 C9.01192668,6.11961048 9.72639939,5.60396185 10.347294,5.29088472 L10.347294,4.95939565 C9.25159981,5.30009532 8.07146076,5.93314594 6.80684614,6.85856607 C5.54222846,7.7839831 4.44426709,8.73701339 3.5129252,9.7176817 C2.581583,10.69835 1.85569512,11.598434 1.33523947,12.4179584 C1.37176292,11.4418939 1.52698411,10.5164892 1.80090796,9.64171352 C2.07483212,8.76694091 2.4400586,7.98886266 2.89659876,7.30746022 C3.353138,6.62605778 3.89184878,6.00221467 4.51274337,5.43591234 C5.13363796,4.86961311 5.8070249,4.40691078 6.5329226,4.04779298 C7.2588203,3.68867518 8.02579763,3.38711054 8.833873,3.14309595 C9.64194838,2.89908136 10.4659923,2.76326125 11.3060233,2.7356387 C12.1460574,2.70801307 12.9906442,2.74484622 13.8398084,2.84613506 C16.6703578,1.13341989 18.9667186,0.263260317 20.7289644,0.235637775 L20.8248373,0.235637775 C21.3452939,0.235637775 21.8155222,0.318508495 22.2355377,0.484256122 C22.9660036,0.760500105 23.4134065,1.37053194 23.5777588,2.31436709 C23.7421141,3.25820225 23.6051554,4.40229774 23.1668765,5.7466876 Z" id="Page-1" fill="#202022"></path>
        </g>
    </g>
</svg>