<?xml version="1.0" encoding="UTF-8"?>
<svg width="24px" height="24px" viewBox="0 0 24 24" version="1.1" xmlns="http://www.w3.org/2000/svg" xmlns:xlink="http://www.w3.org/1999/xlink">
    <!-- Generator: Sketch 48.2 (47327) - http://www.bohemiancoding.com/sketch -->
    <title>@Targeting/listing</title>
    <desc>Created with Sketch.</desc>
    <defs></defs>
    <g id="Symbols" stroke="none" stroke-width="1" fill="none" fill-rule="evenodd">
        <g id="@Targeting/listing">
            <rect id="Bounding-Box" x="0" y="0" width="24" height="24"></rect>
            <path d="M6.375,10.7142857 L15.125,10.7142857 C15.475,10.7142857 15.75,10.4314286 15.75,10.0714286 C15.75,9.71142857 15.475,9.42857143 15.125,9.42857143 L6.375,9.42857143 C6.025,9.42857143 5.75,9.71142857 5.75,10.0714286 C5.75,10.4314286 6.025,10.7142857 6.375,10.7142857 Z M20.75,3 L3.25,3 C2.5625,3 2,3.57857143 2,4.28571429 L2,19.7142857 C2,20.4214286 2.5625,21 3.25,21 L20.75,21 C21.4375,21 22,20.4214286 22,19.7142857 L22,4.28571429 C22,3.57857143 21.4375,3 20.75,3 Z M19.5,18.4285714 L4.5,18.4285714 L4.5,8.14285714 L19.5,8.14285714 L19.5,18.4285714 Z M6.375,13.2857143 L11.375,13.2857143 C11.725,13.2857143 12,13.0028571 12,12.6428571 C12,12.2828571 11.725,12 11.375,12 L6.375,12 C6.025,12 5.75,12.2828571 5.75,12.6428571 C5.75,13.0028571 6.025,13.2857143 6.375,13.2857143 Z M6.375,15.8571429 L12.625,15.8571429 C12.975,15.8571429 13.25,15.5742857 13.25,15.2142857 C13.25,14.8542857 12.975,14.5714286 12.625,14.5714286 L6.375,14.5714286 C6.025,14.5714286 5.75,14.8542857 5.75,15.2142857 C5.75,15.5742857 6.025,15.8571429 6.375,15.8571429 Z" id="Shape" fill="#202022" fill-rule="nonzero"></path>
        </g>
    </g>
</svg>