<?xml version="1.0" encoding="UTF-8"?>
<svg width="24px" height="24px" viewBox="0 0 24 24" version="1.1" xmlns="http://www.w3.org/2000/svg" xmlns:xlink="http://www.w3.org/1999/xlink">
    <!-- Generator: Sketch 48.2 (47327) - http://www.bohemiancoding.com/sketch -->
    <title>@Targeting/news</title>
    <desc>Created with Sketch.</desc>
    <defs></defs>
    <g id="Symbols" stroke="none" stroke-width="1" fill="none" fill-rule="evenodd">
        <g id="@Targeting/news">
            <rect id="Bounding-Box" x="0" y="0" width="24" height="24"></rect>
            <path d="M18.25,12 L12,12 L12,18.25 L18.25,18.25 L18.25,12 Z M18.25,5.75 L12,5.75 L12,10.75 L18.25,10.75 L18.25,5.75 Z M20.75,2 L3.25,2 C2.5625,2 2,2.5625 2,3.25 L2,20.75 C2,21.4375 2.5625,22 3.25,22 L20.75,22 C21.4375,22 22,21.4375 22,20.75 L22,3.25 C22,2.5625 21.4375,2 20.75,2 Z M19.5,19.5 L4.5,19.5 L4.5,4.5 L19.5,4.5 L19.5,19.5 Z M10.75,5.75 L5.75,5.75 L5.75,18.25 L10.75,18.25 L10.75,5.75 Z" id="Shape" fill="#202022" fill-rule="nonzero"></path>
        </g>
    </g>
</svg>