<?xml version="1.0" encoding="UTF-8"?>
<svg width="24px" height="24px" viewBox="0 0 24 24" version="1.1" xmlns="http://www.w3.org/2000/svg" xmlns:xlink="http://www.w3.org/1999/xlink">
    <!-- Generator: Sketch 48.2 (47327) - http://www.bohemiancoding.com/sketch -->
    <title>@Targeting/Opera</title>
    <desc>Created with Sketch.</desc>
    <defs></defs>
    <g id="Symbols" stroke="none" stroke-width="1" fill="none" fill-rule="evenodd">
        <g id="@Targeting/Opera">
            <rect id="Bounding-Box" x="0" y="0" width="24" height="24"></rect>
            <path d="M12.5137606,21.8035713 C13.2201867,21.8035713 13.8600879,21.5223243 14.4334858,20.959821 C15.0068837,20.397318 15.467888,19.656255 15.8165142,18.736608 C16.1651404,17.816961 16.4357776,16.770096 16.6284412,15.595983 C16.8211018,14.42187 16.9174321,13.22322 16.9174321,12 C16.9174321,10.77678 16.8211018,9.57813 16.6284412,8.404017 C16.4357776,7.229904 16.1651404,6.183039 15.8165142,5.263392 C15.467888,4.343745 15.0068837,3.602682 14.4334858,3.040179 C13.8600879,2.477676 13.2201867,2.196429 12.5137606,2.196429 C11.8073345,2.196429 11.1674332,2.477676 10.5940354,3.040179 C10.0206406,3.602682 9.55963626,4.343745 9.21101006,5.263392 C8.86238385,6.183039 8.59174356,7.229904 8.39908301,8.404017 C8.20642246,9.57813 8.11009218,10.77678 8.11009218,12 C8.11009218,13.22322 8.20642246,14.42187 8.39908301,15.595983 C8.59174356,16.770096 8.86238385,17.816961 9.21101006,18.736608 C9.55963626,19.656255 10.0206406,20.397318 10.5940354,20.959821 C11.1674332,21.5223243 11.8073345,21.8035713 12.5137606,21.8035713 Z M12.5137606,24 C10.8256812,24 9.29817277,23.6562534 7.93119222,22.96875 C6.56421475,22.2812466 5.46330613,21.3750057 4.62844046,20.25 C3.79357386,19.124994 3.14679143,17.843757 2.68807344,16.40625 C2.22935551,14.968743 2,13.500009 2,12 C2,10.499994 2.22935551,9.031257 2.68807344,7.59375 C3.14679143,6.156243 3.79357386,4.875006 4.62844046,3.75 C5.46330613,2.624994 6.56421475,1.718754 7.93119222,1.03125 C9.29817277,0.343746 10.8256812,0 12.5137606,0 C13.8715674,0 15.1284355,0.223212 16.284405,0.669642 C17.4403714,1.116075 18.4243088,1.723209 19.236239,2.491071 C20.0481691,3.258933 20.7431157,4.156245 21.3211005,5.183037 C21.8990852,6.209826 22.3233946,7.299102 22.594038,8.450892 C22.8646814,9.602685 23,10.785708 23,12 C23,13.214292 22.8646814,14.397315 22.594038,15.549108 C22.3233946,16.700898 21.8990852,17.790174 21.3211005,18.816963 C20.7431157,19.843755 20.0481691,20.741067 19.236239,21.5089287 C18.4243088,22.2767895 17.4403714,22.8839262 16.284405,23.3303571 C15.1284355,23.7767879 13.8715674,24 12.5137606,24 Z" id="Page-1" fill="#202022"></path>
        </g>
    </g>
</svg>