<?xml version="1.0" encoding="UTF-8"?>
<svg width="24px" height="24px" viewBox="0 0 24 24" version="1.1" xmlns="http://www.w3.org/2000/svg" xmlns:xlink="http://www.w3.org/1999/xlink">
    <!-- Generator: Sketch 48.2 (47327) - http://www.bohemiancoding.com/sketch -->
    <title>@Targeting/Safari</title>
    <desc>Created with Sketch.</desc>
    <defs></defs>
    <g id="Symbols" stroke="none" stroke-width="1" fill="none" fill-rule="evenodd">
        <g id="@Targeting/Safari">
            <rect id="Bounding-Box" x="0" y="0" width="24" height="24"></rect>
            <path d="M12.709821,11.959821 C12.709821,12.191964 12.636162,12.392856 12.488838,12.5625 C12.341517,12.732144 12.156252,12.816963 11.933037,12.816963 C11.700891,12.816963 11.500002,12.743304 11.330358,12.595983 C11.160714,12.448659 11.075892,12.263394 11.075892,12.040179 C11.075892,11.808036 11.151786,11.607144 11.303571,11.4375 C11.455359,11.267856 11.642856,11.183037 11.866071,11.183037 C12.089286,11.183037 12.285714,11.256696 12.455358,11.404017 C12.625002,11.551341 12.709821,11.736606 12.709821,11.959821 Z M12.910713,12.736608 L17.598213,4.955358 C17.517858,5.026785 17.21652,5.3058 16.694196,5.792412 C16.171872,6.279021 15.61161,6.799104 15.013392,7.352679 C14.415177,7.906254 13.805808,8.473212 13.185267,9.053571 C12.564729,9.63393 12.042414,10.127229 11.618304,10.533483 C11.194194,10.939734 10.96875,11.169642 10.941963,11.223213 L6.267858,18.991071 C6.330357,18.928572 6.629463,18.651789 7.165179,18.160713 C7.700895,17.66964 8.263389,17.149557 8.852679,16.600446 C9.441966,16.051338 10.049103,15.484377 10.674108,14.899554 C11.29911,14.314728 11.821425,13.819197 12.241071,13.412946 C12.660717,13.006695 12.883929,12.781251 12.910713,12.736608 Z M21.575892,12 C21.575892,13.794651 21.111612,15.450885 20.183037,16.96875 C20.15625,16.950894 20.080359,16.901787 19.955358,16.821429 C19.830357,16.741071 19.712055,16.667412 19.600446,16.600446 C19.48884,16.533483 19.415178,16.5 19.379463,16.5 C19.263393,16.5 19.205358,16.558035 19.205358,16.674108 C19.205358,16.763394 19.468746,16.959819 19.995537,17.263392 C19.334817,18.263397 18.511167,19.113837 17.524554,19.814733 C16.537941,20.515629 15.459828,21.0089271 14.290179,21.2946429 L14.075892,20.397321 C14.066964,20.308035 14.000001,20.263392 13.875,20.263392 C13.830357,20.263392 13.794642,20.287947 13.767858,20.337054 C13.741071,20.386161 13.732143,20.428572 13.741071,20.464287 L13.955358,21.375 C13.312497,21.5089293 12.660717,21.5758929 12,21.5758929 C10.223205,21.5758929 8.562507,21.1071474 7.017858,20.169642 C7.026786,20.151786 7.084821,20.060268 7.191963,19.895088 C7.299108,19.729911 7.39509,19.580358 7.479912,19.446429 C7.564734,19.3125 7.607142,19.227678 7.607142,19.191963 C7.607142,19.075893 7.549107,19.017858 7.433037,19.017858 C7.379463,19.017858 7.303572,19.082589 7.205358,19.212054 C7.107141,19.341519 7.006698,19.495536 6.904017,19.674108 C6.801339,19.85268 6.741072,19.955358 6.723213,19.982142 C5.71428,19.312497 4.857147,18.475452 4.151787,17.470983 C3.446424,16.466514 2.9553585,15.375006 2.6785713,14.196429 L3.602679,13.995537 C3.691965,13.96875 3.736608,13.901787 3.736608,13.794642 C3.736608,13.749999 3.712053,13.714287 3.662946,13.6875 C3.613839,13.660713 3.566964,13.651785 3.522321,13.660713 L2.6116071,13.861608 C2.4866064,13.218747 2.4241071,12.598218 2.4241071,12 C2.4241071,10.160706 2.9107095,8.468757 3.883929,6.924108 C3.901785,6.933036 3.984375,6.986607 4.131696,7.084821 C4.27902,7.183035 4.412946,7.267857 4.533483,7.339287 C4.654017,7.410714 4.732143,7.446429 4.767858,7.446429 C4.883928,7.446429 4.941963,7.392858 4.941963,7.285713 C4.941963,7.232142 4.88616,7.162947 4.774554,7.078125 C4.662945,6.993303 4.517859,6.897321 4.339287,6.790179 L4.071429,6.629463 C4.758933,5.629458 5.602674,4.785717 6.602679,4.098213 C7.602684,3.410712 8.691957,2.933037 9.870537,2.665179 L10.071429,3.5625 C10.089285,3.651786 10.156248,3.696429 10.272321,3.696429 C10.316964,3.696429 10.352679,3.671874 10.379463,3.622767 C10.40625,3.57366 10.415178,3.526785 10.40625,3.482142 L10.205358,2.598213 C10.839288,2.482143 11.437497,2.424108 12,2.424108 C13.821438,2.424108 15.513384,2.910708 17.075892,3.883929 C16.727676,4.38393 16.553571,4.674108 16.553571,4.754463 C16.553571,4.870536 16.607142,4.928571 16.714287,4.928571 C16.812501,4.928571 17.026785,4.64286 17.357142,4.071429 C18.348219,4.741074 19.185264,5.571423 19.868304,6.5625 C20.551344,7.553577 21.031248,8.629458 21.308037,9.790179 L20.558037,9.950892 C20.468751,9.968751 20.424108,10.040178 20.424108,10.165179 C20.424108,10.209822 20.44866,10.245537 20.497767,10.272321 C20.546874,10.299108 20.589285,10.308036 20.625,10.299108 L21.388392,10.125 C21.513393,10.767861 21.575892,11.392854 21.575892,12 Z M22.714287,12 C22.714287,10.544637 22.430805,9.156258 21.863838,7.834821 C21.296871,6.513387 20.53572,5.375004 19.580358,4.419642 C18.624996,3.46428 17.486613,2.703129 16.165179,2.136162 C14.843742,1.569195 13.455363,1.285713 12,1.285713 C10.544637,1.285713 9.156258,1.569195 7.834821,2.136162 C6.513387,2.703129 5.375004,3.46428 4.419642,4.419642 C3.46428,5.375004 2.7031278,6.513387 2.1361608,7.834821 C1.5691935,9.156258 1.2857142,10.544637 1.2857142,12 C1.2857142,13.455363 1.5691935,14.843742 2.1361608,16.165179 C2.7031278,17.486613 3.46428,18.624996 4.419642,19.580358 C5.375004,20.53572 6.513387,21.2968722 7.834821,21.8638392 C9.156258,22.4308065 10.544637,22.7142858 12,22.7142858 C13.455363,22.7142858 14.843742,22.4308065 16.165179,21.8638392 C17.486613,21.2968722 18.624996,20.53572 19.580358,19.580358 C20.53572,18.624996 21.296871,17.486613 21.863838,16.165179 C22.430805,14.843742 22.714287,13.455363 22.714287,12 Z M24,12 C24,13.625007 23.683038,15.178563 23.049108,16.660713 C22.415175,18.142866 21.562506,19.419639 20.491071,20.491071 C19.419636,21.5625054 18.142866,22.4151753 16.660713,23.0491071 C15.178563,23.6830389 13.625007,24 12,24 C10.374993,24 8.821437,23.6830389 7.339287,23.0491071 C5.857134,22.4151753 4.580361,21.5625054 3.508929,20.491071 C2.4374946,19.419639 1.5848247,18.142866 0.9508929,16.660713 C0.3169611,15.178563 0,13.625007 0,12 C0,10.374993 0.3169611,8.821437 0.9508929,7.339287 C1.5848247,5.857134 2.4374946,4.580364 3.508929,3.508929 C4.580361,2.437494 5.857134,1.584825 7.339287,0.950892 C8.821437,0.316962 10.374993,0 12,0 C13.625007,0 15.178563,0.316962 16.660713,0.950892 C18.142866,1.584825 19.419636,2.437494 20.491071,3.508929 C21.562506,4.580364 22.415175,5.857134 23.049108,7.339287 C23.683038,8.821437 24,10.374993 24,12 Z" id="Page-1" fill="#202022"></path>
        </g>
    </g>
</svg>