<?xml version="1.0" encoding="UTF-8"?>
<svg width="24px" height="24px" viewBox="0 0 24 24" version="1.1" xmlns="http://www.w3.org/2000/svg" xmlns:xlink="http://www.w3.org/1999/xlink">
    <!-- Generator: Sketch 48.2 (47327) - http://www.bohemiancoding.com/sketch -->
    <title>@Targeting/select all</title>
    <desc>Created with Sketch.</desc>
    <defs></defs>
    <g id="Symbols" stroke="none" stroke-width="1" fill="none" fill-rule="evenodd">
        <g id="@Targeting/select-all">
            <rect id="Bounding-Box" x="0" y="0" width="24" height="24"></rect>
            <path d="M21.000079,18 L12.0007902,18 C11.4508336,18 11.0008692,18.45 11.0008692,19 L11.0008692,20 C11.0008692,20.55 11.4508336,21 12.0007902,21 L21.000079,21 C21.5500356,21 22,20.55 22,20 L22,19 C22,18.45 21.5500356,18 21.000079,18 Z M21.000079,13 L12.0007902,13 C11.4508336,13 11.0008692,13.45 11.0008692,14 L11.0008692,15 C11.0008692,15.55 11.4508336,16 12.0007902,16 L21.000079,16 C21.5500356,16 22,15.55 22,15 L22,14 C22,13.45 21.5500356,13 21.000079,13 Z M9.0010272,17 C8.72104933,17 8.47106908,17.11 8.2910833,17.29 L7.00118523,18.59 L7.00118523,13 C7.00118523,12.45 6.55122079,12 6.00126425,12 C5.45130771,12 5.00134326,12.45 5.00134326,13 L5.00134326,18.59 L3.71144519,17.3 C3.52673736,17.1057211 3.26954335,16.997039 3.0015013,17 C2.59669383,17.0005845 2.23192581,17.2444918 2.07669632,17.618384 C1.92146683,17.9922761 2.00621383,18.4228389 2.2915574,18.71 L5.29132035,21.71 C5.47130613,21.89 5.72128637,22 6.00126425,22 C6.28124212,22 6.53122237,21.89 6.71120815,21.71 L9.7109711,18.71 C9.99631467,18.4228389 10.0810617,17.9922761 9.92583218,17.618384 C9.77060269,17.2444918 9.40583466,17.0005845 9.0010272,17 Z M21.000079,3 L12.0007902,3 C11.4508336,3 11.0008692,3.45 11.0008692,4 L11.0008692,5 C11.0008692,5.55 11.4508336,6 12.0007902,6 L21.000079,6 C21.5500356,6 22,5.55 22,5 L22,4 C22,3.45 21.5500356,3 21.000079,3 Z M21.000079,8 L12.0007902,8 C11.4508336,8 11.0008692,8.45 11.0008692,9 L11.0008692,10 C11.0008692,10.55 11.4508336,11 12.0007902,11 L21.000079,11 C21.5500356,11 22,10.55 22,10 L22,9 C22,8.45 21.5500356,8 21.000079,8 Z" id="Shape" fill="#202022" fill-rule="nonzero"></path>
        </g>
    </g>
</svg>