<?xml version="1.0" encoding="UTF-8"?>
<svg width="24px" height="24px" viewBox="0 0 24 24" version="1.1" xmlns="http://www.w3.org/2000/svg" xmlns:xlink="http://www.w3.org/1999/xlink">
    <!-- Generator: Sketch 48.2 (47327) - http://www.bohemiancoding.com/sketch -->
    <title>@Targeting/sub-industry</title>
    <desc>Created with Sketch.</desc>
    <defs></defs>
    <g id="Symbols" stroke="none" stroke-width="1" fill="none" fill-rule="evenodd">
        <g id="@Targeting/sub-industry">
            <rect id="Bounding-Box" x="0" y="0" width="24" height="24"></rect>
            <path d="M19.7679805,12.6320091 L11.3679909,4.23201946 C11.2171657,4.08204445 11.0126851,3.99852422 10.7999916,4.00001974 L4.79999901,4.00001974 C4.35999956,4.00001974 4,4.3600193 4,4.80001876 L4,10.8000114 C4,11.0240111 4.08799989,11.2240108 4.23199971,11.3680107 L12.6319893,19.7680003 C12.7759892,19.9120001 12.9759889,20 13.1999886,20 C13.4239884,20 13.6239881,19.9120001 13.7679879,19.7680003 L19.7679805,13.7680077 C19.9119804,13.6240079 19.9999803,13.4240081 19.9999803,13.2000084 C19.9999803,12.9760087 19.9119804,12.7760089 19.7679805,12.6320091 Z M7.99999506,9.60001283 C7.11999615,9.60001283 6.39999704,8.88001372 6.39999704,8.00001481 C6.39999704,7.12001589 7.11999615,6.40001678 7.99999506,6.40001678 C8.87999398,6.40001678 9.59999309,7.12001589 9.59999309,8.00001481 C9.59999309,8.88001372 8.87999398,9.60001283 7.99999506,9.60001283 Z" id="Shape" fill="#202022" fill-rule="nonzero"></path>
        </g>
    </g>
</svg>