<?xml version="1.0" encoding="UTF-8"?>
<svg width="24px" height="24px" viewBox="0 0 24 24" version="1.1" xmlns="http://www.w3.org/2000/svg" xmlns:xlink="http://www.w3.org/1999/xlink">
    <!-- Generator: Sketch 48.2 (47327) - http://www.bohemiancoding.com/sketch -->
    <title>@Targeting/Targeting</title>
    <desc>Created with Sketch.</desc>
    <defs></defs>
    <g id="Symbols" stroke="none" stroke-width="1" fill="none" fill-rule="evenodd">
        <g id="@Targeting/Targeting">
            <rect id="Bounding-Box" x="0" y="0" width="24" height="24"></rect>
            <path d="M3,9 C3.55,9 4,8.55 4,8 L4,4 L8,4 C8.55,4 9,3.55 9,3 C9,2.45 8.55,2 8,2 L3,2 C2.45,2 2,2.45 2,3 L2,8 C2,8.55 2.45,9 3,9 Z M8,10 C7.99941547,9.59516055 7.75550816,9.2303637 7.38161604,9.07512194 C7.00772391,8.91988018 6.57716111,9.00463388 6.29,9.29 L4.29,11.29 C4.11,11.47 4,11.72 4,12 C4,12.28 4.11,12.53 4.29,12.71 L6.29,14.71 C6.68212218,15.1021222 7.31787781,15.1021221 7.70999998,14.71 C8.10212214,14.3178778 8.10212215,13.6821222 7.71,13.29 L6.41,12 L7.7,10.71 C7.89,10.53 8,10.28 8,10 Z M10,8 C10.28,8 10.53,7.89 10.71,7.71 L12,6.41 L13.29,7.7 C13.47,7.89 13.72,8 14,8 C14.4048395,7.99941547 14.7696363,7.75550816 14.9248781,7.38161604 C15.0801198,7.00772391 14.9953661,6.57716111 14.71,6.29 L12.71,4.29 C12.53,4.11 12.28,4 12,4 C11.72,4 11.47,4.11 11.29,4.29 L9.29,6.29 C9.00463388,6.57716111 8.91988018,7.00772391 9.07512194,7.38161604 C9.2303637,7.75550816 9.59516055,7.99941547 10,8 Z M8,20 L4,20 L4,16 C4,15.45 3.55,15 3,15 C2.45,15 2,15.45 2,16 L2,21 C2,21.55 2.45,22 3,22 L8,22 C8.55,22 9,21.55 9,21 C9,20.45 8.55,20 8,20 Z M16,14 C16.0005845,14.4048395 16.2444918,14.7696363 16.618384,14.9248781 C16.9922761,15.0801198 17.4228389,14.9953661 17.71,14.71 L19.71,12.71 C19.89,12.53 20,12.28 20,12 C20,11.72 19.89,11.47 19.71,11.29 L17.71,9.29 C17.3178778,8.89787785 16.6821222,8.89787787 16.29,9.29000003 C15.8978779,9.68212219 15.8978779,10.3178778 16.29,10.71 L17.59,12 L16.3,13.29 C16.11,13.47 16,13.72 16,14 Z M21,2 L16,2 C15.45,2 15,2.45 15,3 C15,3.55 15.45,4 16,4 L20,4 L20,8 C20,8.55 20.45,9 21,9 C21.55,9 22,8.55 22,8 L22,3 C22,2.45 21.55,2 21,2 Z M14,16 C13.72,16 13.47,16.11 13.29,16.29 L12,17.59 L10.71,16.3 C10.5252776,16.1057211 10.2680632,15.997039 10,16 C9.59516055,16.0005845 9.2303637,16.2444918 9.07512194,16.618384 C8.91988018,16.9922761 9.00463388,17.4228389 9.29,17.71 L11.29,19.71 C11.47,19.89 11.72,20 12,20 C12.28,20 12.53,19.89 12.71,19.71 L14.71,17.71 C14.9953661,17.4228389 15.0801198,16.9922761 14.9248781,16.618384 C14.7696363,16.2444918 14.4048395,16.0005845 14,16 Z M21,15 C20.45,15 20,15.45 20,16 L20,20 L16,20 C15.45,20 15,20.45 15,21 C15,21.55 15.45,22 16,22 L21,22 C21.55,22 22,21.55 22,21 L22,16 C22,15.45 21.55,15 21,15 Z" id="Shape" fill="#202022" fill-rule="nonzero"></path>
        </g>
    </g>
</svg>