<?xml version="1.0" encoding="UTF-8"?>
<svg width="24px" height="24px" viewBox="0 0 24 24" version="1.1" xmlns="http://www.w3.org/2000/svg" xmlns:xlink="http://www.w3.org/1999/xlink">
    <!-- Generator: Sketch 48.2 (47327) - http://www.bohemiancoding.com/sketch -->
    <title>@Status/Error</title>
    <desc>Created with Sketch.</desc>
    <defs></defs>
    <g id="Symbols" stroke="none" stroke-width="1" fill="none" fill-rule="evenodd">
        <g id="@Status/Error">
            <rect id="Bounding-Box" x="0" y="0" width="24" height="24"></rect>
            <path d="M12.7887324,12 L12.7887324,8.76995305 C12.7887324,8.33434818 12.4356049,7.98122066 12,7.98122066 L12,7.98122066 C11.5643951,7.98122066 11.2112676,8.33434818 11.2112676,8.76995305 L11.2112676,12 C11.2112676,12.4356049 11.5643951,12.7887324 12,12.7887324 L12,12.7887324 C12.4356049,12.7887324 12.7887324,12.4356049 12.7887324,12 Z M12.7887324,15.2300469 L12.7887324,15.1924883 C12.7887324,14.7568834 12.4356049,14.4037559 12,14.4037559 L12,14.4037559 C11.5643951,14.4037559 11.2112676,14.7568834 11.2112676,15.1924883 L11.2112676,15.2300469 C11.2112676,15.6656518 11.5643951,16.0187793 12,16.0187793 L12,16.0187793 C12.4356049,16.0187793 12.7887324,15.6656518 12.7887324,15.2300469 Z M12,4 C14.2034533,4 16.0876301,4.7824658 17.6525834,6.34741664 C19.2175342,7.91236988 20,9.7965467 20,12 C20,14.2034533 19.2175342,16.0876301 17.6525834,17.6525822 C16.0876301,19.2175352 14.2034533,20 12,20 C9.7965467,20 7.91236988,19.2175352 6.34741784,17.6525822 C4.78246484,16.0876301 4,14.2034533 4,12 C4,9.7965467 4.78246484,7.91236988 6.34741784,6.34741664 C7.91236988,4.7824658 9.7965467,4 12,4 Z" id="Page-1" fill="#992115"></path>
        </g>
    </g>
</svg>