<?xml version="1.0" encoding="UTF-8"?>
<svg width="24px" height="24px" viewBox="0 0 24 24" version="1.1" xmlns="http://www.w3.org/2000/svg" xmlns:xlink="http://www.w3.org/1999/xlink">
    <!-- Generator: Sketch 48.2 (47327) - http://www.bohemiancoding.com/sketch -->
    <title>@Status/Inactive</title>
    <desc>Created with Sketch.</desc>
    <defs>
        <path d="M12,20 C7.581722,20 4,16.418278 4,12 C4,7.581722 7.581722,4 12,4 C16.418278,4 20,7.581722 20,12 C20,16.418278 16.418278,20 12,20 Z M9,11 C8.44771525,11 8,11.4477153 8,12 C8,12.5522847 8.44771525,13 9,13 L15,13 C15.5522847,13 16,12.5522847 16,12 C16,11.4477153 15.5522847,11 15,11 L9,11 Z" id="path-1"></path>
    </defs>
    <g id="Symbols" stroke="none" stroke-width="1" fill="none" fill-rule="evenodd">
        <g id="@Status/Inactive">
            <rect id="Bounding-Box" x="0" y="0" width="24" height="24"></rect>
            <mask id="mask-2" fill="white">
                <use xlink:href="#path-1"></use>
            </mask>
            <use id="inactive" fill="#ACB5BE" xlink:href="#path-1"></use>
        </g>
    </g>
</svg>