<?xml version="1.0" encoding="UTF-8"?>
<svg width="24px" height="24px" viewBox="0 0 24 24" version="1.1" xmlns="http://www.w3.org/2000/svg" xmlns:xlink="http://www.w3.org/1999/xlink">
    <!-- Generator: Sketch 48.2 (47327) - http://www.bohemiancoding.com/sketch -->
    <title>@Status/Live</title>
    <desc>Created with Sketch.</desc>
    <defs></defs>
    <g id="Symbols" stroke="none" stroke-width="1" fill="none" fill-rule="evenodd">
        <g id="@Status/Live">
            <rect id="Bounding-Box" x="0" y="0" width="24" height="24"></rect>
            <path d="M12,20 C7.581722,20 4,16.418278 4,12 C4,7.581722 7.581722,4 12,4 C16.418278,4 20,7.581722 20,12 C20,16.418278 16.418278,20 12,20 Z M15.3333333,9.33333333 C15.1466667,9.33333333 14.98,9.40666667 14.86,9.52666667 L10.6666667,13.7266667 L9.14,12.1933333 C8.97089429,12.0242276 8.72441734,11.9581843 8.49341464,12.0200813 C8.26241194,12.0819783 8.0819783,12.2624119 8.02008131,12.4934146 C7.95818432,12.7244173 8.02422762,12.9708943 8.19333333,13.14 L10.1933333,15.14 C10.3133333,15.26 10.48,15.3333333 10.6666667,15.3333333 C10.8533333,15.3333333 11.02,15.26 11.14,15.14 L15.8066667,10.4733333 C15.9969107,10.2818926 16.0534132,9.99485072 15.9499187,9.74558931 C15.8464242,9.49632789 15.6032263,9.33372302 15.3333333,9.33333333 Z" id="Combined-Shape" fill="#07B07C"></path>
        </g>
    </g>
</svg>