<?xml version="1.0" encoding="UTF-8"?>
<svg width="24px" height="24px" viewBox="0 0 24 24" version="1.1" xmlns="http://www.w3.org/2000/svg" xmlns:xlink="http://www.w3.org/1999/xlink">
    <!-- Generator: Sketch 48.2 (47327) - http://www.bohemiancoding.com/sketch -->
    <title>@Status/Pause/Default</title>
    <desc>Created with Sketch.</desc>
    <defs>
        <circle id="path-1" cx="12" cy="12" r="8"></circle>
    </defs>
    <g id="Symbols" stroke="none" stroke-width="1" fill="none" fill-rule="evenodd">
        <g id="@Status/Pause/Default">
            <rect id="Bounding-Box" x="0" y="0" width="24" height="24"></rect>
            <g id="Oval">
                <use fill="#FFFFFF" fill-rule="evenodd" xlink:href="#path-1"></use>
                <circle stroke="#F0F2F3" stroke-width="2" cx="12" cy="12" r="7"></circle>
            </g>
            <path d="M14,9 C14.5522847,9 15,9.44771525 15,10 L15,14 C15,14.5522847 14.5522847,15 14,15 C13.4477153,15 13,14.5522847 13,14 L13,10 C13,9.44771525 13.4477153,9 14,9 Z M10,9 C10.5522847,9 11,9.44771525 11,10 L11,14 C11,14.5522847 10.5522847,15 10,15 C9.44771525,15 9,14.5522847 9,14 L9,10 C9,9.44771525 9.44771525,9 10,9 Z" id="pause" fill="#5F656C"></path>
        </g>
    </g>
</svg>