<?xml version="1.0" encoding="UTF-8"?>
<svg width="24px" height="24px" viewBox="0 0 24 24" version="1.1" xmlns="http://www.w3.org/2000/svg" xmlns:xlink="http://www.w3.org/1999/xlink">
    <!-- Generator: Sketch 48.2 (47327) - http://www.bohemiancoding.com/sketch -->
    <title>@Status/Pending</title>
    <desc>Created with Sketch.</desc>
    <defs></defs>
    <g id="Symbols" stroke="none" stroke-width="1" fill="none" fill-rule="evenodd">
        <g id="@Status/Pending">
            <circle id="Oval" fill="#EADC47" cx="12" cy="12" r="8"></circle>
            <path d="M12.5,11.795 L12.5,9 C12.5,8.725 12.275,8.5 12,8.5 C11.725,8.5 11.5,8.725 11.5,9 L11.5,12 C11.5,12.14 11.555,12.265 11.645,12.355 L13.145,13.855 C13.3410611,14.0510611 13.6589389,14.0510611 13.855,13.855 C14.0510611,13.6589389 14.0510611,13.3410611 13.855,13.145 L12.5,11.795 Z M12,7 C9.24,7 7,9.24 7,12 C7,14.76 9.24,17 12,17 C14.76,17 17,14.76 17,12 C17,9.24 14.76,7 12,7 Z M12,16 C9.79,16 8,14.21 8,12 C8,9.79 9.79,8 12,8 C14.21,8 16,9.79 16,12 C16,14.21 14.21,16 12,16 Z" id="Shape" fill="#5F656C" fill-rule="nonzero"></path>
        </g>
    </g>
</svg>