<?xml version="1.0" encoding="UTF-8"?>
<svg width="24px" height="24px" viewBox="0 0 24 24" version="1.1" xmlns="http://www.w3.org/2000/svg" xmlns:xlink="http://www.w3.org/1999/xlink">
    <!-- Generator: Sketch 48.2 (47327) - http://www.bohemiancoding.com/sketch -->
    <title>@Arrow/Decrease</title>
    <desc>Created with Sketch.</desc>
    <defs></defs>
    <g id="Symbols" stroke="none" stroke-width="1" fill="none" fill-rule="evenodd">
        <g id="@Arrow/Decrease">
            <rect id="Bounding-Box" x="0" y="0" width="24" height="24"></rect>
            <path d="M18,13 C17.7,13 17.5,13.1 17.3,13.3 L13,17.6 L13,4 C13,3.5 12.6,3 12,3 C11.4,3 11,3.5 11,4 L11,17.6 L6.7,13.3 C6.5,13.1 6.3,13 6,13 C5.5,13 5,13.4 5,14 C5,14.3 5.1,14.5 5.3,14.7 L11.3,20.7 C11.5,20.9 11.7,21 12,21 C12.3,21 12.5,20.9 12.7,20.7 L18.7,14.7 C18.9,14.5 19,14.3 19,14 C19,13.4 18.5,13 18,13 Z" id="decrease" fill="#202022" fill-rule="nonzero"></path>
        </g>
    </g>
</svg>