<?xml version="1.0" encoding="UTF-8"?>
<svg width="24px" height="24px" viewBox="0 0 24 24" version="1.1" xmlns="http://www.w3.org/2000/svg" xmlns:xlink="http://www.w3.org/1999/xlink">
    <!-- Generator: Sketch 48.2 (47327) - http://www.bohemiancoding.com/sketch -->
    <title>@Arrow/Increase</title>
    <desc>Created with Sketch.</desc>
    <defs></defs>
    <g id="Symbols" stroke="none" stroke-width="1" fill="none" fill-rule="evenodd">
        <g id="@Arrow/Increase">
            <rect id="Bounding-Box" x="0" y="0" width="24" height="24"></rect>
            <path d="M18.7,9.3 L12.7,3.3 C12.5,3.1 12.3,3 12,3 C11.7,3 11.5,3.1 11.3,3.3 L5.3,9.3 C5.1,9.5 5,9.7 5,10 C5,10.6 5.5,11 6,11 C6.3,11 6.5,10.9 6.7,10.7 L11,6.4 L11,20 C11,20.5 11.4,21 12,21 C12.6,21 13,20.5 13,20 L13,6.4 L17.3,10.7 C17.5,10.9 17.7,11 18,11 C18.5,11 19,10.6 19,10 C19,9.7 18.9,9.5 18.7,9.3 Z" id="increase" fill="#202022" fill-rule="nonzero"></path>
        </g>
    </g>
</svg>