<?xml version="1.0" encoding="UTF-8"?>
<svg width="24px" height="24px" viewBox="0 0 24 24" version="1.1" xmlns="http://www.w3.org/2000/svg" xmlns:xlink="http://www.w3.org/1999/xlink">
    <!-- Generator: Sketch 48.2 (47327) - http://www.bohemiancoding.com/sketch -->
    <title>@Formatting/Align Left</title>
    <desc>Created with Sketch.</desc>
    <defs></defs>
    <g id="Symbols" stroke="none" stroke-width="1" fill="none" fill-rule="evenodd">
        <g id="@Formatting/Align-Left">
            <rect id="Bounding-Box" x="0" y="0" width="24" height="24"></rect>
            <path d="M3,9 L13,9 C13.55,9 14,8.55 14,8 C14,7.45 13.55,7 13,7 L3,7 C2.45,7 2,7.45 2,8 C2,8.55 2.45,9 3,9 Z M3,5 L21,5 C21.55,5 22,4.55 22,4 C22,3.45 21.55,3 21,3 L3,3 C2.45,3 2,3.45 2,4 C2,4.55 2.45,5 3,5 Z M17,19 L3,19 C2.45,19 2,19.45 2,20 C2,20.55 2.45,21 3,21 L17,21 C17.55,21 18,20.55 18,20 C18,19.45 17.55,19 17,19 Z M21,11 L3,11 C2.45,11 2,11.45 2,12 C2,12.55 2.45,13 3,13 L21,13 C21.55,13 22,12.55 22,12 C22,11.45 21.55,11 21,11 Z M3,17 L9,17 C9.55,17 10,16.55 10,16 C10,15.45 9.55,15 9,15 L3,15 C2.45,15 2,15.45 2,16 C2,16.55 2.45,17 3,17 Z" id="align-left" fill="#202022" fill-rule="nonzero"></path>
        </g>
    </g>
</svg>