<?xml version="1.0" encoding="UTF-8"?>
<svg width="24px" height="24px" viewBox="0 0 24 24" version="1.1" xmlns="http://www.w3.org/2000/svg" xmlns:xlink="http://www.w3.org/1999/xlink">
    <!-- Generator: Sketch 48.2 (47327) - http://www.bohemiancoding.com/sketch -->
    <title>@Formatting/Bold</title>
    <desc>Created with Sketch.</desc>
    <defs></defs>
    <g id="Symbols" stroke="none" stroke-width="1" fill="none" fill-rule="evenodd">
        <g id="@Formatting/Bold">
            <rect id="Bounding-Box" x="0" y="0" width="24" height="24"></rect>
            <path d="M16.3,11 C16.7,10.2 17,9.4 17,8.5 C17,6 15,4 12.5,4 L7,4 C6.4,4 6,4.4 6,5 L6,18 C6,18.6 6.4,19 7,19 L13.5,19 C16,19 18,17 18,14.5 C18,13.1 17.3,11.8 16.3,11 Z M9,7 L12.5,7 C13.3,7 14,7.7 14,8.5 C14,9.3 13.3,10 12.5,10 L9,10 L9,7 Z M13.5,16 L9,16 L9,13 L13.5,13 C14.3,13 15,13.7 15,14.5 C15,15.3 14.3,16 13.5,16 Z" id="bold" fill="#202022" fill-rule="nonzero"></path>
        </g>
    </g>
</svg>