<?xml version="1.0" encoding="UTF-8"?>
<svg width="24px" height="24px" viewBox="0 0 24 24" version="1.1" xmlns="http://www.w3.org/2000/svg" xmlns:xlink="http://www.w3.org/1999/xlink">
    <!-- Generator: Sketch 48.2 (47327) - http://www.bohemiancoding.com/sketch -->
    <title>@Formatting/Bullet List</title>
    <desc>Created with Sketch.</desc>
    <defs></defs>
    <g id="Symbols" stroke="none" stroke-width="1" fill="none" fill-rule="evenodd">
        <g id="@Formatting/Bullet-List">
            <rect id="Bounding-Box" x="0" y="0" width="24" height="24"></rect>
            <path d="M21.0004998,6.02 L11.0054973,6.02 C10.4557721,6.02 10.005997,6.47 10.005997,7.02 L10.005997,8.02 C10.005997,8.57 10.4557721,9.02 11.0054973,9.02 L21.0004998,9.02 C21.5502249,9.02 22,8.57 22,8.02 L22,7.02 C22,6.46 21.5502249,6.02 21.0004998,6.02 Z M21.0004998,15.02 C21.5502249,15.02 22,15.46 22,16.02 L22,17.02 C22,17.57 21.5502249,18.02 21.0004998,18.02 L11.0054973,18.02 C10.4557721,18.02 10.005997,17.57 10.005997,17.02 L10.005997,16.02 C10.005997,15.47 10.4557721,15.02 11.0054973,15.02 L21.0004998,15.02 Z M4.99850075,11 C3.34247451,11 2,9.65685425 2,8 C2,6.34314575 3.34247451,5 4.99850075,5 C6.65452699,5 7.9970015,6.34314575 7.9970015,8 C7.9970015,9.65685425 6.65452699,11 4.99850075,11 Z M4.99850075,20 C3.34247451,20 2,18.6568542 2,17 C2,15.3431458 3.34247451,14 4.99850075,14 C6.65452699,14 7.9970015,15.3431458 7.9970015,17 C7.9970015,18.6568542 6.65452699,20 4.99850075,20 Z" id="bullet" fill="#202022" fill-rule="nonzero"></path>
        </g>
    </g>
</svg>