<?xml version="1.0" encoding="UTF-8"?>
<svg width="24px" height="24px" viewBox="0 0 24 24" version="1.1" xmlns="http://www.w3.org/2000/svg" xmlns:xlink="http://www.w3.org/1999/xlink">
    <!-- Generator: Sketch 48.2 (47327) - http://www.bohemiancoding.com/sketch -->
    <title>@Formatting/Indent Left</title>
    <desc>Created with Sketch.</desc>
    <defs></defs>
    <g id="Symbols" stroke="none" stroke-width="1" fill="none" fill-rule="evenodd">
        <g id="@Formatting/Indent-Left">
            <rect id="Bounding-Box" x="0" y="0" width="24" height="24"></rect>
            <path d="M4,21 L20,21 C20.5522847,21 21,20.5522847 21,20 L21,20 C21,19.4477153 20.5522847,19 20,19 L4,19 C3.44771525,19 3,19.4477153 3,20 L3,20 C3,20.5522847 3.44771525,21 4,21 Z M20,8 L20,16 L16,12 L20,8 Z M4,17 L12,17 C12.5522847,17 13,16.5522847 13,16 L13,16 C13,15.4477153 12.5522847,15 12,15 L4,15 C3.44771525,15 3,15.4477153 3,16 L3,16 C3,16.5522847 3.44771525,17 4,17 Z M3,4 L3,4 C3,4.55228475 3.44771525,5 4,5 L20,5 C20.5522847,5 21,4.55228475 21,4 L21,4 C21,3.44771525 20.5522847,3 20,3 L4,3 C3.44771525,3 3,3.44771525 3,4 Z M4,9 L12,9 C12.5522847,9 13,8.55228475 13,8 L13,8 C13,7.44771525 12.5522847,7 12,7 L4,7 C3.44771525,7 3,7.44771525 3,8 L3,8 C3,8.55228475 3.44771525,9 4,9 Z M4,13 L12,13 C12.5522847,13 13,12.5522847 13,12 L13,12 C13,11.4477153 12.5522847,11 12,11 L4,11 C3.44771525,11 3,11.4477153 3,12 L3,12 C3,12.5522847 3.44771525,13 4,13 Z" id="indent-left" fill="#202022" fill-rule="nonzero"></path>
        </g>
    </g>
</svg>