<?xml version="1.0" encoding="UTF-8"?>
<svg width="24px" height="24px" viewBox="0 0 24 24" version="1.1" xmlns="http://www.w3.org/2000/svg" xmlns:xlink="http://www.w3.org/1999/xlink">
    <!-- Generator: Sketch 48.2 (47327) - http://www.bohemiancoding.com/sketch -->
    <title>@Formatting/Indent Right</title>
    <desc>Created with Sketch.</desc>
    <defs></defs>
    <g id="Symbols" stroke="none" stroke-width="1" fill="none" fill-rule="evenodd">
        <g id="@Formatting/Indent-Right">
            <rect id="Bounding-Box" x="0" y="0" width="24" height="24"></rect>
            <path d="M4,21 L20,21 C20.5522847,21 21,20.5522847 21,20 L21,20 C21,19.4477153 20.5522847,19 20,19 L4,19 C3.44771525,19 3,19.4477153 3,20 L3,20 C3,20.5522847 3.44771525,21 4,21 Z M3,8 L3,16 L7,12 L3,8 Z M12,17 L20,17 C20.5522847,17 21,16.5522847 21,16 L21,16 C21,15.4477153 20.5522847,15 20,15 L12,15 C11.4477153,15 11,15.4477153 11,16 L11,16 C11,16.5522847 11.4477153,17 12,17 Z M3,4 L3,4 C3,4.55228475 3.44771525,5 4,5 L20,5 C20.5522847,5 21,4.55228475 21,4 L21,4 C21,3.44771525 20.5522847,3 20,3 L4,3 C3.44771525,3 3,3.44771525 3,4 Z M12,9 L20,9 C20.5522847,9 21,8.55228475 21,8 L21,8 C21,7.44771525 20.5522847,7 20,7 L12,7 C11.4477153,7 11,7.44771525 11,8 L11,8 C11,8.55228475 11.4477153,9 12,9 Z M12,13 L20,13 C20.5522847,13 21,12.5522847 21,12 L21,12 C21,11.4477153 20.5522847,11 20,11 L12,11 C11.4477153,11 11,11.4477153 11,12 L11,12 C11,12.5522847 11.4477153,13 12,13 Z" id="indent-right" fill="#202022" fill-rule="nonzero"></path>
        </g>
    </g>
</svg>