<?xml version="1.0" encoding="UTF-8"?>
<svg width="24px" height="24px" viewBox="0 0 24 24" version="1.1" xmlns="http://www.w3.org/2000/svg" xmlns:xlink="http://www.w3.org/1999/xlink">
    <!-- Generator: Sketch 48.2 (47327) - http://www.bohemiancoding.com/sketch -->
    <title>@Formatting/Number List</title>
    <desc>Created with Sketch.</desc>
    <defs></defs>
    <g id="Symbols" stroke="none" stroke-width="1" fill="none" fill-rule="evenodd">
        <g id="@Formatting/Number-List">
            <rect id="Bounding-Box" x="0" y="0" width="24" height="24"></rect>
            <path d="M4.74907943,11.0055525 L6.01841136,11.0055525 L6.01841136,3 L5.0689111,3 C5.02893214,3.23986674 4.94897422,3.44975014 4.80904787,3.61965575 C4.67911625,3.78956135 4.51920042,3.91948917 4.33929511,4.0294281 C4.14939506,4.13936702 3.93950552,4.20932815 3.70962651,4.25930039 C3.4797475,4.29927818 3.24986849,4.32926152 3,4.32926152 L3,5.35868962 L4.74907943,5.35868962 L4.74907943,11.0055525 Z M5.17885324,18.9311494 C5.35875855,18.7912271 5.5486586,18.6513048 5.75854813,18.5013881 C5.96843766,18.3614659 6.1783272,18.2115491 6.38821673,18.051638 C6.59810626,17.8917268 6.79800105,17.7218212 6.99789584,17.5519156 C7.19779064,17.3720155 7.36770121,17.1721266 7.5176223,16.9622432 C7.6675434,16.7523598 7.79747501,16.5124931 7.88742767,16.2626319 C7.97738033,16.0127707 8.02735402,15.7229317 8.02735402,15.4131038 C8.02735402,15.1632426 7.98737507,14.8933926 7.90741715,14.613548 C7.82745923,14.3337035 7.69752762,14.0738479 7.5176223,13.8339811 C7.32772225,13.5941144 7.0878485,13.3942254 6.78800631,13.2443087 C6.48816412,13.0744031 6.10836402,12.9944475 5.66859548,12.9944475 C5.25881115,12.9944475 4.89900053,13.0744031 4.5891636,13.2243198 C4.26933193,13.384231 4.0094687,13.5941144 3.78958443,13.8639645 C3.56970016,14.1338145 3.40978432,14.4536369 3.29984219,14.8234314 C3.18990005,15.193226 3.13992635,15.5930039 3.13992635,16.0327596 L4.32930037,16.0327596 C4.33929511,15.752915 4.35928459,15.5030539 4.40925829,15.2631871 C4.45923198,15.0233204 4.52919516,14.813437 4.61914782,14.6435314 C4.70910047,14.4636313 4.83903209,14.3337035 4.99894792,14.2237646 C5.15886376,14.1238201 5.34876381,14.0738479 5.58863756,14.0738479 C5.84850079,14.0738479 6.05839032,14.1238201 6.21830615,14.2137701 C6.37822199,14.3037202 6.5081536,14.4236535 6.59810626,14.5635758 C6.68805892,14.7034981 6.74802735,14.8534148 6.77801157,15.0133259 C6.80799579,15.1732371 6.82798527,15.3231538 6.82798527,15.4630761 C6.81799053,15.7729039 6.74802735,16.042754 6.608101,16.2726263 C6.46817464,16.5124931 6.28826933,16.7223765 6.0783798,16.9322599 C5.85849553,17.1321488 5.62861652,17.3220433 5.36875329,17.5019434 C5.10889006,17.6818434 4.85902157,17.8617435 4.62914256,18.0416435 C4.12940558,18.4014436 3.73961073,18.8212104 3.45975802,19.3109384 C3.15991583,19.7806774 3.00999474,20.3503609 3,21 L8.00736454,21 L8.00736454,19.860633 L4.4392425,19.860633 C4.4892162,19.6907274 4.57916886,19.5308162 4.70910047,19.3709051 C4.83903209,19.2209883 4.99894792,19.0710716 5.17885324,18.9311494 Z M21.000526,6.01832315 L11.0057864,6.01832315 C10.4560757,6.01832315 10.0063125,6.46807329 10.0063125,7.01776791 L10.0063125,8.01721266 C10.0063125,8.56690727 10.4560757,9.01665741 11.0057864,9.01665741 L21.000526,9.01665741 C21.5502367,9.01665741 22,8.56690727 22,8.01721266 L22,7.01776791 C22,6.45807885 21.5502367,6.01832315 21.000526,6.01832315 Z M21.000526,15.0133259 L11.0057864,15.0133259 C10.4560757,15.0133259 10.0063125,15.4630761 10.0063125,16.0127707 L10.0063125,17.0122154 C10.0063125,17.56191 10.4560757,18.0116602 11.0057864,18.0116602 L21.000526,18.0116602 C21.5502367,18.0116602 22,17.56191 22,17.0122154 L22,16.0127707 C22,15.4530816 21.5502367,15.0133259 21.000526,15.0133259 Z" id="number-list" fill="#202022" fill-rule="nonzero"></path>
        </g>
    </g>
</svg>