<?xml version="1.0" encoding="UTF-8"?>
<svg width="24px" height="24px" viewBox="0 0 24 24" version="1.1" xmlns="http://www.w3.org/2000/svg" xmlns:xlink="http://www.w3.org/1999/xlink">
    <!-- Generator: Sketch 48.2 (47327) - http://www.bohemiancoding.com/sketch -->
    <title>@Formatting/Resize</title>
    <desc>Created with Sketch.</desc>
    <defs></defs>
    <g id="Symbols" stroke="none" stroke-width="1" fill="none" fill-rule="evenodd">
        <g id="@Formatting/Resize">
            <rect id="Bounding-Box" x="0" y="0" width="24" height="24"></rect>
            <path d="M21.71,11.29 L18.71,8.29 C18.4563414,8.03634143 18.086626,7.93727648 17.740122,8.03012196 C17.3936179,8.12296744 17.1229674,8.39361791 17.030122,8.74012196 C16.9372765,9.08662601 17.0363414,9.45634143 17.29,9.71 L18.59,11 L13,11 L13,5.41 L14.29,6.7 C14.47,6.89 14.72,7 15,7 C15.4048395,6.99941547 15.7696363,6.75550816 15.9248781,6.38161604 C16.0801198,6.00772391 15.9953661,5.57716111 15.71,5.29 L12.71,2.29 C12.53,2.11 12.28,2 12,2 C11.72,2 11.47,2.11 11.29,2.29 L8.29,5.29 C7.89787784,5.68212217 7.89787785,6.31787782 8.29000001,6.70999999 C8.68212218,7.10212215 9.31787783,7.10212216 9.71,6.71 L11,5.41 L11,11 L5.41,11 L6.7,9.71 C6.89,9.53 7,9.28 7,9 C6.99941547,8.59516055 6.75550816,8.2303637 6.38161604,8.07512194 C6.00772391,7.91988018 5.57716111,8.00463388 5.29,8.29 L2.29,11.29 C2.11,11.47 2,11.72 2,12 C2,12.28 2.11,12.53 2.29,12.71 L5.29,15.71 C5.68212218,16.1021222 6.31787781,16.1021221 6.70999998,15.71 C7.10212214,15.3178778 7.10212215,14.6821222 6.71,14.29 L5.41,13 L11,13 L11,18.59 L9.71,17.3 C9.52527757,17.1057211 9.26806324,16.997039 9,17 C8.59516055,17.0005845 8.2303637,17.2444918 8.07512194,17.618384 C7.91988018,17.9922761 8.00463388,18.4228389 8.29,18.71 L11.29,21.71 C11.47,21.89 11.72,22 12,22 C12.28,22 12.53,21.89 12.71,21.71 L15.71,18.71 C16.1021222,18.3178778 16.1021222,17.6821222 15.71,17.29 C15.3178778,16.8978778 14.6821222,16.8978778 14.29,17.29 L13,18.59 L13,13 L18.59,13 L17.3,14.29 C17.11,14.47 17,14.72 17,15 C17.0005845,15.4048395 17.2444918,15.7696363 17.618384,15.9248781 C17.9922761,16.0801198 18.4228389,15.9953661 18.71,15.71 L21.71,12.71 C21.89,12.53 22,12.28 22,12 C22,11.72 21.89,11.47 21.71,11.29 Z" id="resize" fill="#202022" fill-rule="nonzero"></path>
        </g>
    </g>
</svg>