<?xml version="1.0" encoding="UTF-8"?>
<svg width="24px" height="24px" viewBox="0 0 24 24" version="1.1" xmlns="http://www.w3.org/2000/svg" xmlns:xlink="http://www.w3.org/1999/xlink">
    <!-- Generator: Sketch 48.2 (47327) - http://www.bohemiancoding.com/sketch -->
    <title>@Formatting/Underline</title>
    <desc>Created with Sketch.</desc>
    <defs></defs>
    <g id="Symbols" stroke="none" stroke-width="1" fill="none" fill-rule="evenodd">
        <g id="@Formatting/Underline">
            <rect id="Bounding-Box" x="0" y="0" width="24" height="24"></rect>
            <path d="M12,18 C8.7,18 6,15.3 6,12 L6,4.5 C6,3.7 6.7,3 7.5,3 C8.3,3 9,3.7 9,4.5 L9,12 C9,13.7 10.3,15 12,15 C13.7,15 15,13.7 15,12 L15,4.5 C15,3.7 15.7,3 16.5,3 C17.3,3 18,3.7 18,4.5 L18,12 C18,15.3 15.3,18 12,18 Z M18.5,20 C18.8,20 19,20.2 19,20.5 C19,20.8 18.8,21 18.5,21 L5.5,21 C5.2,21 5,20.8 5,20.5 C5,20.2 5.2,20 5.5,20 L18.5,20 Z" id="underline" fill="#202022" fill-rule="nonzero"></path>
        </g>
    </g>
</svg>