<?xml version="1.0" encoding="UTF-8"?>
<svg width="24px" height="24px" viewBox="0 0 24 24" version="1.1" xmlns="http://www.w3.org/2000/svg" xmlns:xlink="http://www.w3.org/1999/xlink">
    <!-- Generator: Sketch 48.2 (47327) - http://www.bohemiancoding.com/sketch -->
    <title>@System/Help</title>
    <desc>Created with Sketch.</desc>
    <defs></defs>
    <g id="Symbols" stroke="none" stroke-width="1" fill="none" fill-rule="evenodd">
        <g id="@System/Help">
            <rect id="Bounding-Box" x="0" y="0" width="24" height="24"></rect>
            <path d="M12,2 C6.48,2 2,6.48 2,12 C2,17.52 6.48,22 12,22 C17.52,22 22,17.52 22,12 C22,6.48 17.52,2 12,2 Z M9.41,6.62 C10.06,6.08 10.92,5.8 11.97,5.8 C12.51,5.8 13,5.88 13.45,6.05 C13.89,6.22 14.28,6.44 14.59,6.73 C14.91,7.02 15.15,7.36 15.33,7.75 C15.5,8.14 15.59,8.57 15.59,9.02 C15.59,9.47 15.51,9.89 15.35,10.25 C15.19,10.62 14.95,10.98 14.64,11.36 L13.43,12.94 C13.29,13.11 13.15,13.27 13.11,13.42 C13.06,13.57 13,13.77 13,14.02 L13,14.99 L11,14.99 L11,12.99 C11,12.99 11.06,12.41 11.24,12.18 L12.45,10.54 C12.7,10.24 12.86,9.98 12.96,9.77 C13.06,9.56 13.1,9.33 13.1,9.1 C13.1,8.75 12.99,8.47 12.78,8.25 C12.57,8.03 12.28,7.92 11.9,7.92 C11.53,7.92 11.23,8.03 11.01,8.25 C10.79,8.48 10.64,8.79 10.55,9.19 C10.52,9.31 10.44,9.36 10.32,9.35 L8.37,9.06 C8.25,9.05 8.21,8.98 8.23,8.84 C8.36,7.91 8.75,7.17 9.41,6.62 Z M11,16 L13.02,16 L13,18 L11,18 L11,16 Z" id="Mask" fill="#202022"></path>
        </g>
    </g>
</svg>