<?xml version="1.0" encoding="UTF-8"?>
<svg width="24px" height="24px" viewBox="0 0 24 24" version="1.1" xmlns="http://www.w3.org/2000/svg" xmlns:xlink="http://www.w3.org/1999/xlink">
    <!-- Generator: Sketch 48.2 (47327) - http://www.bohemiancoding.com/sketch -->
    <title>@System/Progress</title>
    <desc>Created with Sketch.</desc>
    <defs></defs>
    <g id="Symbols" stroke="none" stroke-width="1" fill="none" fill-rule="evenodd">
        <g id="@System/Progress">
            <rect id="Bounding-Box" x="0" y="0" width="24" height="24"></rect>
            <path d="M14.0454545,3.63636364 C14.0454545,5.81818182 10.7727273,5.81818182 10.7727273,3.63636364 C10.7727273,1.45454545 14.0454545,1.45454545 14.0454545,3.63636364 Z M13.2272727,20 C13.2272727,21.0909091 11.5909091,21.0909091 11.5909091,20 C11.5909091,18.9090909 13.2272727,18.9090909 13.2272727,20 Z M9.61381818,3.97709091 C10.6138182,5.71018182 8.01563636,7.21018182 7.01563636,5.47745455 C6.01563636,3.74581818 8.61381818,2.24581818 9.61381818,3.97709091 Z M17.0923636,18.5669091 C17.5469091,19.3552727 16.3665455,20.0370909 15.912,19.2487273 C15.4574545,18.4618182 16.6378182,17.78 17.0923636,18.5669091 Z M6.00290909,6.55127273 C7.57672727,7.46036364 6.21309091,9.82254545 4.63927273,8.91345455 C3.064,8.00436364 4.42763636,5.64218182 6.00290909,6.55127273 Z M19.7698182,15.4330909 C20.3992727,15.7967273 19.8538182,16.7414545 19.2243636,16.3778182 C18.5938182,16.0141818 19.1392727,15.0694545 19.7698182,15.4330909 Z M5.45454545,11.8181818 C5.45454545,13.4545455 3,13.4545455 3,11.8181818 C3,10.1818182 5.45454545,10.1818182 5.45454545,11.8181818 Z M21,11.8181818 C21,12.3636364 20.1818182,12.3636364 20.1818182,11.8181818 C20.1818182,11.2727273 21,11.2727273 21,11.8181818 Z M6.26290909,15.3665455 C6.99018182,16.6250909 5.10072727,17.716 4.37345455,16.4574545 C3.64618182,15.1974545 5.53563636,14.1065455 6.26290909,15.3665455 Z M19.7345455,7.588 C19.9163636,7.90327273 19.4447273,8.176 19.2629091,7.86072727 C19.0810909,7.54545455 19.5527273,7.27272727 19.7345455,7.588 Z M8.79963636,18.0796364 C9.90181818,18.716 8.94727273,20.3694545 7.84509091,19.7330909 C6.74290909,19.0967273 7.69745455,17.4432727 8.79963636,18.0796364 Z" id="progress" fill="#202022"></path>
        </g>
    </g>
</svg>