<?xml version="1.0" encoding="UTF-8"?>
<svg width="24px" height="24px" viewBox="0 0 24 24" version="1.1" xmlns="http://www.w3.org/2000/svg" xmlns:xlink="http://www.w3.org/1999/xlink">
    <!-- Generator: Sketch 48.2 (47327) - http://www.bohemiancoding.com/sketch -->
    <title>@Placement-Type/In transaction</title>
    <desc>Created with Sketch.</desc>
    <defs></defs>
    <g id="Symbols" stroke="none" stroke-width="1" fill="none" fill-rule="evenodd">
        <g id="@Placement-Type/In-transaction">
            <rect id="Bounding-Box" x="0" y="0" width="24" height="24"></rect>
            <path d="M21,5 L3,5 C2.45,5 2,5.45 2,6 L2,8 L22,8 L22,6 C22,5.45 21.55,5 21,5 Z M2,18 C2,18.55 2.45,19 3,19 L21,19 C21.55,19 22,18.55 22,18 L22,10 L2,10 L2,18 Z M8.5,16 L15.5,16 C15.78,16 16,16.22 16,16.5 C16,16.78 15.78,17 15.5,17 L8.5,17 C8.22,17 8,16.78 8,16.5 C8,16.22 8.22,16 8.5,16 Z M4.5,16 L6.5,16 C6.78,16 7,16.22 7,16.5 C7,16.78 6.78,17 6.5,17 L4.5,17 C4.22,17 4,16.78 4,16.5 C4,16.22 4.22,16 4.5,16 Z" id="Shape" fill="#202022" fill-rule="nonzero"></path>
        </g>
    </g>
</svg>