<?xml version="1.0" encoding="UTF-8"?>
<svg width="24px" height="24px" viewBox="0 0 24 24" version="1.1" xmlns="http://www.w3.org/2000/svg" xmlns:xlink="http://www.w3.org/1999/xlink">
    <!-- Generator: Sketch 48.2 (47327) - http://www.bohemiancoding.com/sketch -->
    <title>@Placement-Type/Post Action</title>
    <desc>Created with Sketch.</desc>
    <defs></defs>
    <g id="Symbols" stroke="none" stroke-width="1" fill="none" fill-rule="evenodd">
        <g id="@Placement-Type/Post-Action">
            <rect id="Bounding-Box" x="0" y="0" width="24" height="24"></rect>
            <path d="M17.1450581,10.6018439 L11.0243344,9.46529047 L11.0243344,5.6203873 C11.0243344,4.85448259 10.5115129,4.14394448 9.77127282,4.02090758 C8.82771145,3.86480451 8.01216718,4.6037949 8.01216718,5.53810637 L8.01216718,14.0791743 L7.25912539,14.0791743 L7.25912539,11.7722324 L6.50608359,11.7722324 C5.67397241,11.7722324 5,12.46047 5,13.3101936 L5,15.5363926 C5,16.5837442 5.34941139,17.6003366 5.99024996,18.418532 L8.01216718,21 L17.8017105,21 L18.9734436,13.2217609 C19.1594449,11.986778 18.3491719,10.8248482 17.1450581,10.6018439 Z M12.530418,18.6930581 L11.0243344,18.6930581 L11.0243344,13.3101936 L12.530418,13.3101936 L12.530418,18.6930581 Z M15.5425851,18.6930581 L14.0365015,18.6930581 L14.0365015,13.3101936 L15.5425851,13.3101936 L15.5425851,18.6930581 Z" id="Shape" fill="#202022" fill-rule="nonzero"></path>
        </g>
    </g>
</svg>