<?xml version="1.0" encoding="UTF-8"?>
<svg width="24px" height="24px" viewBox="0 0 24 24" version="1.1" xmlns="http://www.w3.org/2000/svg" xmlns:xlink="http://www.w3.org/1999/xlink">
    <!-- Generator: Sketch 48.2 (47327) - http://www.bohemiancoding.com/sketch -->
    <title>@Meta Data/automatic audience</title>
    <desc>Created with Sketch.</desc>
    <defs></defs>
    <g id="Symbols" stroke="none" stroke-width="1" fill="none" fill-rule="evenodd">
        <g id="@Meta-Data/automatic-audience">
            <rect id="Bounding-Box" x="0" y="0" width="24" height="24"></rect>
            <path d="M10,13 L5,13 C4.45,13 4,13.45 4,14 C4,14.55 4.45,15 5,15 L7.59,15 L2.3,20.29 C2.11,20.47 2,20.72 2,21 C2.00058453,21.4048395 2.24449184,21.7696363 2.61838396,21.9248781 C2.99227609,22.0801198 3.42283889,21.9953661 3.71,21.71 L9,16.41 L9,19 C9,19.55 9.45,20 10,20 C10.55,20 11,19.55 11,19 L11,14 C11,13.45 10.55,13 10,13 Z M20,15 C19.47,15 18.99,15.21 18.63,15.55 L13.9,12.6 C13.96,12.41 14,12.21 14,12 C14,11.79 13.96,11.59 13.9,11.4 L18.62,8.45 C18.99,8.79 19.47,9 20,9 C21.1,9 22,8.1 22,7 C22,5.9 21.1,5 20,5 C18.9,5 18,5.9 18,7 C18,7.21 18.04,7.41 18.1,7.6 L13.37,10.56 C13.13,10.33 12.83,10.16 12.5,10.08 L12.5,5.93 C13.36,5.71 14,4.93 14,4 C14,2.9 13.1,2 12,2 C10.9,2 10,2.9 10,4 C10,4.93 10.64,5.71 11.5,5.93 L11.5,10.07 C11.17,10.16 10.87,10.33 10.63,10.55 L9.6,9.91 L7.42,8.55 L5.9,7.6 C5.96,7.41 6,7.21 6,7 C6,5.9 5.1,5 4,5 C2.9,5 2,5.9 2,7 C2,8.1 2.9,9 4,9 C4.53,9 5.01,8.79 5.37,8.45 L11,11.96 L11,12 L11.06,12 L14,13.84 L14.4,14.09 L15.91,15.03 L18.1,16.4 C18.04,16.59 18,16.79 18,17 C18,18.1 18.9,19 20,19 C21.1,19 22,18.1 22,17 C22,15.9 21.1,15 20,15 Z M13,12.04 L12.94,12 L13,12 L13,12.04 Z" id="auto-aud" fill="#202022" fill-rule="nonzero"></path>
        </g>
    </g>
</svg>