<?xml version="1.0" encoding="UTF-8"?>
<svg width="24px" height="24px" viewBox="0 0 24 24" version="1.1" xmlns="http://www.w3.org/2000/svg" xmlns:xlink="http://www.w3.org/1999/xlink">
    <!-- Generator: Sketch 48.2 (47327) - http://www.bohemiancoding.com/sketch -->
    <title>@Meta Data/external</title>
    <desc>Created with Sketch.</desc>
    <defs></defs>
    <g id="Symbols" stroke="none" stroke-width="1" fill="none" fill-rule="evenodd">
        <g id="@Meta-Data/external">
            <rect id="Bounding-Box" x="0" y="0" width="24" height="24"></rect>
            <path d="M21.71,11.29 L16.71,6.29 C16.3178778,5.89787783 15.6821222,5.89787783 15.29,6.29 C14.8978778,6.68212217 14.8978778,7.31787783 15.29,7.71 L18.59,11 L8,11 C7.45,11 7,11.45 7,12 C7,12.55 7.45,13 8,13 L18.59,13 L15.3,16.29 C15.11,16.47 15,16.72 15,17 C15.0005845,17.4048395 15.2444918,17.7696363 15.618384,17.9248781 C15.9922761,18.0801198 16.4228389,17.9953661 16.71,17.71 L21.71,12.71 C21.89,12.53 22,12.28 22,12 C22,11.72 21.89,11.47 21.71,11.29 Z M11,20 L4,20 L4,4 L11,4 C11.55,4 12,3.55 12,3 C12,2.45 11.55,2 11,2 L3,2 C2.45,2 2,2.45 2,3 L2,21 C2,21.55 2.45,22 3,22 L11,22 C11.55,22 12,21.55 12,21 C12,20.45 11.55,20 11,20 Z" id="external" fill="#202022" fill-rule="nonzero"></path>
        </g>
    </g>
</svg>