<?xml version="1.0" encoding="UTF-8"?>
<svg width="24px" height="24px" viewBox="0 0 24 24" version="1.1" xmlns="http://www.w3.org/2000/svg" xmlns:xlink="http://www.w3.org/1999/xlink">
    <!-- Generator: Sketch 48.2 (47327) - http://www.bohemiancoding.com/sketch -->
    <title>@Meta Data/ID</title>
    <desc>Created with Sketch.</desc>
    <defs></defs>
    <g id="Symbols" stroke="none" stroke-width="1" fill="none" fill-rule="evenodd">
        <g id="@Meta-Data/ID">
            <rect id="Bounding-Box" x="0" y="0" width="24" height="24"></rect>
            <circle id="Mask" fill="#D8D8D8" cx="12" cy="12" r="12"></circle>
            <path d="M8,14 L8,10 L6,10 L6,8 L8,8 L8,6 L10,6 L10,8 L14,8 L14,6 L16,6 L16,8 L18,8 L18,10 L16,10 L16,14 L18,14 L18,16 L16,16 L16,18 L14,18 L14,16 L10,16 L10,18 L8,18 L8,16 L6,16 L6,14 L8,14 Z M10,14 L14,14 L14,10 L10,10 L10,14 Z" id="ID" fill="#202022"></path>
        </g>
    </g>
</svg>