<?xml version="1.0" encoding="UTF-8"?>
<svg width="24px" height="24px" viewBox="0 0 24 24" version="1.1" xmlns="http://www.w3.org/2000/svg" xmlns:xlink="http://www.w3.org/1999/xlink">
    <!-- Generator: Sketch 48.2 (47327) - http://www.bohemiancoding.com/sketch -->
    <title>@Meta Data/Star</title>
    <desc>Created with Sketch.</desc>
    <defs></defs>
    <g id="Symbols" stroke="none" stroke-width="1" fill="none" fill-rule="evenodd">
        <g id="@Meta-Data/Star">
            <rect id="Bounding-Box" x="0" y="0" width="24" height="24"></rect>
            <path d="M21.2882483,8.73595712 L15.4456402,7.8013371 L12.8841552,2.41208854 C12.6470734,1.91327927 12.0505159,1.70110719 11.5517066,1.93818894 C11.3421059,2.03781122 11.1736798,2.20723236 11.075294,2.41741634 L8.50251378,7.91370651 L2.72021093,8.75459125 C2.17367504,8.83407061 1.79505091,9.34155623 1.87453026,9.88809212 C1.90497314,10.0974311 2.00101743,10.2917236 2.14885283,10.4430321 L6.37478149,14.7682407 L5.3633463,20.9422092 C5.2740598,21.4872288 5.64350448,22.0014354 6.18852408,22.0907219 C6.40945705,22.1269157 6.63614512,22.0879254 6.83228863,21.9799945 L11.974077,19.1506479 L17.1107816,21.9771971 C17.5946481,22.2434519 18.2027416,22.0670428 18.4689965,21.5831763 C18.5772935,21.3863676 18.6161709,21.1588275 18.5793634,20.9372263 L17.5733725,14.8806101 L21.8523061,10.4152795 C22.234419,10.0165212 22.2209252,9.38350004 21.8221669,9.00138716 C21.6753259,8.86067576 21.4890716,8.76808206 21.2882483,8.73595712 Z M11.7358702,17.1431909 L8.19235022,19.0395402 C7.94888008,19.1698357 7.64588321,19.0780894 7.51558778,18.8346193 C7.46303251,18.7364145 7.44477288,18.6234729 7.4637054,18.5137104 L8.22681744,14.0895194 L5.16772612,11.019952 C4.97279803,10.8243564 4.97333918,10.5077744 5.16893481,10.3128463 C5.24326336,10.2387714 5.33901394,10.1899599 5.44262435,10.1733255 L9.68458063,9.49228815 L11.5222287,5.55295917 C11.6389685,5.30270644 11.9364747,5.19447281 12.1867275,5.31121261 C12.2932118,5.36088622 12.3788004,5.44647487 12.428474,5.55295917 L14.2661221,9.49228815 L18.5241454,10.175905 C18.7967963,10.2196785 18.982338,10.4761912 18.9385645,10.748842 C18.9223007,10.8501438 18.8752668,10.9439901 18.8038446,11.0176477 L15.7238853,14.1940019 L16.3731808,18.5220724 C16.4141491,18.7951588 16.2259802,19.0497505 15.9528937,19.0907188 C15.8443319,19.1070052 15.7334275,19.0871113 15.637295,19.034107 L12.2132099,17.1461777 C12.0648747,17.0643905 11.8852174,17.0632663 11.7358702,17.1431909 Z" id="star" fill="#202022"></path>
        </g>
    </g>
</svg>