<?xml version="1.0" encoding="UTF-8"?>
<svg width="24px" height="24px" viewBox="0 0 24 24" version="1.1" xmlns="http://www.w3.org/2000/svg" xmlns:xlink="http://www.w3.org/1999/xlink">
    <!-- Generator: Sketch 48.2 (47327) - http://www.bohemiancoding.com/sketch -->
    <title>@Meta Data/Star - Filled</title>
    <desc>Created with Sketch.</desc>
    <defs></defs>
    <g id="Symbols" stroke="none" stroke-width="1" fill="none" fill-rule="evenodd">
        <g id="@Meta-Data/Star---Filled">
            <rect id="Bounding-Box" x="0" y="0" width="24" height="24"></rect>
            <path d="M12.9051293,3.4270494 L15.1,8.1 L20.0498455,8.81736892 C20.59642,8.89658261 20.9752907,9.40388413 20.896077,9.95045859 C20.8656283,10.1605547 20.7691082,10.3555096 20.6204893,10.5071009 L17,14.2 L17.8668755,19.4734927 C17.9564597,20.0184635 17.587296,20.5328719 17.0423253,20.6224561 C16.8217153,20.6587208 16.5953158,20.6200119 16.3992861,20.5125117 L12,18.1 L7.60071391,20.5125117 C7.11646379,20.7780682 6.50862541,20.600782 6.24306889,20.1165319 C6.13556875,19.9205023 6.09685982,19.6941027 6.13312449,19.4734927 L7,14.2 L3.37951071,10.5071009 C2.99287195,10.1127294 2.9991406,9.47959544 3.39351214,9.09295668 C3.54510345,8.94433774 3.74005833,8.84781763 3.95015448,8.81736892 L8.9,8.1 L11.0948707,3.4270494 C11.3296671,2.92716031 11.9252474,2.71226022 12.4251365,2.94705661 C12.6362053,3.04619499 12.8059909,3.21598057 12.9051293,3.4270494 Z" id="star-fill" fill="#202022"></path>
        </g>
    </g>
</svg>