<?xml version="1.0" standalone="no"?>
<!DOCTYPE svg PUBLIC "-//W3C//DTD SVG 20010904//EN"
 "http://www.w3.org/TR/2001/REC-SVG-20010904/DTD/svg10.dtd">
<svg version="1.0" xmlns="http://www.w3.org/2000/svg"
 width="192.000000pt" height="192.000000pt" viewBox="0 0 192.000000 192.000000"
 preserveAspectRatio="xMidYMid meet">
<metadata>
Created by potrace 1.11, written by Peter Selinger 2001-2013
</metadata>
<g transform="translate(0.000000,192.000000) scale(0.100000,-0.100000)"
fill="#000000" stroke="none">
<path d="M1305 1682 c-55 -53 -228 -221 -385 -372 -157 -151 -333 -322 -392
-379 -60 -58 -108 -102 -108 -100 0 3 63 126 140 274 77 148 140 270 140 272
0 1 -36 3 -80 3 l-81 0 -267 -247 -268 -248 74 -3 73 -3 142 123 c77 67 138
114 133 103 -4 -11 -70 -138 -147 -283 -76 -145 -139 -267 -139 -273 0 -5 34
-9 76 -9 l75 0 162 158 c500 486 701 679 692 662 -5 -8 -180 -278 -390 -600
-210 -322 -385 -591 -389 -597 -5 -10 12 -13 74 -13 l81 0 377 367 c207 202
424 413 482 470 57 56 106 100 108 98 2 -2 -43 -93 -101 -202 -57 -109 -121
-231 -141 -270 l-36 -73 82 0 83 1 220 205 c121 112 242 227 270 254 l50 50
-75 0 -75 0 -135 -119 c-74 -65 -137 -117 -139 -115 -2 2 60 124 138 273 77
148 141 272 141 275 0 3 -35 6 -77 6 l-78 0 -420 -404 c-231 -222 -421 -403
-423 -401 -2 1 107 171 242 376 204 312 451 690 529 811 l19 28 -79 0 -78 0
-100 -98z"/>
</g>
</svg>
