<?xml version="1.0" encoding="UTF-8"?>
<svg width="24px" height="24px" viewBox="0 0 24 24" version="1.1" xmlns="http://www.w3.org/2000/svg" xmlns:xlink="http://www.w3.org/1999/xlink">
    <!-- Generator: Sketch 48.2 (47327) - http://www.bohemiancoding.com/sketch -->
    <title>@Campaign Type/App</title>
    <desc>Created with Sketch.</desc>
    <defs></defs>
    <g id="Symbols" stroke="none" stroke-width="1" fill="none" fill-rule="evenodd">
        <g id="@Campaign-Type/App">
            <rect id="Bounding-Box" x="0" y="0" width="24" height="24"></rect>
            <path d="M17,7 L3,7 C2.45,7 2,7.45 2,8 L2,21 C2,21.55 2.45,22 3,22 L17,22 C17.55,22 18,21.55 18,21 L18,8 C18,7.45 17.55,7 17,7 Z M16,20 L4,20 L4,10 L16,10 L16,20 Z M5.5,12 L12.5,12 C12.78,12 13,11.78 13,11.5 C13,11.22 12.78,11 12.5,11 L5.5,11 C5.22,11 5,11.22 5,11.5 C5,11.78 5.22,12 5.5,12 Z M5.5,14 L8.5,14 C8.78,14 9,13.78 9,13.5 C9,13.22 8.78,13 8.5,13 L5.5,13 C5.22,13 5,13.22 5,13.5 C5,13.78 5.22,14 5.5,14 Z M5.5,16 L10.5,16 C10.78,16 11,15.78 11,15.5 C11,15.22 10.78,15 10.5,15 L5.5,15 C5.22,15 5,15.22 5,15.5 C5,15.78 5.22,16 5.5,16 Z M21,2 L7,2 C6.45,2 6,2.45 6,3 L6,6 L8,6 L8,5 L20,5 L20,15 L19,15 L19,17 L21,17 C21.55,17 22,16.55 22,16 L22,3 C22,2.45 21.55,2 21,2 Z" id="app" fill="#202022" fill-rule="nonzero"></path>
        </g>
    </g>
</svg>