<?xml version="1.0" encoding="UTF-8"?>
<svg width="24px" height="24px" viewBox="0 0 24 24" version="1.1" xmlns="http://www.w3.org/2000/svg" xmlns:xlink="http://www.w3.org/1999/xlink">
    <!-- Generator: Sketch 48.2 (47327) - http://www.bohemiancoding.com/sketch -->
    <title>@Campaign Type/Calendar-Subscription</title>
    <desc>Created with Sketch.</desc>
    <defs></defs>
    <g id="Symbols" stroke="none" stroke-width="1" fill="none" fill-rule="evenodd">
        <g id="@Campaign-Type/Calendar-Subscription">
            <rect id="Bounding-Box" x="0" y="0" width="24" height="24"></rect>
            <path d="M6,10 L8,10 C8.55228475,10 9,10.4477153 9,11 L9,13 C9,13.5522847 8.55228475,14 8,14 L6,14 C5.44771525,14 5,13.5522847 5,13 L5,11 C5,10.4477153 5.44771525,10 6,10 Z M11,10 L13,10 C13.5522847,10 14,10.4477153 14,11 L14,13 C14,13.5522847 13.5522847,14 13,14 L11,14 C10.4477153,14 10,13.5522847 10,13 L10,11 C10,10.4477153 10.4477153,10 11,10 Z M6,15 L8,15 C8.55228475,15 9,15.4477153 9,16 L9,18 C9,18.5522847 8.55228475,19 8,19 L6,19 C5.44771525,19 5,18.5522847 5,18 L5,16 C5,15.4477153 5.44771525,15 6,15 Z M11,15 L13,15 C13.5522847,15 14,15.4477153 14,16 L14,18 C14,18.5522847 13.5522847,19 13,19 L11,19 C10.4477153,19 10,18.5522847 10,18 L10,16 C10,15.4477153 10.4477153,15 11,15 Z M16,10 L18,10 C18.5522847,10 19,10.4477153 19,11 L19,13 C19,13.5522847 18.5522847,14 18,14 L16,14 C15.4477153,14 15,13.5522847 15,13 L15,11 C15,10.4477153 15.4477153,10 16,10 Z M16,15 L18,15 C18.5522847,15 19,15.4477153 19,16 L19,18 C19,18.5522847 18.5522847,19 18,19 L16,19 C15.4477153,19 15,18.5522847 15,18 L15,16 C15,15.4477153 15.4477153,15 16,15 Z M22,4 L19,4 L19,2 L15,2 L15,4 L13,4 L10,4 L9,4 L9,2 L5,2 L5,4 L2,4 C1.448,4 1,4.448 1,5 L1,22 C1,22.552 1.448,23 2,23 L22,23 C22.552,23 23,22.552 23,22 L23,5 C23,4.448 22.552,4 22,4 Z M21,21 L3,21 L3,8 L21,8 L21,21 Z" id="cal-subscription" fill="#202022"></path>
        </g>
    </g>
</svg>