<?xml version="1.0" encoding="UTF-8"?>
<svg width="24px" height="24px" viewBox="0 0 24 24" version="1.1" xmlns="http://www.w3.org/2000/svg" xmlns:xlink="http://www.w3.org/1999/xlink">
    <!-- Generator: Sketch 48.2 (47327) - http://www.bohemiancoding.com/sketch -->
    <title>@Campaign Type/Email</title>
    <desc>Created with Sketch.</desc>
    <defs></defs>
    <g id="Symbols" stroke="none" stroke-width="1" fill="none" fill-rule="evenodd">
        <g id="@Campaign-Type/Email">
            <rect id="Bounding-Box" x="0" y="0" width="24" height="24"></rect>
            <path d="M21.1666667,4 L2.83333333,4 C2.33333333,4 2,4.32 2,4.8 L2,19.2 C2,19.68 2.33333333,20 2.83333333,20 L21.1666667,20 C21.6666667,20 22,19.68 22,19.2 L22,4.8 C22,4.32 21.6666667,4 21.1666667,4 Z M18.7937298,8.394313 L12.5399886,13.8663366 C12.383645,13.9445083 12.1491297,14.0226801 11.9927862,14.0226801 C11.8364427,14.0226801 11.6019274,13.9445083 11.4455839,13.8663366 L5.19184262,8.394313 C4.87915556,8.08162594 4.8009838,7.61259535 5.11367086,7.29990829 C5.42635792,6.98722123 5.89538851,6.90904946 6.20807557,7.22173652 L11.9146144,12.2247295 L17.6211533,7.22173652 C17.9338404,6.90904946 18.402871,6.98722123 18.715558,7.29990829 C19.1064169,7.61259535 19.1064169,8.08162594 18.7937298,8.394313 Z" id="email" fill="#202022"></path>
        </g>
    </g>
</svg>