<?xml version="1.0" encoding="UTF-8"?>
<svg width="24px" height="24px" viewBox="0 0 24 24" version="1.1" xmlns="http://www.w3.org/2000/svg" xmlns:xlink="http://www.w3.org/1999/xlink">
    <!-- Generator: Sketch 48.2 (47327) - http://www.bohemiancoding.com/sketch -->
    <title>@Campaign Type/Market-Research</title>
    <desc>Created with Sketch.</desc>
    <defs></defs>
    <g id="Symbols" stroke="none" stroke-width="1" fill="none" fill-rule="evenodd">
        <g id="@Campaign-Type/Market-Research">
            <rect id="Bounding-Box" x="0" y="0" width="24" height="24"></rect>
            <path d="M13.4785109,9.5214891 L10,13 L8.58578644,11.5857864 L11.9307204,8.24085249 C11.3470371,7.48188381 11,6.53146933 11,5.5 C11,3.01471863 13.0147186,1 15.5,1 C17.9852814,1 20,3.01471863 20,5.5 C20,7.98528137 17.9852814,10 15.5,10 C14.7730248,10 14.0863125,9.82761381 13.4785109,9.5214891 Z M15.5,8 C16.8807119,8 18,6.88071187 18,5.5 C18,4.11928813 16.8807119,3 15.5,3 C14.1192881,3 13,4.11928813 13,5.5 C13,6.88071187 14.1192881,8 15.5,8 Z M21.4,9.4 C21.8,10.6 22,11.8 22,13 C22,19.1 17.1,24 11,24 C4.9,24 0,19.1 0,13 C0,7.4 4.2,2.8 9.6,2.1 C9.3,2.7 9.1,3.4 9,4.2 C7.8,4.5 6.7,5 5.7,5.7 C5.8,5.9 5.9,6 6,6.1 C6.3,6.6 7.7,9.2 6.5,11 C5.9,11.8 5,12.2 4.2,12.6 C3.6,12.9 3.4,13.8 3.9,14.3 C4.2,14.6 4.5,14.9 4.7,15.3 C5.6,16.6 5.6,18.1 4.9,19.6 C6.2,20.9 8,21.8 10,22 C9.8,20.8 9.9,19.5 10.3,18.5 C10.8,17.4 11.6,16.5 12.7,16.1 C13.8,15.7 14.7,16.3 15.3,16.8 C16.2,17.5 17.1,18.1 19.1,17 C19.7,15.8 20,14.4 20,13 C20,12.3 19.9,11.6 19.7,10.9 C20.4,10.5 20.9,10 21.4,9.4 Z" id="market-research" fill="#202022" fill-rule="nonzero"></path>
        </g>
    </g>
</svg>