<?xml version="1.0" encoding="UTF-8"?>
<svg width="24px" height="24px" viewBox="0 0 24 24" version="1.1" xmlns="http://www.w3.org/2000/svg" xmlns:xlink="http://www.w3.org/1999/xlink">
    <!-- Generator: Sketch 48.2 (47327) - http://www.bohemiancoding.com/sketch -->
    <title>@Campaign Type/Phone</title>
    <desc>Created with Sketch.</desc>
    <defs></defs>
    <g id="Symbols" stroke="none" stroke-width="1" fill="none" fill-rule="evenodd">
        <g id="@Campaign-Type/Phone">
            <rect id="Bounding-Box" x="0" y="0" width="24" height="24"></rect>
            <path d="M6.74908891,9.99596295 C8.34908891,13.1404074 10.9268667,15.7070741 14.0713111,17.3181852 L15.7888889,15.5333333 C16.0888889,15.2333333 16.5333333,15.1333333 16.9222222,15.2666667 C18.1666667,15.6777778 19.5111111,15.9 20.8888889,15.9 C21.5,15.9 22,16.4 22,17.0111111 L22,20.8888889 C22,21.5 21.5,22 20.8888889,22 C10.4555556,22 2,13.5444444 2,3.11111111 C2,2.5 2.5,2 3.11111111,2 L7,2 C7.61111111,2 8.11111111,2.5 8.11111111,3.11111111 C8.11111111,4.5 8.33333333,5.83333333 8.74444444,7.07777778 C8.86666667,7.46666667 8.77777778,7.9 8.46666667,8.21111111 L6.74908891,9.99596295 Z" id="phone" fill="#202022"></path>
        </g>
    </g>
</svg>