<?xml version="1.0" encoding="UTF-8"?>
<svg width="24px" height="24px" viewBox="0 0 24 24" version="1.1" xmlns="http://www.w3.org/2000/svg" xmlns:xlink="http://www.w3.org/1999/xlink">
    <!-- Generator: Sketch 48.2 (47327) - http://www.bohemiancoding.com/sketch -->
    <title>@Campaign Type/Reports</title>
    <desc>Created with Sketch.</desc>
    <defs></defs>
    <g id="Symbols" stroke="none" stroke-width="1" fill="none" fill-rule="evenodd">
        <g id="@Campaign-Type/Reports">
            <rect id="Bounding-Box" x="0" y="0" width="24" height="24"></rect>
            <path d="M11,10.9000963 C12.1,10.9000963 13,9.99192235 13,8.88193198 C13,7.77194161 12.1,6.86376767 11,6.86376767 C9.9,6.86376767 9,7.77194161 9,8.88193198 C9,9.99192235 9.9,10.9000963 11,10.9000963 Z M16,12.9182606 C17.1,12.9182606 18,12.0100867 18,10.9000963 C18,9.79010592 17.1,8.88193198 16,8.88193198 C14.9,8.88193198 14,9.79010592 14,10.9000963 C14,12.0100867 14.9,12.9182606 16,12.9182606 Z M20,7.87284982 C21.1,7.87284982 22,6.96467588 22,5.85468551 C22,4.74469514 21.1,3.8365212 20,3.8365212 C18.9,3.8365212 18,4.74469514 18,5.85468551 C18,6.96467588 18.9,7.87284982 20,7.87284982 Z M22.8,19.9830568 L2.02212915,19.9830568 L2.02212915,4.0257241 C2.02212915,3.36666732 1.65759032,3 0.997590321,3 C0.337590321,3 0,3.36666732 0,4.0257241 L0,20.8017149 C0,21.4607717 0.54,22 1.2,22 L22.8,22 C23.46,22 24,21.6539175 24,20.9948608 C24,20.335804 23.46,19.9830568 22.8,19.9830568 Z M7,16.9545892 C8.1,16.9545892 9,16.0464153 9,14.9364249 C9,13.8264345 8.1,12.9182606 7,12.9182606 C5.9,12.9182606 5,13.8264345 5,14.9364249 C5,16.0464153 5.9,16.9545892 7,16.9545892 Z" id="reports" fill="#202022"></path>
        </g>
    </g>
</svg>