<?xml version="1.0" encoding="UTF-8"?>
<svg width="24px" height="24px" viewBox="0 0 24 24" version="1.1" xmlns="http://www.w3.org/2000/svg" xmlns:xlink="http://www.w3.org/1999/xlink">
    <!-- Generator: Sketch 48.2 (47327) - http://www.bohemiancoding.com/sketch -->
    <title>@Campaign Type/Sweepstakes</title>
    <desc>Created with Sketch.</desc>
    <defs></defs>
    <g id="Symbols" stroke="none" stroke-width="1" fill="none" fill-rule="evenodd">
        <g id="@Campaign-Type/Sweepstakes">
            <rect id="Bounding-Box" x="0" y="0" width="24" height="24"></rect>
            <path d="M9.95136,0 L1.34736,0 C0.60336,0 0,0.60312 0,1.34736 L0,9.95136 C0,10.69536 0.60336,11.29872 1.34736,11.29872 L9.95136,11.29872 C10.6956,11.29872 11.29848,10.69536 11.29848,9.95136 L11.29848,1.34736 C11.29848,0.60312 10.69536,0 9.95136,0 Z M2.68896,1.58112 C3.30072,1.58112 3.79656,2.07696 3.79656,2.68872 C3.79656,3.30048 3.30072,3.79632 2.68896,3.79632 C2.0772,3.79632 1.58136,3.30048 1.58136,2.68872 C1.58136,2.07696 2.0772,1.58112 2.68896,1.58112 Z M2.68896,9.71712 C2.0772,9.71712 1.58136,9.22128 1.58136,8.60952 C1.58136,7.99776 2.0772,7.50192 2.68896,7.50192 C3.30072,7.50192 3.79656,7.99776 3.79656,8.60952 C3.79656,9.22128 3.30072,9.71712 2.68896,9.71712 Z M5.64936,6.75696 C5.0376,6.75696 4.54176,6.26112 4.54176,5.64936 C4.54176,5.0376 5.0376,4.54176 5.64936,4.54176 C6.26112,4.54176 6.75696,5.0376 6.75696,5.64936 C6.75696,6.26112 6.26112,6.75696 5.64936,6.75696 Z M8.60976,9.71712 C7.99776,9.71712 7.50216,9.22128 7.50216,8.60952 C7.50216,7.99776 7.99776,7.50192 8.60976,7.50192 C9.22152,7.50192 9.71712,7.99776 9.71712,8.60952 C9.71712,9.22128 9.22152,9.71712 8.60976,9.71712 Z M8.60976,3.79656 C7.99776,3.79656 7.50216,3.30072 7.50216,2.68896 C7.50216,2.0772 7.99776,1.58136 8.60976,1.58136 C9.22152,1.58136 9.71712,2.0772 9.71712,2.68896 C9.71712,3.30072 9.22152,3.79656 8.60976,3.79656 Z M23.60544,15.61608 L17.52144,9.53232 C16.99536,9.006 16.14216,9.006 15.61608,9.53232 L9.53208,15.61632 C9.006,16.1424 9.006,16.9956 9.53208,17.52168 L15.61608,23.60568 C16.14216,24.13152 16.99536,24.13152 17.52144,23.60568 L23.60544,17.52168 C24.13152,16.99536 24.13152,16.14216 23.60544,15.61608 Z M17.35224,11.59896 C17.78472,12.03144 17.78472,12.73272 17.35224,13.16544 C16.91952,13.59792 16.21824,13.59792 15.78576,13.16544 C15.35304,12.73272 15.35304,12.03144 15.78576,11.59896 C16.21848,11.16648 16.91952,11.16648 17.35224,11.59896 Z M11.5992,17.352 C11.16648,16.91928 11.16648,16.218 11.5992,15.78552 C12.03168,15.35304 12.73296,15.35304 13.16544,15.78552 C13.59792,16.21824 13.59792,16.91952 13.16544,17.352 C12.73296,17.78448 12.03168,17.78448 11.5992,17.352 Z M15.78552,17.35176 C15.3528,16.91928 15.3528,16.218 15.78552,15.78552 C16.21824,15.35304 16.91952,15.35304 17.352,15.78552 C17.78448,16.21824 17.78448,16.91952 17.352,17.35176 C16.91952,17.78448 16.21824,17.78448 15.78552,17.35176 Z M15.78552,21.53856 C15.3528,21.10608 15.3528,20.40456 15.78552,19.97232 C16.21824,19.5396 16.91952,19.5396 17.352,19.97232 C17.78448,20.4048 17.78448,21.10632 17.352,21.53856 C16.91952,21.97104 16.21824,21.97104 15.78552,21.53856 Z M19.97232,17.35176 C19.5396,16.91928 19.5396,16.218 19.97232,15.78552 C20.4048,15.35304 21.10632,15.35304 21.53856,15.78552 C21.97128,16.21824 21.97128,16.91952 21.53856,17.35176 C21.10608,17.78448 20.4048,17.78448 19.97232,17.35176 Z" id="sweepstakes" fill="#202022"></path>
        </g>
    </g>
</svg>