<svg xmlns="http://www.w3.org/2000/svg"><symbol id="pl-icon--code" viewBox="0 0 20 16"><title>icon-code</title><g data-name="Layer 2"><path d="M6 4a1 1 0 0 0-1.71-.71l-4 4a1 1 0 0 0 0 1.42l4 4a1 1 0 0 0 1.42-1.42L2.41 8 5.7 4.71A1 1 0 0 0 6 4zm6-4a1 1 0 0 0-.95.73l-4 14A1.17 1.17 0 0 0 7 15a1 1 0 0 0 1 1 1 1 0 0 0 .95-.73l4-14A1.17 1.17 0 0 0 13 1a1 1 0 0 0-1-1zm7.71 7.29l-4-4a1 1 0 0 0-1.42 1.42L17.59 8l-3.29 3.29a1 1 0 0 0-.3.71 1 1 0 0 0 1.71.71l4-4a1 1 0 0 0 0-1.42z" data-name="Layer 1"/></g></symbol><symbol id="pl-icon--minus" viewBox="0 0 10 2.4"><title>icon-minus</title><g data-name="Layer 2"><path d="M8.75 0h-7.5A1.23 1.23 0 0 0 0 1.2a1.23 1.23 0 0 0 1.25 1.2h7.5A1.23 1.23 0 0 0 10 1.2 1.23 1.23 0 0 0 8.75 0z" data-name="Layer 1"/></g></symbol><symbol id="pl-icon--plus" viewBox="0 0 12 12"><title>icon-plus</title><g data-name="Layer 2"><path d="M10.8 4.8H7.2V1.2a1.2 1.2 0 0 0-2.4 0v3.6H1.2a1.2 1.2 0 0 0 0 2.4h3.6v3.6a1.2 1.2 0 1 0 2.4 0V7.2h3.6a1.2 1.2 0 1 0 0-2.4z" data-name="Layer 1"/></g></symbol></svg>