<?xml version="1.0" encoding="UTF-8"?>
<svg width="24px" height="24px" viewBox="0 0 24 24" version="1.1" xmlns="http://www.w3.org/2000/svg" xmlns:xlink="http://www.w3.org/1999/xlink">
    <!-- Generator: Sketch 48.2 (47327) - http://www.bohemiancoding.com/sketch -->
    <title>@Action/Add</title>
    <desc>Created with Sketch.</desc>
    <defs></defs>
    <g id="Symbols" stroke="none" stroke-width="1" fill="none" fill-rule="evenodd">
        <g id="@Action/Add">
            <rect id="Bounding-Box" x="0" y="0" width="24" height="24"></rect>
            <path d="M17,11 L13,11 L13,7 C13.2,6.54 12.66,6 12,6 C11.34,6 10.8,6.54 11,7 L11,11 L7,11 C6.54,10.8 6,11.34 6,12 C6,12.66 6.54,13.2 7,13 L11,13 L11,17 C10.8,17.46 11.34,18 12,18 C12.66,18 13.2,17.46 13,17 L13,13 L17,13 C17.46,13.2 18,12.66 18,12 C18,11.34 17.46,10.8 17,11 Z" id="add" fill="#202022"></path>
        </g>
    </g>
</svg>