<?xml version="1.0" encoding="UTF-8"?>
<svg width="24px" height="24px" viewBox="0 0 24 24" version="1.1" xmlns="http://www.w3.org/2000/svg" xmlns:xlink="http://www.w3.org/1999/xlink">
    <!-- Generator: Sketch 48.2 (47327) - http://www.bohemiancoding.com/sketch -->
    <title>@Action/Block</title>
    <desc>Created with Sketch.</desc>
    <defs></defs>
    <g id="Symbols" stroke="none" stroke-width="1" fill="none" fill-rule="evenodd">
        <g id="@Action/Block">
            <rect id="Bounding-Box" x="0" y="0" width="24" height="24"></rect>
            <path d="M12,4 C7.56363636,4 4,7.56363636 4,12 C4,16.4363636 7.56363636,20 12,20 C16.4363636,20 20,16.4363636 20,12 C20,7.56363636 16.4363636,4 12,4 Z M6.90909091,12 C6.90909091,9.16363636 9.16363636,6.90909091 12,6.90909091 C12.8727273,6.90909091 13.6727273,7.12727273 14.4,7.49090909 L7.49090909,14.4 C7.12727273,13.6727273 6.90909091,12.8727273 6.90909091,12 Z M12,17.0909091 C11.1272727,17.0909091 10.3272727,16.8727273 9.6,16.5090909 L16.5090909,9.6 C16.8727273,10.3272727 17.0909091,11.1272727 17.0909091,12 C17.0909091,14.8363636 14.8363636,17.0909091 12,17.0909091 Z" id="Block" fill="#202022" fill-rule="nonzero"></path>
        </g>
    </g>
</svg>