<?xml version="1.0" encoding="UTF-8"?>
<svg width="24px" height="24px" viewBox="0 0 24 24" version="1.1" xmlns="http://www.w3.org/2000/svg" xmlns:xlink="http://www.w3.org/1999/xlink">
    <!-- Generator: Sketch 48.2 (47327) - http://www.bohemiancoding.com/sketch -->
    <title>@Action/Change</title>
    <desc>Created with Sketch.</desc>
    <defs></defs>
    <g id="Symbols" stroke="none" stroke-width="1" fill="none" fill-rule="evenodd">
        <g id="@Action/Change">
            <rect id="Bounding-Box" x="0" y="0" width="24" height="24"></rect>
            <path d="M21.71,7.29409161 C21.89,7.47409161 22,7.72409161 22,8.00409161 C22,8.28409161 21.89,8.53409161 21.71,8.71409161 L17.71,12.7140916 C17.4228389,12.9994577 16.9922761,13.0842114 16.618384,12.9289697 C16.2444918,12.7737279 16.0005845,12.4089311 16,12.0040916 C16,11.7240916 16.11,11.4740916 16.3,11.2940916 L18.59,9.00409161 L8,9.00409161 C5.79,9.00409161 4,10.7940916 4,13.0040916 C4,15.2140916 5.79,17.0040916 8,17.0040916 L13,17.0040916 L13,19.0040916 L8,19.0040916 C4.69,19.0040916 2,16.3140916 2,13.0040916 C2,9.69409161 4.69,7.00409161 8,7.00409161 L18.59,7.00409161 L16.29,4.71409161 C15.8978778,4.32196943 15.8978779,3.68621379 16.29,3.29409163 C16.6821222,2.90196947 17.3178778,2.90196946 17.71,3.29409161 L21.71,7.29409161 Z M17,16.0040916 C18.1,16.0040916 19,16.9040916 19,18.0040916 C19,19.1040916 18.1,20.0040916 17,20.0040916 C15.9,20.0040916 15,19.1040916 15,18.0040916 C15,16.9040916 15.9,16.0040916 17,16.0040916 Z" id="Change" fill="#202022" fill-rule="nonzero"></path>
        </g>
    </g>
</svg>