<?xml version="1.0" encoding="UTF-8"?>
<svg width="24px" height="24px" viewBox="0 0 24 24" version="1.1" xmlns="http://www.w3.org/2000/svg" xmlns:xlink="http://www.w3.org/1999/xlink">
    <!-- Generator: Sketch 48.2 (47327) - http://www.bohemiancoding.com/sketch -->
    <title>@Action/Close</title>
    <desc>Created with Sketch.</desc>
    <defs></defs>
    <g id="Symbols" stroke="none" stroke-width="1" fill="none" fill-rule="evenodd">
        <g id="@Action/Close">
            <rect id="Bounding-Box" x="0" y="0" width="24" height="24"></rect>
            <path d="M13.41,12 L16.7,8.71 C16.89,8.53 17,8.28 17,8 C16.9994155,7.59516055 16.7555082,7.2303637 16.381616,7.07512194 C16.0077239,6.91988018 15.5771611,7.00463388 15.29,7.29 L12,10.59 L8.71,7.29 C8.31787782,6.89787785 7.68212219,6.89787787 7.29000003,7.29000003 C6.89787787,7.68212219 6.89787785,8.31787782 7.29,8.71 L10.59,12 L7.3,15.29 C7.11,15.47 7,15.72 7,16 C7.00058453,16.4048395 7.24449184,16.7696363 7.61838396,16.9248781 C7.99227609,17.0801198 8.42283889,16.9953661 8.71,16.71 L12,13.41 L15.29,16.7 C15.47,16.89 15.72,17 16,17 C16.4048395,16.9994155 16.7696363,16.7555082 16.9248781,16.381616 C17.0801198,16.0077239 16.9953661,15.5771611 16.71,15.29 L13.41,12 Z" id="Close" fill="#202022"></path>
        </g>
    </g>
</svg>