<?xml version="1.0" encoding="UTF-8"?>
<svg width="24px" height="24px" viewBox="0 0 24 24" version="1.1" xmlns="http://www.w3.org/2000/svg" xmlns:xlink="http://www.w3.org/1999/xlink">
    <!-- Generator: Sketch 48.2 (47327) - http://www.bohemiancoding.com/sketch -->
    <title>@Action/Compare</title>
    <desc>Created with Sketch.</desc>
    <defs>
        <path d="M18.8,16.856 L18.8,13.544 C19.488,13.368 20,12.744 20,12 C20,11.12 19.28,10.4 18.4,10.4 C17.656,10.4 17.032,10.912 16.856,11.6 L13.544,11.6 C13.4,11.04 12.96,10.6 12.4,10.456 L12.4,7.144 C13.088,6.968 13.6,6.344 13.6,5.6 C13.6,4.72 12.88,4 12,4 C11.12,4 10.4,4.72 10.4,5.6 C10.4,6.344 10.912,6.968 11.6,7.144 L11.6,10.456 C11.04,10.6 10.6,11.04 10.456,11.6 L7.144,11.6 C6.968,10.912 6.344,10.4 5.6,10.4 C4.72,10.4 4,11.12 4,12 C4,12.744 4.512,13.368 5.2,13.544 L5.2,16.856 C4.512,17.032 4,17.656 4,18.4 C4,19.28 4.72,20 5.6,20 C6.48,20 7.2,19.28 7.2,18.4 C7.2,17.656 6.688,17.032 6,16.856 L6,13.544 C6.56,13.4 7,12.96 7.144,12.4 L10.456,12.4 C10.6,12.96 11.04,13.4 11.6,13.544 L11.6,16.856 C10.912,17.032 10.4,17.656 10.4,18.4 C10.4,19.28 11.12,20 12,20 C12.88,20 13.6,19.28 13.6,18.4 C13.6,17.656 13.088,17.032 12.4,16.856 L12.4,13.544 C12.96,13.4 13.4,12.96 13.544,12.4 L16.856,12.4 C17,12.96 17.44,13.4 18,13.544 L18,16.856 C17.312,17.032 16.8,17.656 16.8,18.4 C16.8,19.28 17.52,20 18.4,20 C19.28,20 20,19.28 20,18.4 C20,17.656 19.488,17.032 18.8,16.856 Z" id="path-1"></path>
    </defs>
    <g id="Symbols" stroke="none" stroke-width="1" fill="none" fill-rule="evenodd">
        <g id="@Action/Compare">
            <rect id="Bounding-Box" x="0" y="0" width="24" height="24"></rect>
            <mask id="mask-2" fill="white">
                <use xlink:href="#path-1"></use>
            </mask>
            <use id="Shape" fill="#202022" fill-rule="nonzero" xlink:href="#path-1"></use>
        </g>
    </g>
</svg>