<?xml version="1.0" encoding="UTF-8"?>
<svg width="24px" height="24px" viewBox="0 0 24 24" version="1.1" xmlns="http://www.w3.org/2000/svg" xmlns:xlink="http://www.w3.org/1999/xlink">
    <!-- Generator: Sketch 48.2 (47327) - http://www.bohemiancoding.com/sketch -->
    <title>@Action/Duplicate</title>
    <desc>Created with Sketch.</desc>
    <defs></defs>
    <g id="Symbols" stroke="none" stroke-width="1" fill="none" fill-rule="evenodd">
        <g id="@Action/Duplicate">
            <rect id="Bounding-Box" x="0" y="0" width="24" height="24"></rect>
            <path d="M17,6 C17.55,6 18,6.45 18,7 L18,21 C18,21.55 17.55,22 17,22 L3,22 C2.45,22 2,21.55 2,21 L2,7 C2,6.45 2.45,6 3,6 L17,6 Z M16,20 L16,8 L4,8 L4,20 L16,20 Z M21,2 C21.55,2 22,2.45 22,3 L22,17 C22,17.55 21.55,18 21,18 L19,18 L19,16 L20,16 L20,4 L8,4 L8,5 L6,5 L6,3 C6,2.45 6.45,2 7,2 L21,2 Z" id="duplicate" fill="#202022"></path>
        </g>
    </g>
</svg>