<?xml version="1.0" encoding="UTF-8"?>
<svg width="24px" height="24px" viewBox="0 0 24 24" version="1.1" xmlns="http://www.w3.org/2000/svg" xmlns:xlink="http://www.w3.org/1999/xlink">
    <!-- Generator: Sketch 48.2 (47327) - http://www.bohemiancoding.com/sketch -->
    <title>@Action/Export</title>
    <desc>Created with Sketch.</desc>
    <defs></defs>
    <g id="Symbols" stroke="none" stroke-width="1" fill="none" fill-rule="evenodd">
        <g id="@Action/Export">
            <rect id="Bounding-Box" x="0" y="0" width="24" height="24"></rect>
            <path d="M19.2,15 C19.64,15 20,15.375 20,15.8333333 L20,19.1666667 C20,19.625 19.64,20 19.2,20 L4.8,20 C4.36,20 4,19.625 4,19.1666667 L4,15.8333333 C4,15.375 4.36,15 4.8,15 C5.24,15 5.6,15.375 5.6,15.8333333 L5.6,18.3333333 L18.4,18.3333333 L18.4,15.8333333 C18.4,15.375 18.76,15 19.2,15 Z M7.80126435,9.6 C7.47739279,9.59953238 7.18555531,9.40440653 7.0613619,9.10529283 C6.9371685,8.80617913 7.00497146,8.46172889 7.23326435,8.232 L11.2332643,4.232 C11.3772643,4.088 11.5772643,4 11.8012643,4 C12.0252643,4 12.2252643,4.088 12.3692643,4.232 L16.3692643,8.232 C16.5975572,8.46172889 16.6653602,8.80617913 16.5411668,9.10529283 C16.4169734,9.40440653 16.1251359,9.59953238 15.8012643,9.6 C15.5772643,9.6 15.3772643,9.512 15.2332643,9.36 L12.6012643,6.728 L12.6012643,16 C12.6012643,16.44 12.2412643,16.8 11.8012643,16.8 C11.3612643,16.8 11.0012643,16.44 11.0012643,16 L11.0012643,6.728 L8.36926435,9.368 C8.22526435,9.512 8.02526435,9.6 7.80126435,9.6 Z" id="export" fill="#202022"></path>
        </g>
    </g>
</svg>