<?xml version="1.0" encoding="UTF-8"?>
<svg width="24px" height="24px" viewBox="0 0 24 24" version="1.1" xmlns="http://www.w3.org/2000/svg" xmlns:xlink="http://www.w3.org/1999/xlink">
    <!-- Generator: Sketch 48.2 (47327) - http://www.bohemiancoding.com/sketch -->
    <title>@Action/Import</title>
    <desc>Created with Sketch.</desc>
    <defs></defs>
    <g id="Symbols" stroke="none" stroke-width="1" fill="none" fill-rule="evenodd">
        <g id="@Action/Import">
            <rect id="Bounding-Box" x="0" y="0" width="24" height="24"></rect>
            <path d="M19.2,15 C19.64,15 20,15.375 20,15.8333333 L20,19.1666667 C20,19.625 19.64,20 19.2,20 L4.8,20 C4.36,20 4,19.625 4,19.1666667 L4,15.8333333 C4,15.375 4.36,15 4.8,15 C5.24,15 5.6,15.375 5.6,15.8333333 L5.6,18.3333333 L18.4,18.3333333 L18.4,15.8333333 C18.4,15.375 18.76,15 19.2,15 Z M16.2490125,10.7482225 C16.5525621,10.7486608 16.8260877,10.9315431 16.9424884,11.2118883 C17.058889,11.4922336 16.9953405,11.8150706 16.7813723,12.0303847 L13.0323598,15.7793972 C12.8973953,15.9143617 12.7099447,15.99684 12.5,15.99684 C12.2900553,15.99684 12.1026047,15.9143617 11.9676402,15.7793972 L8.21862774,12.0303847 C8.00465951,11.8150706 7.94111098,11.4922336 8.05751164,11.2118883 C8.17391229,10.9315431 8.44743788,10.7486608 8.75098751,10.7482225 C8.96093221,10.7482225 9.14838284,10.8307008 9.28334729,10.9731632 L11.7501975,13.4400134 L11.7501975,4.7498025 C11.7501975,4.33741112 12.0876086,4 12.5,4 C12.9123914,4 13.2498025,4.33741112 13.2498025,4.7498025 L13.2498025,13.4400134 L15.7166527,10.9656652 C15.8516172,10.8307008 16.0390678,10.7482225 16.2490125,10.7482225 Z" id="import" fill="#202022"></path>
        </g>
    </g>
</svg>