<?xml version="1.0" encoding="UTF-8"?>
<svg width="24px" height="24px" viewBox="0 0 24 24" version="1.1" xmlns="http://www.w3.org/2000/svg" xmlns:xlink="http://www.w3.org/1999/xlink">
    <!-- Generator: Sketch 48.2 (47327) - http://www.bohemiancoding.com/sketch -->
    <title>@Action/Merge</title>
    <desc>Created with Sketch.</desc>
    <defs></defs>
    <g id="Symbols" stroke="none" stroke-width="1" fill="none" fill-rule="evenodd">
        <g id="@Action/Merge">
            <rect id="Bounding-Box" x="0" y="0" width="24" height="24"></rect>
            <path d="M8.71,8.29 C8.31787782,7.89787785 7.68212219,7.89787786 7.29000002,8.29000002 C6.89787786,8.68212219 6.89787785,9.31787782 7.29,9.71 L8.59,11 L4,11 L4,4 L9,4 L9,6.18 C9.42,6.33 9.8,6.57 10.11,6.88 L10.12,6.87 L11,7.76 L11,3 C11,2.45 10.55,2 10,2 L3,2 C2.45,2 2,2.45 2,3 L2,21 C2,21.55 2.45,22 3,22 L10,22 C10.55,22 11,21.55 11,21 L11,16.24 L10.12,17.12 L10.11,17.11 C9.8,17.42 9.42,17.67 9,17.82 L9,20 L4,20 L4,13 L8.59,13 L7.3,14.29 C7.11,14.47 7,14.72 7,15 C7.00058453,15.4048395 7.24449184,15.7696363 7.61838396,15.9248781 C7.99227609,16.0801198 8.42283889,15.9953661 8.71,15.71 L11.71,12.71 C11.89,12.53 12,12.28 12,12 C12,11.72 11.89,11.47 11.71,11.29 L8.71,8.29 Z M21,2 L14,2 C13.45,2 13,2.45 13,3 L13,7.76 L13.88,6.88 L13.89,6.89 C14.2,6.58 14.58,6.34 15,6.19 L15,4 L20,4 L20,11 L15.41,11 L16.7,9.71 C16.89,9.53 17,9.28 17,9 C16.9994155,8.59516055 16.7555082,8.2303637 16.381616,8.07512194 C16.0077239,7.91988018 15.5771611,8.00463388 15.29,8.29 L12.29,11.29 C12.11,11.47 12,11.72 12,12 C12,12.28 12.11,12.53 12.29,12.71 L15.29,15.71 C15.6821222,16.1021222 16.3178778,16.1021222 16.71,15.71 C17.1021222,15.3178778 17.1021222,14.6821222 16.71,14.29 L15.41,13 L20,13 L20,20 L15,20 L15,17.82 C14.58,17.67 14.2,17.43 13.89,17.12 L13.88,17.13 L13,16.24 L13,21 C13,21.55 13.45,22 14,22 L21,22 C21.55,22 22,21.55 22,21 L22,3 C22,2.45 21.55,2 21,2 Z" id="merge" fill="#202022" fill-rule="nonzero"></path>
        </g>
    </g>
</svg>