<?xml version="1.0" encoding="UTF-8"?>
<svg width="24px" height="24px" viewBox="0 0 24 24" version="1.1" xmlns="http://www.w3.org/2000/svg" xmlns:xlink="http://www.w3.org/1999/xlink">
    <!-- Generator: Sketch 48.2 (47327) - http://www.bohemiancoding.com/sketch -->
    <title>@Action/Modified</title>
    <desc>Created with Sketch.</desc>
    <defs></defs>
    <g id="Symbols" stroke="none" stroke-width="1" fill="none" fill-rule="evenodd">
        <g id="@Action/Modified">
            <rect id="Bounding-Box" x="0" y="0" width="24" height="24"></rect>
            <path d="M18.6266667,15.336 L18.6344444,15.32 L13.47,12 L18.6344444,8.68 L18.6266667,8.664 C18.8561968,8.5258211 18.9980387,8.27354512 19,8 C19,7.56 18.65,7.2 18.2222222,7.2 C18.0666667,7.2 17.9344444,7.256 17.8177778,7.336 L17.81,7.32 L12.7777778,10.56 L12.7777778,4.8 C12.7777778,4.36 12.4277778,4 12,4 C11.5722222,4 11.2222222,4.36 11.2222222,4.8 L11.2222222,10.56 L6.19,7.32 L6.18222222,7.336 C6.06388942,7.24962322 5.92286492,7.20220179 5.77777778,7.2 C5.35,7.2 5,7.56 5,8 C5,8.288 5.15555556,8.528 5.37333333,8.664 L5.36555556,8.68 L10.53,12 L5.36555556,15.32 L5.37333333,15.336 C5.14380324,15.4741789 5.00196132,15.7264549 5,16 C5,16.44 5.35,16.8 5.77777778,16.8 C5.93333333,16.8 6.06555556,16.744 6.18222222,16.664 L6.19,16.68 L11.2222222,13.44 L11.2222222,19.2 C11.2222222,19.64 11.5722222,20 12,20 C12.4277778,20 12.7777778,19.64 12.7777778,19.2 L12.7777778,13.44 L17.81,16.672 L17.8177778,16.656 C17.9344444,16.744 18.0666667,16.8 18.2222222,16.8 C18.65,16.8 19,16.44 19,16 C19,15.712 18.8444444,15.472 18.6266667,15.336 Z" id="modify" fill="#202022" fill-rule="nonzero"></path>
        </g>
    </g>
</svg>