<?xml version="1.0" encoding="UTF-8"?>
<svg width="24px" height="24px" viewBox="0 0 24 24" version="1.1" xmlns="http://www.w3.org/2000/svg" xmlns:xlink="http://www.w3.org/1999/xlink">
    <!-- Generator: Sketch 48.2 (47327) - http://www.bohemiancoding.com/sketch -->
    <title>@Action/new audience</title>
    <desc>Created with Sketch.</desc>
    <defs></defs>
    <g id="Symbols" stroke="none" stroke-width="1" fill="none" fill-rule="evenodd">
        <g id="@Action/new-audience">
            <rect id="Bounding-Box" x="0" y="0" width="24" height="24"></rect>
            <path d="M21,5 C21.55,5 22,5.45 22,6 C22,6.55 21.55,7 21,7 L19,7 L19,9 C19,9.55 18.55,10 18,10 C17.45,10 17,9.55 17,9 L17,7 L15,7 C14.45,7 14,6.55 14,6 C14,5.45 14.45,5 15,5 L17,5 L17,3 C17,2.45 17.45,2 18,2 C18.55,2 19,2.45 19,3 L19,5 L21,5 Z M13.5342746,17.92 C15.0108632,18.58 17.2358598,19.27 17.6909727,20.33 C18.1460856,21.38 17.9640405,22 17.9640405,22 L2.03508783,22 C2.03508783,22 1.85304265,21.38 2.31826921,20.31 C2.77338214,19.26 4.9983787,18.56 6.47496732,17.91 C7.95155595,17.26 7.79985164,16.86 7.85041974,16.32 C7.85041974,16.25 7.86053336,16.18 7.86053336,16.11 C7.33462508,15.66 6.90985301,15.03 6.63678525,14.31 L6.62667163,14.3 C6.62667163,14.29 6.61655801,14.28 6.61655801,14.27 C6.55587629,14.12 6.50530818,13.96 6.4648537,13.79 C6.1209906,13.73 5.91871818,13.36 5.83780922,13.01 C5.75690025,12.87 5.59508232,12.53 5.6355368,12.14 C5.68610491,11.63 5.88837732,11.4 6.1209906,11.31 L6.1209906,11.23 C6.1209906,10.6 6.18167232,9.69 6.30303577,9.09 C6.33337663,8.92 6.36371749,8.75 6.4142856,8.59 C6.62667163,7.86 7.08178457,7.2 7.69871543,6.73 C8.32575991,6.25 9.21575854,6 10.004621,6 C10.7934834,6 11.683482,6.25 12.3307537,6.72 C12.937571,7.18 13.3926839,7.85 13.6151836,8.58 C13.6657517,8.75 13.7062061,8.91 13.7264334,9.08 C13.8376832,9.68 13.8983649,10.6 13.8983649,11.23 L13.8983649,11.32 C14.1309782,11.41 14.323137,11.64 14.3737051,12.14 C14.404046,12.53 14.2523417,12.87 14.1714327,13.01 C14.1006373,13.35 13.8983649,13.72 13.5646154,13.79 C13.524161,13.95 13.4735929,14.12 13.4129111,14.27 C13.4027975,14.28 13.3926839,14.32 13.3926839,14.32 C13.1196161,15.03 12.7049577,15.65 12.1992766,16.1 C12.1992766,16.18 12.1992766,16.26 12.2093903,16.33 C12.2599584,16.87 12.057686,17.27 13.5342746,17.92 Z" id="audience" fill="#202022"></path>
        </g>
    </g>
</svg>