<?xml version="1.0" encoding="UTF-8"?>
<svg width="24px" height="24px" viewBox="0 0 24 24" version="1.1" xmlns="http://www.w3.org/2000/svg" xmlns:xlink="http://www.w3.org/1999/xlink">
    <!-- Generator: Sketch 48.2 (47327) - http://www.bohemiancoding.com/sketch -->
    <title>@Action/Preview</title>
    <desc>Created with Sketch.</desc>
    <defs></defs>
    <g id="Symbols" stroke="none" stroke-width="1" fill="none" fill-rule="evenodd">
        <g id="@Action/Preview">
            <rect id="Bounding-Box" x="0" y="0" width="24" height="24"></rect>
            <path d="M12.0112395,9.65226256 C10.6924758,9.65226256 9.61348736,10.7038213 9.61348736,11.9890598 C9.61348736,13.2742982 10.6924758,14.325857 12.0112395,14.325857 C13.3300031,14.325857 14.4089916,13.2742982 14.4089916,11.9890598 C14.4089916,10.7038213 13.3300031,9.65226256 12.0112395,9.65226256 Z M23.985014,11.9452448 L23.985014,11.8430099 C23.956396,11.6510372 23.8673864,11.4724407 23.7302529,11.3318356 C22.9659694,10.3971167 22.0518264,9.56463266 21.1226975,8.80517357 C19.129566,7.16941552 16.8367156,5.79654716 14.3340618,5.24155782 C12.8939085,4.93497779 11.4044767,4.92006442 9.95816422,5.19774287 C8.62441461,5.44602758 7.33562285,5.95720197 6.1367468,6.58521622 C4.24851702,7.57835503 2.54011864,8.93661841 1.04152357,10.4701416 C0.77177646,10.7476362 0.502029347,11.0397359 0.247268186,11.3464405 C-0.0824227287,11.75538 -0.0824227287,12.2519495 0.247268186,12.660889 C1.01155167,13.5956078 1.92569466,14.4280919 2.8548236,15.1875509 C4.84795504,16.823309 7.14080549,18.1961774 9.64345926,18.7511667 C11.0970965,19.0724763 12.5657196,19.0724763 14.0343428,18.8095866 C15.3680924,18.5613019 16.6418982,18.0501275 17.8407743,17.4221133 C19.7290041,16.4289745 21.4374024,15.0707111 22.9359975,13.5371879 C23.2057446,13.2596932 23.4904777,12.9675936 23.7452388,12.660889 C23.8801124,12.5148391 23.9550421,12.3395793 24,12.1497146 L24,12.0036647 L23.985014,11.9452448 Z M12.0112395,16.6626542 C9.35872619,16.6626542 7.21573525,14.5741417 7.21573525,11.9890598 C7.21573525,9.40397785 9.35872619,7.31546535 12.0112395,7.31546535 C14.6637527,7.31546535 16.8067437,9.40397785 16.8067437,11.9890598 C16.8067437,14.5741417 14.6487668,16.6626542 12.0112395,16.6626542 Z" id="preview" fill="#202022" fill-rule="nonzero"></path>
        </g>
    </g>
</svg>