<?xml version="1.0" encoding="UTF-8"?>
<svg width="24px" height="24px" viewBox="0 0 24 24" version="1.1" xmlns="http://www.w3.org/2000/svg" xmlns:xlink="http://www.w3.org/1999/xlink">
    <!-- Generator: Sketch 48.2 (47327) - http://www.bohemiancoding.com/sketch -->
    <title>@Action/Rename</title>
    <desc>Created with Sketch.</desc>
    <defs></defs>
    <g id="Symbols" stroke="none" stroke-width="1" fill="none" fill-rule="evenodd">
        <g id="@Action/Rename">
            <rect id="Bounding-Box" x="0" y="0" width="24" height="24"></rect>
            <path d="M21,15 L6.41,15 L8.7,12.71 C8.89,12.53 9,12.28 9,12 C8.99941547,11.5951605 8.75550816,11.2303637 8.38161604,11.0751219 C8.00772391,10.9198802 7.57716111,11.0046339 7.29,11.29 L4,14.59 L4,12 C4,11.45 3.55,11 3,11 C2.45,11 2,11.45 2,12 L2,20 C2,20.55 2.45,21 3,21 C3.55,21 4,20.55 4,20 L4,17.41 L7.29,20.7 C7.47,20.89 7.72,21 8,21 C8.40483945,20.9994155 8.7696363,20.7555082 8.92487806,20.381616 C9.08011982,20.0077239 8.99536612,19.5771611 8.71,19.29 L6.41,17 L21,17 C21.55,17 22,16.55 22,16 C22,15.45 21.55,15 21,15 Z M21,3 C20.45,3 20,3.45 20,4 L20,6.59 L16.71,3.3 C16.5252776,3.1057211 16.2680632,2.99703899 16,3 C15.5951605,3.00058453 15.2303637,3.24449184 15.0751219,3.61838396 C14.9198802,3.99227609 15.0046339,4.42283889 15.29,4.71 L17.59,7 L3,7 C2.45,7 2,7.45 2,8 C2,8.55 2.45,9 3,9 L17.59,9 L15.3,11.29 C15.11,11.47 15,11.72 15,12 C15.0005845,12.4048395 15.2444918,12.7696363 15.618384,12.9248781 C15.9922761,13.0801198 16.4228389,12.9953661 16.71,12.71 L20,9.41 L20,12 C20,12.55 20.45,13 21,13 C21.55,13 22,12.55 22,12 L22,4 C22,3.45 21.55,3 21,3 Z" id="rename" fill="#202022" fill-rule="nonzero"></path>
        </g>
    </g>
</svg>