<?xml version="1.0" encoding="UTF-8"?>
<svg width="24px" height="24px" viewBox="0 0 24 24" version="1.1" xmlns="http://www.w3.org/2000/svg" xmlns:xlink="http://www.w3.org/1999/xlink">
    <!-- Generator: Sketch 48.2 (47327) - http://www.bohemiancoding.com/sketch -->
    <title>@Action/Reorder</title>
    <desc>Created with Sketch.</desc>
    <defs></defs>
    <g id="Symbols" stroke="none" stroke-width="1" fill="none" fill-rule="evenodd">
        <g id="@Action/Reorder">
            <rect id="Bounding-Box" x="0" y="0" width="24" height="24"></rect>
            <path d="M13.5,8 C12.67,8 12,8.67 12,9.5 C12,10.33 12.67,11 13.5,11 C14.33,11 15,10.33 15,9.5 C15,8.67 14.33,8 13.5,8 Z M13.5,13 C12.67,13 12,13.67 12,14.5 C12,15.33 12.67,16 13.5,16 C14.33,16 15,15.33 15,14.5 C15,13.67 14.33,13 13.5,13 Z M13.5,18 C12.67,18 12,18.67 12,19.5 C12,20.33 12.67,21 13.5,21 C14.33,21 15,20.33 15,19.5 C15,18.67 14.33,18 13.5,18 Z M8.5,6 C9.33,6 10,5.33 10,4.5 C10,3.67 9.33,3 8.5,3 C7.67,3 7,3.67 7,4.5 C7,5.33 7.67,6 8.5,6 Z M13.5,3 C12.67,3 12,3.67 12,4.5 C12,5.33 12.67,6 13.5,6 C14.33,6 15,5.33 15,4.5 C15,3.67 14.33,3 13.5,3 Z M8.5,13 C7.67,13 7,13.67 7,14.5 C7,15.33 7.67,16 8.5,16 C9.33,16 10,15.33 10,14.5 C10,13.67 9.33,13 8.5,13 Z M8.5,18 C7.67,18 7,18.67 7,19.5 C7,20.33 7.67,21 8.5,21 C9.33,21 10,20.33 10,19.5 C10,18.67 9.33,18 8.5,18 Z M8.5,8 C7.67,8 7,8.67 7,9.5 C7,10.33 7.67,11 8.5,11 C9.33,11 10,10.33 10,9.5 C10,8.67 9.33,8 8.5,8 Z" id="reorder" fill="#202022" transform="translate(11.000000, 12.000000) scale(-1, 1) translate(-11.000000, -12.000000) "></path>
        </g>
    </g>
</svg>