<?xml version="1.0" encoding="UTF-8"?>
<svg width="24px" height="24px" viewBox="0 0 24 24" version="1.1" xmlns="http://www.w3.org/2000/svg" xmlns:xlink="http://www.w3.org/1999/xlink">
    <!-- Generator: Sketch 48.2 (47327) - http://www.bohemiancoding.com/sketch -->
    <title>@Action/Reset</title>
    <desc>Created with Sketch.</desc>
    <defs></defs>
    <g id="Symbols" stroke="none" stroke-width="1" fill="none" fill-rule="evenodd">
        <g id="@Action/Reset">
            <rect id="Bounding-Box" x="0" y="0" width="24" height="24"></rect>
            <path d="M15.2,8.8 C15.2,9.24 15.56,9.6 16,9.6 L19.2,9.6 C19.64,9.6 20,9.24 20,8.8 L20,5.6 C20,5.16 19.64,4.8 19.2,4.8 C18.76,4.8 18.4,5.16 18.4,5.6 L18.4,7.24 C16.944,5.28 14.632,4 12,4 C7.584,4 4,7.584 4,12 C4,16.416 7.584,20 12,20 C16.416,20 20,16.416 20,12 C20,11.56 19.64,11.2 19.2,11.2 C18.76,11.2 18.4,11.56 18.4,12 C18.4,15.536 15.536,18.4 12,18.4 C8.464,18.4 5.6,15.536 5.6,12 C5.6,8.464 8.464,5.6 12,5.6 C14.024,5.6 15.816,6.536 16.992,8 L16,8 C15.56,8 15.2,8.36 15.2,8.8 Z" id="reset" fill="#202022"></path>
        </g>
    </g>
</svg>