<?xml version="1.0" encoding="UTF-8"?>
<svg width="24px" height="24px" viewBox="0 0 24 24" version="1.1" xmlns="http://www.w3.org/2000/svg" xmlns:xlink="http://www.w3.org/1999/xlink">
    <!-- Generator: Sketch 48.2 (47327) - http://www.bohemiancoding.com/sketch -->
    <title>@Action/Save</title>
    <desc>Created with Sketch.</desc>
    <defs></defs>
    <g id="Symbols" stroke="none" stroke-width="1" fill="none" fill-rule="evenodd">
        <g id="@Action/Save">
            <rect id="Bounding-Box" x="0" y="0" width="24" height="24"></rect>
            <path d="M17.5555556,2 L4.22222222,2 C2.98888889,2 2,3 2,4.22222222 L2,19.7777778 C2,21 2.98888889,22 4.22222222,22 L19.7777778,22 C21,22 22,21 22,19.7777778 L22,6.44444444 L17.5555556,2 Z M12,19 C10.34,19 9,17.66 9,16 C9,14.34 10.34,13 12,13 C13.66,13 15,14.34 15,16 C15,17.66 13.66,19 12,19 Z M15,9 L5,9 L5,5 L15,5 L15,9 Z" id="save" fill="#202022"></path>
        </g>
    </g>
</svg>