<?xml version="1.0" encoding="UTF-8"?>
<svg width="24px" height="24px" viewBox="0 0 24 24" version="1.1" xmlns="http://www.w3.org/2000/svg" xmlns:xlink="http://www.w3.org/1999/xlink">
    <!-- Generator: Sketch 48.2 (47327) - http://www.bohemiancoding.com/sketch -->
    <title>@Action/Search</title>
    <desc>Created with Sketch.</desc>
    <defs></defs>
    <g id="Symbols" stroke="none" stroke-width="1" fill="none" fill-rule="evenodd">
        <g id="@Action/Search">
            <rect id="Bounding-Box" x="0" y="0" width="24" height="24"></rect>
            <path d="M20.6047917,18.6967059 L16.1585918,14.250506 C16.9691843,13.0554444 17.4019179,11.6443567 17.4006476,10.2003238 C17.4006476,6.22214491 14.1785027,3 10.2003238,3 C6.22214491,3 3,6.22214491 3,10.2003238 C3,14.1785027 6.22214491,17.4006476 10.2003238,17.4006476 C11.7033914,17.4006476 13.0894537,16.941627 14.250506,16.1585918 L18.6967059,20.6047917 C19.0375526,20.9456384 19.5343475,21.0787543 19.9999528,20.9539957 C20.465558,20.8292372 20.8292372,20.465558 20.9539957,19.9999528 C21.0787543,19.5343475 20.9456384,19.0375526 20.6047917,18.6967059 Z M10.2003238,15.6005667 C7.22118984,15.6005667 4.80008095,13.1794578 4.80008095,10.2003238 C4.80008095,7.22118984 7.22118984,4.80008095 10.2003238,4.80008095 C13.1794578,4.80008095 15.6005667,7.22118984 15.6005667,10.2003238 C15.6005667,13.1794578 13.1794578,15.6005667 10.2003238,15.6005667 Z" id="search" fill="#202022"></path>
        </g>
    </g>
</svg>