<?xml version="1.0" encoding="UTF-8"?>
<svg width="24px" height="24px" viewBox="0 0 24 24" version="1.1" xmlns="http://www.w3.org/2000/svg" xmlns:xlink="http://www.w3.org/1999/xlink">
    <!-- Generator: Sketch 48.2 (47327) - http://www.bohemiancoding.com/sketch -->
    <title>@Filter/Segments</title>
    <desc>Created with Sketch.</desc>
    <defs></defs>
    <g id="Symbols" stroke="none" stroke-width="1" fill="none" fill-rule="evenodd">
        <g id="@Filter/Segments">
            <rect id="Bounding-Box" x="0" y="0" width="24" height="24"></rect>
            <path d="M16.8656478,15.5957728 C16.3763383,17.551466 14.6073308,19 12.5,19 C10.0147186,19 8,16.9852814 8,14.5 C8,14.3309743 8.00931899,14.1641252 8.02747119,13.9999384 C8.01831895,13.9999795 8.00916188,14 8,14 C4.6862915,14 2,11.3137085 2,8 C2,4.6862915 4.6862915,2 8,2 C11.3137085,2 14,4.6862915 14,8 C14,8.75292687 13.8613148,9.47346208 13.608096,10.1374541 C14.2495925,10.2998952 14.8361891,10.6001117 15.3345534,11.0047713 C15.8953071,9.81972606 17.1019249,9 18.5,9 C20.4329966,9 22,10.5670034 22,12.5 C22,14.4329966 20.4329966,16 18.5,16 C17.9096796,16 17.3534932,15.8538552 16.8656478,15.5957728 Z M20,22 C18.8954305,22 18,21.1045695 18,20 C18,18.8954305 18.8954305,18 20,18 C21.1045695,18 22,18.8954305 22,20 C22,21.1045695 21.1045695,22 20,22 Z M4.5,21 C3.11928813,21 2,19.8807119 2,18.5 C2,17.1192881 3.11928813,16 4.5,16 C5.88071187,16 7,17.1192881 7,18.5 C7,19.8807119 5.88071187,21 4.5,21 Z M18.5,7 C17.1192881,7 16,5.88071187 16,4.5 C16,3.11928813 17.1192881,2 18.5,2 C19.8807119,2 21,3.11928813 21,4.5 C21,5.88071187 19.8807119,7 18.5,7 Z" id="segements" fill="#202022"></path>
        </g>
    </g>
</svg>