<?xml version="1.0" encoding="UTF-8"?>
<svg width="24px" height="24px" viewBox="0 0 24 24" version="1.1" xmlns="http://www.w3.org/2000/svg" xmlns:xlink="http://www.w3.org/1999/xlink">
    <!-- Generator: Sketch 48.2 (47327) - http://www.bohemiancoding.com/sketch -->
    <title>@Navigation/Ad Control</title>
    <desc>Created with Sketch.</desc>
    <defs></defs>
    <g id="Symbols" stroke="none" stroke-width="1" fill="none" fill-rule="evenodd">
        <g id="@Navigation/Ad-Control">
            <rect id="Bounding-Box" x="0" y="0" width="24" height="24"></rect>
            <path d="M17.6,12 L12,12 L12,17.6 L17.6,17.6 L17.6,12 Z M17.6,6.4 L12,6.4 L12,11.2 L17.6,11.2 L17.6,6.4 Z M11.2,6.4 L6.4,6.4 L6.4,17.6 L11.2,17.6 L11.2,6.4 Z M19.2,4 L4.8,4 C4.36,4 4,4.36 4,4.8 L4,19.2 C4,19.64 4.36,20 4.8,20 L19.2,20 C19.64,20 20,19.64 20,19.2 L20,4.8 C20,4.36 19.64,4 19.2,4 Z M18.4,18.4 L5.6,18.4 L5.6,5.6 L18.4,5.6 L18.4,18.4 Z" id="ad-control" fill="#202022" fill-rule="nonzero"></path>
        </g>
    </g>
</svg>