<?xml version="1.0" encoding="UTF-8"?>
<svg width="24px" height="24px" viewBox="0 0 24 24" version="1.1" xmlns="http://www.w3.org/2000/svg" xmlns:xlink="http://www.w3.org/1999/xlink">
    <!-- Generator: Sketch 48.2 (47327) - http://www.bohemiancoding.com/sketch -->
    <title>@Navigation/audience</title>
    <desc>Created with Sketch.</desc>
    <defs></defs>
    <g id="Symbols" stroke="none" stroke-width="1" fill="none" fill-rule="evenodd">
        <g id="@Navigation/audience">
            <rect id="Bounding-Box" x="0" y="0" width="24" height="24"></rect>
            <path d="M13.535764,15.92 C12.056307,15.27 12.2562336,14.87 12.206252,14.33 C12.1962557,14.26 12.1962557,14.18 12.1962557,14.1 C12.7060685,13.65 13.1159181,13.03 13.385819,12.32 C13.385819,12.32 13.3958153,12.28 13.4058117,12.27 C13.4657897,12.12 13.5157713,11.95 13.5557566,11.79 C13.8956319,11.72 14.0955585,11.35 14.1655328,11.01 C14.2455035,10.87 14.3954484,10.53 14.3654594,10.14 C14.3154778,9.64 14.1155512,9.41 13.8956319,9.32 L13.8956319,9.23 C13.8956319,8.6 13.8356539,7.68 13.7256943,7.08 C13.7057016,6.91 13.6657163,6.75 13.6157346,6.58 C13.3925328,5.83956788 12.9412172,5.18859494 12.326208,4.72 C11.6864428,4.25 10.7967693,4 10.0070592,4 C9.21734909,4 8.32767565,4.25 7.69790681,4.73 C7.08813063,5.2 6.62829942,5.86 6.40838014,6.59 C6.36839482,6.76 6.3284095,6.92 6.2984205,7.09 C6.18846087,7.69 6.12848288,8.6 6.12848288,9.23 L6.12848288,9.31 C5.89856727,9.4 5.68864433,9.63 5.63866267,10.14 C5.59867735,10.53 5.75861864,10.87 5.83858929,11.01 C5.91855993,11.36 6.11848655,11.73 6.46835813,11.79 C6.50834345,11.96 6.5583251,12.12 6.61830309,12.27 C6.61830309,12.28 6.62829942,12.29 6.62829942,12.3 L6.63829575,12.31 C6.90819668,13.03 7.3380389,13.66 7.8578481,14.11 C7.8578481,14.18 7.84785177,14.25 7.84785177,14.32 C7.79787012,14.86 7.94781508,15.26 6.46835813,15.91 C4.98890117,16.56 2.76971575,17.26 2.30988453,18.31 C1.85005332,19.38 2.02998727,20 2.02998727,20 L17.9641385,20 C17.9641385,20 18.1440725,19.38 17.6942376,18.33 C17.2344064,17.27 15.0152209,16.58 13.535764,15.92 Z M21.7627442,18.75 C21.4228689,17.96 19.7534817,17.44 18.643889,16.95 C17.5342963,16.46 17.6842412,16.16 17.6442559,15.75 C17.6342596,15.69 17.6342596,15.63 17.6342596,15.57 C18.0141202,15.23 18.3240064,14.77 18.523933,14.24 C18.523933,14.24 18.5339294,14.21 18.5339294,14.2 C18.5739147,14.08 18.6139,13.96 18.643889,13.84 C18.8937973,13.79 19.0437422,13.51 19.1037202,13.25 C19.1636982,13.15 19.2836542,12.89 19.2536652,12.6 C19.2136798,12.23 19.0637349,12.05 18.9037936,11.98 L18.9037936,11.92 C18.9037936,11.44 18.8638083,10.76 18.7738413,10.31 C18.7538486,10.19 18.7238596,10.06 18.6938706,9.94 C18.5339294,9.39 18.1840578,8.89 17.7342229,8.55 C17.2643953,8.19 16.5946412,8 16.0048577,8 C15.6249971,8 15.2251439,8.11 14.8552796,8.26 C14.8752723,8.61 14.895265,8.95 14.895265,9.23 L14.895265,9.32 C15.1251806,9.42 15.3251072,9.65 15.3650925,10.14 C15.4050778,10.53 15.2451365,10.87 15.1651659,11.01 C15.0851952,11.35 14.895265,11.72 14.5553897,11.79 C14.5154044,11.95 14.4654227,12.12 14.4054447,12.27 C14.4054447,12.28 14.3854521,12.32 14.3854521,12.32 C14.1455401,12.94 13.7856722,13.47 13.3658263,13.9 C13.3958153,14 13.4258043,14.11 13.4657897,14.21 C13.4657897,14.22 13.475786,14.23 13.475786,14.23 L13.475786,14.24 C13.6857089,14.78 13.9955952,15.25 14.3854521,15.59 C14.3854521,15.64 14.3754558,15.7 14.3754558,15.75 C14.3754558,15.78 14.3754558,15.81 14.3654594,15.84 C14.4254374,15.87 14.4654227,15.89 14.535397,15.92 C16.014854,16.57 18.2340394,17.27 18.6938706,18.32 C19.1537019,19.37 18.9637716,19.99 18.9637716,19.99 L21.9626708,19.99 C21.9726671,20 22.1026194,19.54 21.7627442,18.75 Z" id="audience" fill="#202022" fill-rule="nonzero"></path>
        </g>
    </g>
</svg>