<?xml version="1.0" encoding="UTF-8"?>
<svg width="24px" height="24px" viewBox="0 0 24 24" version="1.1" xmlns="http://www.w3.org/2000/svg" xmlns:xlink="http://www.w3.org/1999/xlink">
    <!-- Generator: Sketch 48.2 (47327) - http://www.bohemiancoding.com/sketch -->
    <title>@Navigation/Campaign</title>
    <desc>Created with Sketch.</desc>
    <defs></defs>
    <g id="Symbols" stroke="none" stroke-width="1" fill="none" fill-rule="evenodd">
        <g id="@Navigation/Campaign">
            <rect id="Bounding-Box" x="0" y="0" width="24" height="24"></rect>
            <path d="M9.63578682,7.81998913 L4.42281844,9.44626715 L2.06987407,12.2768443 L6.33503002,12.9667086 C6.06901881,13.6053445 5.84114286,14.2592188 5.65260507,14.9248801 L5.54597617,15.318411 L8.68797438,18.4619163 L9.08842514,18.3481243 C9.75376562,18.1594907 10.4073262,17.9315056 11.0456578,17.665372 L11.7351914,21.9325738 L14.5596724,19.5856128 L16.1851707,14.3701439 C19.4655005,11.3786867 21.5120002,7.27019811 21.924175,2.84869903 L22,2 L21.1517079,2.07586137 C16.7319942,2.48885832 12.6254281,4.53720859 9.63578682,7.81998913 Z M16.5666652,10.7287984 C15.7812466,11.5137363 14.5509804,11.6342516 13.6283012,11.0166367 C12.7056221,10.3990219 12.3475329,9.21530728 12.7730421,8.18945641 C13.1985513,7.16360554 14.2891377,6.58135877 15.3777952,6.79882005 C16.4664527,7.01628133 17.2499469,7.97287903 17.2490902,9.083555 C17.250186,9.70110843 17.0044806,10.2934741 16.5666652,10.7287984 Z M5.43934727,16.6033128 L5.8990363,16.5582702 L7.4463401,18.1063161 L7.40131901,18.5685963 C7.32767768,19.569425 6.8514306,20.4975685 6.08149019,21.1407708 C5.34740872,21.7169016 4.43619541,22.0202264 3.50344038,21.9989525 C3.32855525,21.9991754 3.15377262,21.9904716 2.97977401,21.9728751 L2.12437329,21.8851604 L2.03670064,21.0317201 C1.88948452,19.9270223 2.18884599,18.8092114 2.86840605,17.9261454 C3.5107036,17.1547341 4.43855818,16.6773229 5.43934727,16.6033128 Z" id="Shape" fill="#202022" fill-rule="nonzero"></path>
        </g>
    </g>
</svg>