<?xml version="1.0" encoding="UTF-8"?>
<svg width="24px" height="24px" viewBox="0 0 24 24" version="1.1" xmlns="http://www.w3.org/2000/svg" xmlns:xlink="http://www.w3.org/1999/xlink">
    <!-- Generator: Sketch 48.2 (47327) - http://www.bohemiancoding.com/sketch -->
    <title>@Navigation/Creative</title>
    <desc>Created with Sketch.</desc>
    <defs></defs>
    <g id="Symbols" stroke="none" stroke-width="1" fill="none" fill-rule="evenodd">
        <g id="@Navigation/Creative">
            <rect id="Bounding-Box" x="0" y="0" width="24" height="24"></rect>
            <path d="M20.7545455,3.24545455 C20.5909091,3.08181818 20.3454545,3 20.0181818,3 C19.6909091,3.08181818 10.9363636,4.55454545 7.33636364,8.15454545 C4.8,10.6909091 4.63636364,13.4727273 5.04545455,15.4363636 L8.07272727,13.6363636 C8.48181818,13.3909091 8.89090909,13.9636364 8.56363636,14.2909091 L5.53636364,17.3181818 C5.53636364,17.3181818 5.53636364,17.3181818 5.53636364,17.3181818 L3.24545455,19.6090909 C2.91818182,19.9363636 2.91818182,20.4272727 3.24545455,20.7545455 C3.40909091,20.9181818 3.57272727,21 3.81818182,21 C4.06363636,21 4.22727273,20.9181818 4.39090909,20.7545455 L6.68181818,18.4636364 C7.33636364,18.7909091 8.56363636,19.2 10.1181818,19.2 C11.9181818,19.2 13.5545455,18.6272727 15.0272727,17.4818182 C15.2727273,17.3181818 15.4363636,16.9090909 15.2727273,16.5818182 L14.1272727,12.4909091 L17.0727273,13.6363636 C17.4818182,13.8 17.9727273,13.6363636 18.1363636,13.2272727 C19.8545455,9.38181818 20.9181818,4.22727273 21,4.06363636 C21,3.73636364 20.9181818,3.40909091 20.7545455,3.24545455 Z" id="creative" fill="#202022"></path>
        </g>
    </g>
</svg>