<?xml version="1.0" encoding="UTF-8"?>
<svg width="24px" height="24px" viewBox="0 0 24 24" version="1.1" xmlns="http://www.w3.org/2000/svg" xmlns:xlink="http://www.w3.org/1999/xlink">
    <!-- Generator: Sketch 48.2 (47327) - http://www.bohemiancoding.com/sketch -->
    <title>@Navigation/Customers&amp;Data</title>
    <desc>Created with Sketch.</desc>
    <defs></defs>
    <g id="Symbols" stroke="none" stroke-width="1" fill="none" fill-rule="evenodd">
        <g id="@Navigation/Customers&amp;Data">
            <rect id="Bounding-Box" x="0" y="0" width="24" height="24"></rect>
            <path d="M9.00469363,18.5372557 C3.81189672,18.4273691 0.821896722,17.5816172 0.0346936347,16 C0.0346936347,16 -0.145306365,15.38 0.314693635,14.31 C0.774693635,13.26 2.99469363,12.56 4.47469363,11.91 C5.95469363,11.26 5.80469363,10.86 5.85469363,10.32 C5.85469363,10.25 5.86469363,10.18 5.86469363,10.11 C5.34469363,9.66 4.91469363,9.03 4.62469363,8.27 C4.56469363,8.12 4.51469363,7.96 4.47469363,7.79 C4.12469363,7.73 3.92469363,7.36 3.84469363,7.01 C3.76469363,6.87 3.60469363,6.53 3.64469363,6.14 C3.69469363,5.63 3.90469363,5.4 4.13469363,5.31 L4.13469363,5.23 C4.13469363,4.6 4.19469363,3.69 4.30469363,3.09 C4.33469363,2.92 4.37469363,2.76 4.41469363,2.59 C4.63469363,1.86 5.09469363,1.2 5.70469363,0.73 C6.33469363,0.25 7.22469363,0 8.01469363,0 C8.80469363,0 9.69469363,0.25 10.3346936,0.72 C10.9499287,1.18859494 11.4014099,1.83956788 11.6246936,2.58 C11.6746936,2.75 11.7146936,2.91 11.7346936,3.08 C11.8446936,3.68 11.9046936,4.6 11.9046936,5.23 L11.9046936,5.32 C12.1246936,5.41 12.3246936,5.64 12.3746936,6.14 C12.4046936,6.53 12.2546936,6.87 12.1746936,7.01 C12.1046936,7.35 11.9046936,7.72 11.5646936,7.79 C11.5246936,7.95 11.4746936,8.12 11.4146936,8.27 C11.4046936,8.28 11.3946936,8.32 11.3946936,8.32 C11.1246936,9.03 10.7146936,9.65 10.2046936,10.1 C10.2046936,10.18 10.2046936,10.26 10.2146936,10.33 C10.2368727,10.5695338 10.2098607,10.7815206 10.3021098,11 L23.0046936,11 C23.5546936,11 24.0046936,11.45 24.0046936,12 L24.0046936,16 L24.0046936,23 C24.0046936,23.3944117 23.6683469,24 23.0046936,24 L14.0046936,24 L10.0046936,24 C9.45469363,24 9.00469363,23.55 9.00469363,23 L9.00469363,18.5372557 Z M16.0046936,22 L11.0046936,22 L11.0046936,19 L16.0046936,19 L16.0046936,22 Z M16.0046936,18 L11.0046936,18 L11.0046936,14 L16.0046936,14 L16.0046936,18 Z M22.0046936,22 L17.0046936,22 L17.0046936,19 L22.0046936,19 L22.0046936,22 Z M22,18 L17,18 L17,14 L22,14 L22,18 Z" id="customer" fill="#202022"></path>
        </g>
    </g>
</svg>