<?xml version="1.0" encoding="UTF-8"?>
<svg width="24px" height="24px" viewBox="0 0 24 24" version="1.1" xmlns="http://www.w3.org/2000/svg" xmlns:xlink="http://www.w3.org/1999/xlink">
    <!-- Generator: Sketch 48.2 (47327) - http://www.bohemiancoding.com/sketch -->
    <title>@Navigation/Feedback</title>
    <desc>Created with Sketch.</desc>
    <defs></defs>
    <g id="Symbols" stroke="none" stroke-width="1" fill="none" fill-rule="evenodd">
        <g id="@Navigation/Feedback">
            <rect id="Bounding-Box" x="0" y="0" width="24" height="24"></rect>
            <path d="M13.5,7 C14.3,7 15.1,6.6 15.5,6 C17.5,7.2 18.8,9.3 19,11.7 C19,12.2 19.5,12.6 20,12.6 C20.6,12.6 21,12.1 21,11.6 L21,11.5 C20.8,8.2 18.8,5.3 15.9,3.9 C15.7,2.8 14.7,2 13.5,2 C12.1,2 11,3.1 11,4.5 C11,5.9 12.1,7 13.5,7 Z M18.5,14 C17.1,14 16,15.1 16,16.5 C16,16.9 16.1,17.2 16.2,17.6 C15.1,18.5 13.6,19 12,19 C10.1,19 8.4,18.2 7.1,17 C6.9,16.8 6.6,16.6 6.3,16.6 C5.8,16.6 5.3,17.1 5.3,17.6 C5.3,17.9 5.4,18.1 5.6,18.3 C7.3,20 9.5,21 12,21 C14.2,21 16.2,20.2 17.8,18.9 C18,19 18.3,19 18.5,19 C19.9,19 21,17.9 21,16.5 C21,15.1 19.9,14 18.5,14 Z M7,12.5 C7,11.4 6.3,10.4 5.3,10.1 C5.8,8.2 7.2,6.6 8.9,5.7 C9.2,5.5 9.5,5.2 9.5,4.8 C9.5,4.3 9.1,3.8 8.5,3.8 C8.3,3.8 8.1,3.9 7.9,4 C5.5,5.2 3.7,7.6 3.2,10.4 C2.5,10.9 2,11.6 2,12.5 C2,13.9 3.1,15 4.5,15 C5.9,15 7,13.9 7,12.5 Z" id="feedback" fill="#202022"></path>
        </g>
    </g>
</svg>