<?xml version="1.0" encoding="UTF-8"?>
<svg width="24px" height="24px" viewBox="0 0 24 24" version="1.1" xmlns="http://www.w3.org/2000/svg" xmlns:xlink="http://www.w3.org/1999/xlink">
    <!-- Generator: Sketch 48.2 (47327) - http://www.bohemiancoding.com/sketch -->
    <title>@Navigation/Notifications</title>
    <desc>Created with Sketch.</desc>
    <defs></defs>
    <g id="Symbols" stroke="none" stroke-width="1" fill="none" fill-rule="evenodd">
        <g id="@Navigation/Notifications">
            <rect id="Bounding-Box" x="0" y="0" width="24" height="24"></rect>
            <path d="M12,20.5 C12.9625,20.5 13.75,19.7125 13.75,18.75 L10.25,18.75 C10.25,19.7125 11.0375,20.5 12,20.5 Z M18.125,16.125 C17.64375,16.125 17.25,15.73125 17.25,15.25 L17.25,10 C17.25,7.71625 15.78875,5.79125 13.75,5.07375 L13.75,4.75 C13.75,3.7875 12.9625,3 12,3 C11.0375,3 10.25,3.7875 10.25,4.75 L10.25,5.07375 C8.21125,5.79125 6.75,7.71625 6.75,10 L6.75,15.25 C6.75,15.73125 6.35625,16.125 5.875,16.125 C5.39375,16.125 5,16.51875 5,17 C5,17.48125 5.39375,17.875 5.875,17.875 L18.125,17.875 C18.60625,17.875 19,17.48125 19,17 C19,16.51875 18.60625,16.125 18.125,16.125 Z" id="notification" fill="#202022"></path>
        </g>
    </g>
</svg>