<?xml version="1.0" encoding="UTF-8"?>
<svg width="24px" height="24px" viewBox="0 0 24 24" version="1.1" xmlns="http://www.w3.org/2000/svg" xmlns:xlink="http://www.w3.org/1999/xlink">
    <!-- Generator: Sketch 48.2 (47327) - http://www.bohemiancoding.com/sketch -->
    <title>@Navigation/Nurture</title>
    <desc>Created with Sketch.</desc>
    <defs></defs>
    <g id="Symbols" stroke="none" stroke-width="1" fill="none" fill-rule="evenodd">
        <g id="@Navigation/Nurture">
            <rect id="Bounding-Box" x="0" y="0" width="24" height="24"></rect>
            <path d="M17,6 L3,6 C2.45,6 2,6.45 2,7 L2,21 C2,21.55 2.45,22 3,22 L17,22 C17.55,22 18,21.55 18,21 L18,7 C18,6.45 17.55,6 17,6 Z M16,20 L4,20 L4,8 L16,8 L16,20 Z M21,2 L7,2 C6.45,2 6,2.45 6,3 L6,5 L8,5 L8,4 L20,4 L20,16 L19,16 L19,18 L21,18 C21.55,18 22,17.55 22,17 L22,3 C22,2.45 21.55,2 21,2 Z" id="nurture" fill="#202022" fill-rule="nonzero"></path>
        </g>
    </g>
</svg>