<?xml version="1.0" encoding="UTF-8"?>
<svg width="24px" height="24px" viewBox="0 0 24 24" version="1.1" xmlns="http://www.w3.org/2000/svg" xmlns:xlink="http://www.w3.org/1999/xlink">
    <!-- Generator: Sketch 48.2 (47327) - http://www.bohemiancoding.com/sketch -->
    <title>@Navigation/Parent-Account</title>
    <desc>Created with Sketch.</desc>
    <defs></defs>
    <g id="Symbols" stroke="none" stroke-width="1" fill="none" fill-rule="evenodd">
        <g id="@Navigation/Parent-Account">
            <rect id="Bounding-Box" x="0" y="0" width="24" height="24"></rect>
            <path d="M16.5,10 C14.015,10 12,7.985 12,5.5 L12,4.5 C12,2.015 14.015,0 16.5,0 C18.985,0 21,2.015 21,4.5 L21,5.5 C21,7.985 18.985,10 16.5,10 Z M7,16 C4.791,16 3,14.209 3,12 L3,11 C3,8.791 4.791,7 7,7 C9.209,7 11,8.791 11,11 L11,12 C11,14.209 9.209,16 7,16 Z M19,11 C21.761,11 24,13.239 24,16 L24,23 C24,23.552 23.552,24 23,24 L16,24 L16,22 C16,19.134 14.266,16.667 11.794,15.586 C12.547,14.585 13,13.347 13,12 L13,11.101 C13.323,11.035 13.657,11 14,11 L19,11 Z M13,24 L1,24 C0.448,24 0,23.552 0,23 L0,22 C0,19.239 2.239,17 5,17 L9,17 C11.761,17 14,19.239 14,22 L14,23 C14,23.552 13.552,24 13,24 Z" id="parent" fill="#202022" transform="translate(12.000000, 12.000000) scale(-1, 1) translate(-12.000000, -12.000000) "></path>
        </g>
    </g>
</svg>