<?xml version="1.0" encoding="UTF-8"?>
<svg width="24px" height="24px" viewBox="0 0 24 24" version="1.1" xmlns="http://www.w3.org/2000/svg" xmlns:xlink="http://www.w3.org/1999/xlink">
    <!-- Generator: Sketch 48.2 (47327) - http://www.bohemiancoding.com/sketch -->
    <title>@Navigation/Placement</title>
    <desc>Created with Sketch.</desc>
    <defs></defs>
    <g id="Symbols" stroke="none" stroke-width="1" fill="none" fill-rule="evenodd">
        <g id="@Navigation/Placement">
            <rect id="Bounding-Box" x="0" y="0" width="24" height="24"></rect>
            <path d="M12.3913043,7.5 L12.3913043,3.5625 C12.3913043,3.252 12.6667826,3 13.0062112,3 L20.3850932,3 C20.7245217,3 21,3.252 21,3.5625 L21,11.4375 C21,11.748 20.7245217,12 20.3850932,12 L15.9130435,12 L15.9130435,15.9375 C15.9130435,16.248 15.650087,16.5 15.326087,16.5 L11.6086957,16.5 L11.6086957,20.4375 C11.6086957,20.748 11.3332174,21 10.9937888,21 L3.61490683,21 C3.27547826,21 3,20.748 3,20.4375 L3,12.5625 C3,12.252 3.27547826,12 3.61490683,12 L7.69565217,12 L7.69565217,8.0625 C7.69565217,7.752 7.9586087,7.5 8.2826087,7.5 L12.3913043,7.5 Z M10.0434783,16.5 L8.2826087,16.5 C7.9586087,16.5 7.69565217,16.248 7.69565217,15.9375 L7.69565217,13.5 L4.95652174,13.5 C4.74052174,13.5 4.56521739,13.668 4.56521739,13.875 L4.56521739,19.125 C4.56521739,19.332 4.74052174,19.5 4.95652174,19.5 L9.65217391,19.5 C9.86817391,19.5 10.0434783,19.332 10.0434783,19.125 L10.0434783,16.5 Z M19.0434783,4.5 L14.3478261,4.5 C14.1318261,4.5 13.9565217,4.668 13.9565217,4.875 L13.9565217,10.125 C13.9565217,10.332 14.1318261,10.5 14.3478261,10.5 L19.0434783,10.5 C19.2594783,10.5 19.4347826,10.332 19.4347826,10.125 L19.4347826,4.875 C19.4347826,4.668 19.2594783,4.5 19.0434783,4.5 Z" id="placement" fill="#202022"></path>
        </g>
    </g>
</svg>