<?xml version="1.0" encoding="UTF-8"?>
<svg width="24px" height="24px" viewBox="0 0 24 24" version="1.1" xmlns="http://www.w3.org/2000/svg" xmlns:xlink="http://www.w3.org/1999/xlink">
    <!-- Generator: Sketch 48.2 (47327) - http://www.bohemiancoding.com/sketch -->
    <title>@Navigation/Preferences</title>
    <desc>Created with Sketch.</desc>
    <defs></defs>
    <g id="Symbols" stroke="none" stroke-width="1" fill="none" fill-rule="evenodd">
        <g id="@Navigation/Preferences">
            <rect id="Bounding-Box" x="0" y="0" width="24" height="24"></rect>
            <path d="M21.0909091,2 L2.90909091,2 C2.40636364,2 2,2.37333333 2,2.83333333 L2,21.1666667 C2,21.6266667 2.40636364,22 2.90909091,22 L21.0909091,22 C21.5936364,22 22,21.6266667 22,21.1666667 L22,2.83333333 C22,2.37333333 21.5936364,2 21.0909091,2 Z M5,7 L10,7 L10,9 L5,9 L5,7 Z M12,19 L8,19 L8,17 L5,17 L5,15 L8,15 L8,13 L12,13 L12,19 Z M19,17 L14,17 L14,15 L19,15 L19,17 Z M19,9 L16,9 L16,11 L12,11 L12,5 L16,5 L16,7 L19,7 L19,9 Z" id="preferences" fill="#202022"></path>
        </g>
    </g>
</svg>