<?xml version="1.0" encoding="UTF-8"?>
<svg width="24px" height="24px" viewBox="0 0 24 24" version="1.1" xmlns="http://www.w3.org/2000/svg" xmlns:xlink="http://www.w3.org/1999/xlink">
    <!-- Generator: Sketch 48.2 (47327) - http://www.bohemiancoding.com/sketch -->
    <title>@Navigation/Settings</title>
    <desc>Created with Sketch.</desc>
    <defs></defs>
    <g id="Symbols" stroke="none" stroke-width="1" fill="none" fill-rule="evenodd">
        <g id="@Navigation/Settings">
            <rect id="Bounding-Box" x="0" y="0" width="24" height="24"></rect>
            <path d="M21,10 C21.55,10 22,10.45 22,11 L22,13 C22,13.55 21.55,14 21,14 L19.74,14 C19.55,14.76 19.25,15.48 18.85,16.13 L19.72,17 C20.09,17.38 20.09,17.98 19.72,18.36 L18.36,19.72 C17.98,20.09 17.37,20.09 17,19.72 L16.12,18.85 C15.46,19.24 14.75,19.54 13.99,19.74 L13.99,21 C13.99,21.55 13.54,22 12.99,22 L10.99,22 C10.44,22 9.99,21.55 9.99,21 L9.99,19.73 C9.26,19.54 8.57,19.26 7.93,18.88 L6.99,19.82 C6.6,20.21 5.97,20.21 5.58,19.82 L4.17,18.41 C3.98277191,18.2231554 3.87755597,17.9695095 3.87755597,17.705 C3.87755597,17.4404905 3.98277191,17.1868446 4.17,17 L5.11,16.06 C4.74,15.42 4.45,14.73 4.26,14 L3,14 C2.45,14 2,13.55 2,13 L2,11 C2,10.45 2.45,10 3,10 L4.26,10 C4.46,9.24 4.76,8.53 5.15,7.87 L4.28,7 C3.91,6.62 3.91,6.02 4.28,5.64 L5.64,4.28 C6.01785806,3.91005159 6.62214194,3.91005159 7,4.28 L7.87,5.15 C8.53,4.76 9.24,4.46 10,4.26 L10,3 C10,2.45 10.45,2 11,2 L13,2 C13.55,2 14,2.45 14,3 L14,4.26 C14.73,4.45 15.42,4.74 16.07,5.12 L17.01,4.18 C17.1968446,3.99277191 17.4504905,3.88755597 17.715,3.88755597 C17.9795095,3.88755597 18.2331554,3.99277191 18.42,4.18 L19.83,5.59 C20.0172281,5.77684459 20.122444,6.03049053 20.122444,6.295 C20.122444,6.55950947 20.0172281,6.81315541 19.83,7 L18.89,7.94 C19.26,8.58 19.55,9.27 19.74,10 L21,10 Z M12,16 C14.209139,16 16,14.209139 16,12 C16,9.790861 14.209139,8 12,8 C9.790861,8 8,9.790861 8,12 C8,14.209139 9.790861,16 12,16 Z" id="settings" fill="#202022"></path>
        </g>
    </g>
</svg>