<?xml version="1.0" encoding="UTF-8"?>
<svg width="24px" height="24px" viewBox="0 0 24 24" version="1.1" xmlns="http://www.w3.org/2000/svg" xmlns:xlink="http://www.w3.org/1999/xlink">
    <!-- Generator: Sketch 48.2 (47327) - http://www.bohemiancoding.com/sketch -->
    <title>@Navigation/User</title>
    <desc>Created with Sketch.</desc>
    <defs></defs>
    <g id="Symbols" stroke="none" stroke-width="1" fill="none" fill-rule="evenodd">
        <g id="@Navigation/User">
            <rect id="Bounding-Box" x="0" y="0" width="24" height="24"></rect>
            <path d="M21.6180922,19.91 C21.047857,18.59 18.2667095,17.72 16.4259501,16.9 C14.5751865,16.08 14.8352938,15.59 14.7652649,14.91 C14.7552608,14.82 14.7552608,14.72 14.7452567,14.62 C15.3755167,14.06 15.8957313,13.29 16.2358717,12.4 C16.2358717,12.4 16.2558799,12.35 16.2558799,12.34 C16.3259088,12.15 16.3859336,11.95 16.4459583,11.74 C16.8661317,11.65 17.1162349,11.19 17.206272,10.76 C17.3063133,10.59 17.4963917,10.16 17.4563752,9.68 C17.3963504,9.06 17.1462472,8.77 16.8661317,8.65 L16.8661317,8.54 C16.8661317,7.75 16.7961028,6.61 16.6460409,5.86 C16.4698623,4.69119275 15.8455703,3.63678972 14.9053227,2.92 C14.1149966,2.32 13.0045385,2 12.0141299,2 C11.0237213,2 9.91326311,2.32 9.12293704,2.92 C8.18268946,3.63678972 7.55839745,4.69119275 7.38221886,5.86 C7.24216108,6.61 7.16212806,7.75 7.16212806,8.54 L7.16212806,8.64 C6.87200836,8.75 6.61190105,9.04 6.55187628,9.68 C6.51185977,10.16 6.7019382,10.59 6.80197947,10.76 C6.90202075,11.2 7.15212393,11.67 7.59230554,11.74 C7.64232618,11.95 7.71235507,12.15 7.78238396,12.34 C7.78238396,12.35 7.79238809,12.37 7.79238809,12.38 L7.80239222,12.4 C8.14253255,13.31 8.6727513,14.09 9.32301959,14.65 C9.32301959,14.74 9.31301546,14.83 9.30301133,14.91 C9.23298244,15.59 9.43306499,16.08 7.58230141,16.9 C5.73153783,17.72 2.96039453,18.59 2.39015927,19.91 C1.819924,21.23 2.05001893,22 2.05001893,22 L21.9582326,22 C21.9582326,22 22.1883275,21.23 21.6180922,19.91 Z" id="user" fill="#202022"></path>
        </g>
    </g>
</svg>