<?xml version="1.0" encoding="UTF-8"?>
<svg width="24px" height="24px" viewBox="0 0 24 24" version="1.1" xmlns="http://www.w3.org/2000/svg" xmlns:xlink="http://www.w3.org/1999/xlink">
    <!-- Generator: Sketch 48.2 (47327) - http://www.bohemiancoding.com/sketch -->
    <title>@Navigation/Widget</title>
    <desc>Created with Sketch.</desc>
    <defs></defs>
    <g id="Symbols" stroke="none" stroke-width="1" fill="none" fill-rule="evenodd">
        <g id="@Navigation/Widget">
            <rect id="Bounding-Box" x="0" y="0" width="24" height="24"></rect>
            <path d="M21,3 L3,3 C2.4,3 2,3.5 2,4 L2,20 C2,20.5 2.4,21 3,21 L21,21 C21.5,21 22,20.5 22,20 L22,4 C22,3.5 21.5,3 21,3 Z M9,19 L4,19 L4,16 L9,16 L9,19 Z M9,15 L4,15 L4,12 L9,12 L9,15 Z M9,11 L4,11 L4,8 L9,8 L9,11 Z M20,19 L10,19 L10,16 L20,16 L20,19 Z M20,15 L10,15 L10,12 L20,12 L20,15 Z M20,11 L10,11 L10,8 L20,8 L20,11 Z" id="widget" fill="#202022" fill-rule="nonzero"></path>
        </g>
    </g>
</svg>