<svg xmlns="http://www.w3.org/2000/svg" viewBox="0 0 20 16"><title>icon-code</title><g id="Layer_2" data-name="Layer 2"><g id="Layer_1-2" data-name="Layer 1"><path d="M6,4a1,1,0,0,0-1.71-.71l-4,4a1,1,0,0,0,0,1.42l4,4a1,1,0,0,0,1.42-1.42L2.41,8,5.7,4.71A1,1,0,0,0,6,4Zm6-4a1,1,0,0,0-.95.73l-4,14A1.17,1.17,0,0,0,7,15a1,1,0,0,0,1,1,1,1,0,0,0,.95-.73l4-14A1.17,1.17,0,0,0,13,1,1,1,0,0,0,12,0Zm7.71,7.29-4-4a1,1,0,0,0-1.42,1.42L17.59,8,14.3,11.29A1,1,0,0,0,14,12a1,1,0,0,0,1.71.71l4-4a1,1,0,0,0,0-1.42Z" style="fill:#202022"/></g></g></svg>