<?xml version="1.0" encoding="UTF-8"?>
<svg width="24px" height="24px" viewBox="0 0 24 24" version="1.1" xmlns="http://www.w3.org/2000/svg" xmlns:xlink="http://www.w3.org/1999/xlink">
    <!-- Generator: Sketch 48.2 (47327) - http://www.bohemiancoding.com/sketch -->
    <title>@Trigger/App Event</title>
    <desc>Created with Sketch.</desc>
    <defs></defs>
    <g id="Symbols" stroke="none" stroke-width="1" fill="none" fill-rule="evenodd">
        <g id="@Trigger/App-Event">
            <rect id="Bounding-Box" x="0" y="0" width="24" height="24"></rect>
            <path d="M16,8 L4.8,8 C4.36,8 4,8.36 4,8.8 L4,19.2 C4,19.64 4.36,20 4.8,20 L16,20 C16.44,20 16.8,19.64 16.8,19.2 L16.8,8.8 C16.8,8.36 16.44,8 16,8 Z M15.2,18.4 L5.6,18.4 L5.6,10.4 L15.2,10.4 L15.2,18.4 Z M6.8,12 L12.4,12 C12.624,12 12.8,11.824 12.8,11.6 C12.8,11.376 12.624,11.2 12.4,11.2 L6.8,11.2 C6.576,11.2 6.4,11.376 6.4,11.6 C6.4,11.824 6.576,12 6.8,12 Z M6.8,13.6 L9.2,13.6 C9.424,13.6 9.6,13.424 9.6,13.2 C9.6,12.976 9.424,12.8 9.2,12.8 L6.8,12.8 C6.576,12.8 6.4,12.976 6.4,13.2 C6.4,13.424 6.576,13.6 6.8,13.6 Z M6.8,15.2 L10.8,15.2 C11.024,15.2 11.2,15.024 11.2,14.8 C11.2,14.576 11.024,14.4 10.8,14.4 L6.8,14.4 C6.576,14.4 6.4,14.576 6.4,14.8 C6.4,15.024 6.576,15.2 6.8,15.2 Z M19.2,4 L8,4 C7.56,4 7.2,4.36 7.2,4.8 L7.2,7.2 L8.8,7.2 L8.8,6.4 L18.4,6.4 L18.4,14.4 L17.6,14.4 L17.6,16 L19.2,16 C19.64,16 20,15.64 20,15.2 L20,4.8 C20,4.36 19.64,4 19.2,4 Z" id="Shape" fill="#202022" fill-rule="nonzero"></path>
        </g>
    </g>
</svg>