<?xml version="1.0" encoding="UTF-8"?>
<svg width="24px" height="24px" viewBox="0 0 24 24" version="1.1" xmlns="http://www.w3.org/2000/svg" xmlns:xlink="http://www.w3.org/1999/xlink">
    <!-- Generator: Sketch 48.2 (47327) - http://www.bohemiancoding.com/sketch -->
    <title>@Widget Type/Auto</title>
    <desc>Created with Sketch.</desc>
    <defs>
        <path d="M11.9999957,18.4000009 C8.46399758,18.4000009 5.59999913,15.5360024 5.59999913,12.0000043 C5.59999913,9.98400543 6.54399862,8.1920064 7.99999783,7.02400703 L7.99999783,8.0000065 C7.99999783,8.44000626 8.35999764,8.80000607 8.7999974,8.80000607 C9.23999716,8.80000607 9.59999697,8.44000626 9.59999697,8.0000065 L9.59999697,4.80000824 C9.59999697,4.36000847 9.23999716,4.00000867 8.7999974,4.00000867 L5.59999913,4.00000867 C5.15999937,4.00000867 4.79999957,4.36000847 4.79999957,4.80000824 C4.79999957,5.240008 5.15999937,5.6000078 5.59999913,5.6000078 L7.24799824,5.6000078 C5.2879993,7.05600701 4,9.36800576 4,12.0000043 C4,16.4160019 7.58399806,20 11.9999957,20 C12.4399954,20 12.7999952,19.6400002 12.7999952,19.2000004 C12.7999952,18.7600007 12.4399954,18.4000009 11.9999957,18.4000009 Z M11.9999957,5.6000078 C13.311995,5.6000078 14.5199943,5.99200759 15.5359937,6.67200722 L16.6799931,5.52800784 C15.3227259,4.53288536 13.6829802,3.99751538 11.9999957,4.00000867 C11.5599959,4.00000867 11.1999961,4.36000847 11.1999961,4.80000824 C11.1999961,5.240008 11.5599959,5.6000078 11.9999957,5.6000078 Z M19.9999913,12.0000043 C19.9999913,11.0960048 19.8399914,10.2320053 19.5679916,9.42400573 L18.2719923,10.720005 C18.7510498,13.0666418 17.8732577,15.4836608 15.9999935,16.9760016 L15.9999935,16.0000022 C15.9999935,15.5600024 15.6399937,15.2000026 15.1999939,15.2000026 C14.7599942,15.2000026 14.3999944,15.5600024 14.3999944,16.0000022 L14.3999944,19.2000004 C14.3999944,19.6400002 14.7599942,20 15.1999939,20 L18.3999922,20 C18.839992,20 19.1999918,19.6400002 19.1999918,19.2000004 C19.1999918,18.7600007 18.839992,18.4000009 18.3999922,18.4000009 L16.7519931,18.4000009 C18.711992,16.9440017 19.9999913,14.6320029 19.9999913,12.0000043 Z M19.9999913,6.40000737 C19.9995237,6.07613598 19.804398,5.78429866 19.5052844,5.66010532 C19.2061709,5.53591198 18.8617208,5.60371491 18.6319921,5.83200768 L13.5999948,10.8720049 L11.7679958,9.03200594 C11.4542982,8.71830839 10.945694,8.7183084 10.6319964,9.03200596 C10.3182989,9.34570352 10.3182989,9.85430776 10.6319964,10.1680053 L13.0319951,12.568004 C13.175995,12.7120039 13.3759949,12.8000039 13.5999948,12.8000039 C13.8239947,12.8000039 14.0239946,12.7120039 14.1679945,12.568004 L19.7679915,6.96800706 C19.9119914,6.82400714 19.9999913,6.62400725 19.9999913,6.40000737 Z" id="path-1"></path>
    </defs>
    <g id="Symbols" stroke="none" stroke-width="1" fill="none" fill-rule="evenodd">
        <g id="@Widget-Type/Auto">
            <rect id="Bounding-Box" x="0" y="0" width="24" height="24"></rect>
            <mask id="mask-2" fill="white">
                <use xlink:href="#path-1"></use>
            </mask>
            <use id="Shape" fill="#202022" fill-rule="nonzero" xlink:href="#path-1"></use>
        </g>
    </g>
</svg>