<?xml version="1.0" encoding="UTF-8"?>
<svg width="24px" height="24px" viewBox="0 0 24 24" version="1.1" xmlns="http://www.w3.org/2000/svg" xmlns:xlink="http://www.w3.org/1999/xlink">
    <!-- Generator: Sketch 48.2 (47327) - http://www.bohemiancoding.com/sketch -->
    <title>@Widget Type/Embedded</title>
    <desc>Created with Sketch.</desc>
    <defs></defs>
    <g id="Symbols" stroke="none" stroke-width="1" fill="none" fill-rule="evenodd">
        <g id="@Widget-Type/Embedded">
            <rect id="Bounding-Box" x="0" y="0" width="24" height="24"></rect>
            <path d="M8,8 C7.99941547,7.59516055 7.75550816,7.2303637 7.38161604,7.07512194 C7.00772391,6.91988018 6.57716111,7.00463388 6.29,7.29 L2.29,11.29 C2.11,11.47 2,11.72 2,12 C2,12.28 2.11,12.53 2.29,12.71 L6.29,16.71 C6.68212217,17.1021222 7.31787783,17.1021222 7.71,16.71 C8.10212217,16.3178778 8.10212217,15.6821222 7.71,15.29 L4.41,12 L7.7,8.71 C7.89,8.53 8,8.28 8,8 Z M14,4 C13.54,4 13.17,4.31 13.05,4.73 L9.05,18.73 C9.03,18.82 9,18.9 9,19 C9,19.55 9.45,20 10,20 C10.46,20 10.83,19.69 10.95,19.27 L14.95,5.27 C14.97,5.18 15,5.1 15,5 C15,4.45 14.55,4 14,4 Z M21.71,11.29 L17.71,7.29 C17.3178778,6.89787785 16.6821222,6.89787787 16.29,7.29000003 C15.8978779,7.68212219 15.8978779,8.31787782 16.29,8.71 L19.59,12 L16.3,15.29 C16.11,15.47 16,15.72 16,16 C16.0005845,16.4048395 16.2444918,16.7696363 16.618384,16.9248781 C16.9922761,17.0801198 17.4228389,16.9953661 17.71,16.71 L21.71,12.71 C21.89,12.53 22,12.28 22,12 C22,11.72 21.89,11.47 21.71,11.29 Z" id="Shape" fill="#202022" fill-rule="nonzero"></path>
        </g>
    </g>
</svg>