<?xml version="1.0" encoding="UTF-8"?>
<svg width="24px" height="24px" viewBox="0 0 24 24" version="1.1" xmlns="http://www.w3.org/2000/svg" xmlns:xlink="http://www.w3.org/1999/xlink">
    <!-- Generator: Sketch 48.2 (47327) - http://www.bohemiancoding.com/sketch -->
    <title>@Trigger/Form</title>
    <desc>Created with Sketch.</desc>
    <defs>
        <rect id="path-1" x="0" y="0" width="24" height="24"></rect>
        <path d="M4.78141477,14.6666667 L4.78141477,18.2222222 L8.33697033,18.2222222 L8.33697033,14.6666667 L4.78141477,14.6666667 Z M3.89252588,12.8888889 L9.22585922,12.8888889 C9.71474811,12.8888889 10.1147481,13.2888889 10.1147481,13.7777778 L10.1147481,19.1111111 C10.1147481,19.6 9.71474811,20 9.22585922,20 L3.89252588,20 C3.40363699,20 3.00363699,19.6 3.00363699,19.1111111 L3.00363699,13.7777778 C3.00363699,13.2888889 3.40363699,12.8888889 3.89252588,12.8888889 Z M13.6703037,6.66666667 L19.8925259,6.66666667 C20.3814148,6.66666667 20.7814148,7.06666667 20.7814148,7.55555556 C20.7814148,8.04444444 20.3814148,8.44444444 19.8925259,8.44444444 L13.6703037,8.44444444 C13.1814148,8.44444444 12.7814148,8.04444444 12.7814148,7.55555556 C12.7814148,7.06666667 13.1814148,6.66666667 13.6703037,6.66666667 Z M10.1147481,4 C10.4746054,4.00051958 10.7988693,4.21732608 10.9368619,4.54967464 C11.0748546,4.88202319 10.999518,5.26474568 10.7458592,5.52 L6.30141477,10.8533333 C6.14141477,11.0133333 5.91919255,11.1111111 5.67030366,11.1111111 C5.42141477,11.1111111 5.19919255,11.0133333 5.03919255,10.8533333 L3.26141477,9.07555556 C2.91286174,8.72700251 2.91286174,8.16188638 3.26141478,7.81333334 C3.60996782,7.4647803 4.17508395,7.4647803 4.52363699,7.81333333 L5.67030366,8.96888889 L9.48363699,4.25777778 C9.64363699,4.09777778 9.86585922,4 10.1147481,4 Z M13.6703037,15.5555556 L19.8925259,15.5555556 C20.3814148,15.5555556 20.7814148,15.9555556 20.7814148,16.4444444 C20.7814148,16.9333333 20.3814148,17.3333333 19.8925259,17.3333333 L13.6703037,17.3333333 C13.1814148,17.3333333 12.7814148,16.9333333 12.7814148,16.4444444 C12.7814148,15.9555556 13.1814148,15.5555556 13.6703037,15.5555556 Z" id="path-3"></path>
    </defs>
    <g id="Symbols" stroke="none" stroke-width="1" fill="none" fill-rule="evenodd">
        <g id="@Trigger/Form">
            <mask id="mask-2" fill="white">
                <use xlink:href="#path-1"></use>
            </mask>
            <g id="Bounding-Box"></g>
            <mask id="mask-4" fill="white">
                <use xlink:href="#path-3"></use>
            </mask>
            <use id="Shape" fill="#202022" fill-rule="nonzero" xlink:href="#path-3"></use>
        </g>
    </g>
</svg>