<?xml version="1.0" encoding="UTF-8"?>
<svg width="24px" height="24px" viewBox="0 0 24 24" version="1.1" xmlns="http://www.w3.org/2000/svg" xmlns:xlink="http://www.w3.org/1999/xlink">
    <!-- Generator: Sketch 48.2 (47327) - http://www.bohemiancoding.com/sketch -->
    <title>@Trigger/Frequency</title>
    <desc>Created with Sketch.</desc>
    <defs></defs>
    <g id="Symbols" stroke="none" stroke-width="1" fill="none" fill-rule="evenodd">
        <g id="@Trigger/Frequency">
            <rect id="Bounding-Box" x="0" y="0" width="24" height="24"></rect>
            <path d="M13,11.59 L13,6 C13,5.45 12.55,5 12,5 C11.45,5 11,5.45 11,6 L11,12 C11,12.28 11.11,12.53 11.29,12.71 L14.29,15.71 C14.6821222,16.1021221 15.3178778,16.1021221 15.71,15.71 C16.1021221,15.3178778 16.1021221,14.6821222 15.71,14.29 L13,11.59 Z M12,2 C6.48,2 2,6.48 2,12 C2,17.52 6.48,22 12,22 C17.52,22 22,17.52 22,12 C22,6.48 17.52,2 12,2 Z M12,20 C7.58,20 4,16.42 4,12 C4,7.58 7.58,4 12,4 C16.42,4 20,7.58 20,12 C20,16.42 16.42,20 12,20 Z" id="Shape" fill="#202022" fill-rule="nonzero"></path>
        </g>
    </g>
</svg>