<?xml version="1.0" encoding="UTF-8"?>
<svg width="24px" height="24px" viewBox="0 0 24 24" version="1.1" xmlns="http://www.w3.org/2000/svg" xmlns:xlink="http://www.w3.org/1999/xlink">
    <!-- Generator: Sketch 48.2 (47327) - http://www.bohemiancoding.com/sketch -->
    <title>@Trigger/Page View</title>
    <desc>Created with Sketch.</desc>
    <defs></defs>
    <g id="Symbols" stroke="none" stroke-width="1" fill="none" fill-rule="evenodd">
        <g id="@Trigger/Page-View">
            <rect id="Bounding-Box" x="0" y="0" width="24" height="24"></rect>
            <path d="M21,3 L3,3 C2.45,3 2,3.45 2,4 L2,20 C2,20.55 2.45,21 3,21 L21,21 C21.55,21 22,20.55 22,20 L22,4 C22,3.45 21.55,3 21,3 Z M9,19 L4,19 L4,10 L9,10 L9,19 Z M20,19 L10,19 L10,10 L20,10 L20,19 Z M20,9 L4,9 L4,5 L20,5 L20,9 Z" id="Shape" fill="#202022" fill-rule="nonzero"></path>
        </g>
    </g>
</svg>