<?xml version="1.0" encoding="UTF-8"?>
<svg width="24px" height="24px" viewBox="0 0 24 24" version="1.1" xmlns="http://www.w3.org/2000/svg" xmlns:xlink="http://www.w3.org/1999/xlink">
    <!-- Generator: Sketch 48.2 (47327) - http://www.bohemiancoding.com/sketch -->
    <title>@Trigger/Query</title>
    <desc>Created with Sketch.</desc>
    <defs></defs>
    <g id="Symbols" stroke="none" stroke-width="1" fill="none" fill-rule="evenodd">
        <g id="@Trigger/Query">
            <rect id="Bounding-Box" x="0" y="0" width="24" height="24"></rect>
            <path d="M14.4004855,10.4002988 L8.00018673,10.4002988 C7.56016619,10.4002988 7.20014939,10.7603156 7.20014939,11.2003361 C7.20014939,11.6403567 7.56016619,12.0003735 8.00018673,12.0003735 L14.4004855,12.0003735 C14.840506,12.0003735 15.2005229,11.6403567 15.2005229,11.2003361 C15.2005229,10.7603156 14.840506,10.4002988 14.4004855,10.4002988 Z M14.4004855,12.8004108 L8.00018673,12.8004108 C7.56016619,12.8004108 7.20014939,13.1604276 7.20014939,13.6004482 C7.20014939,14.0404687 7.56016619,14.4004855 8.00018673,14.4004855 L14.4004855,14.4004855 C14.840506,14.4004855 15.2005229,14.0404687 15.2005229,13.6004482 C15.2005229,13.1604276 14.840506,12.8004108 14.4004855,12.8004108 Z M14.4004855,8.00018673 L8.00018673,8.00018673 C7.56016619,8.00018673 7.20014939,8.36020354 7.20014939,8.80022408 C7.20014939,9.24024462 7.56016619,9.60026143 8.00018673,9.60026143 L14.4004855,9.60026143 C14.840506,9.60026143 15.2005229,9.24024462 15.2005229,8.80022408 C15.2005229,8.36020354 14.840506,8.00018673 14.4004855,8.00018673 Z M19.6487305,17.9526513 L17.0646099,15.3685307 C17.9346583,14.1529197 18.401904,12.695225 18.4006722,11.2003361 C18.4006722,7.22370029 15.176972,4 11.2003361,4 C7.22370029,4 4,7.22370029 4,11.2003361 C4,15.176972 7.22370029,18.4006722 11.2003361,18.4006722 C12.7524086,18.4006722 14.1924758,17.9046491 15.3685307,17.0646099 L17.9526513,19.6487305 C18.4210107,20.1170898 19.1803712,20.1170898 19.6487305,19.6487305 C20.1170898,19.1803712 20.1170898,18.4210107 19.6487305,17.9526513 Z M11.2003361,16.8005975 C8.10419159,16.8005975 5.60007469,14.2964807 5.60007469,11.2003361 C5.60007469,8.10419159 8.10419159,5.60007469 11.2003361,5.60007469 C14.2964807,5.60007469 16.8005975,8.10419159 16.8005975,11.2003361 C16.8005975,14.2964807 14.2964807,16.8005975 11.2003361,16.8005975 Z" id="Shape" fill="#202022" fill-rule="nonzero"></path>
        </g>
    </g>
</svg>