<?xml version="1.0" encoding="UTF-8"?>
<svg width="24px" height="24px" viewBox="0 0 24 24" version="1.1" xmlns="http://www.w3.org/2000/svg" xmlns:xlink="http://www.w3.org/1999/xlink">
    <!-- Generator: Sketch 48.2 (47327) - http://www.bohemiancoding.com/sketch -->
    <title>@Trigger/Segment</title>
    <desc>Created with Sketch.</desc>
    <defs>
        <path d="M17,9.99999897 C15.7,9.99999897 14.6,10.8399989 14.18,11.9999987 L13,11.9999987 C10.51,11.9999987 8.46,10.1699989 8.08,7.78999925 C9.42735837,7.27125598 10.2128595,5.86510584 9.94812152,4.4458164 C9.68338356,3.02652695 8.44376788,1.99811875 7,2 C5.34,2 4,3.33999983 4,4.99999961 C4,6.29999945 4.84,7.3999993 6,7.80999925 L6,16.1799982 C4.84,16.5999981 4,17.699998 4,18.9999978 C4,20.6599976 5.34,21.9999974 7,21.9999974 C8.66,21.9999974 10,20.6599976 10,18.9999978 C10,17.699998 9.16,16.5999981 8,16.1799982 L8,11.8599987 C9.27,13.1699986 11.03,13.9999985 13,13.9999985 L14.18,13.9999985 C14.6671326,15.3749463 16.0737177,16.1992239 17.5113421,15.9522094 C18.9489666,15.7051949 19.999747,14.4586896 20,12.9999986 C20,11.3399988 18.66,9.99999897 17,9.99999897 Z M7,20 C6.45,20 6,19.55 6,19 C6,18.45 6.45,18 7,18 C7.55,18 8,18.45 8,19 C8,19.55 7.55,20 7,20 Z M7,6 C6.45,6 6,5.55 6,5 C6,4.45 6.45,4 7,4 C7.55,4 8,4.45 8,5 C8,5.55 7.55,6 7,6 Z M17,14 C16.45,14 16,13.55 16,13 C16,12.45 16.45,12 17,12 C17.55,12 18,12.45 18,13 C18,13.55 17.55,14 17,14 Z" id="path-1"></path>
    </defs>
    <g id="Symbols" stroke="none" stroke-width="1" fill="none" fill-rule="evenodd">
        <g id="@Trigger/Segment">
            <rect id="Bounding-Box" x="0" y="0" width="24" height="24"></rect>
            <mask id="mask-2" fill="white">
                <use xlink:href="#path-1"></use>
            </mask>
            <use id="Shape" fill="#202022" fill-rule="nonzero" xlink:href="#path-1"></use>
        </g>
    </g>
</svg>