<?xml version="1.0" encoding="UTF-8"?>
<svg width="24px" height="24px" viewBox="0 0 24 24" version="1.1" xmlns="http://www.w3.org/2000/svg" xmlns:xlink="http://www.w3.org/1999/xlink">
    <!-- Generator: Sketch 48.2 (47327) - http://www.bohemiancoding.com/sketch -->
    <title>@Trigger/Trigger</title>
    <desc>Created with Sketch.</desc>
    <defs></defs>
    <g id="Symbols" stroke="none" stroke-width="1" fill="none" fill-rule="evenodd">
        <g id="@Trigger/Trigger">
            <rect id="Bounding-Box" x="0" y="0" width="24" height="24"></rect>
            <path d="M21,5 L9,5 C8.45,5 8,5.45 8,6 L8,7 L20,7 L20,13 L21,13 C21.55,13 22,12.55 22,12 L22,6 C22,5.45 21.55,5 21,5 Z M15,11 L3,11 C2.45,11 2,11.45 2,12 L2,18 C2,18.55 2.45,19 3,19 L15,19 C15.55,19 16,18.55 16,18 L16,12 C16,11.45 15.55,11 15,11 Z M14,17 L4,17 L4,13 L14,13 L14,17 Z M18,8 L6,8 C5.45,8 5,8.45 5,9 L5,10 L17,10 L17,16 L18,16 C18.55,16 19,15.55 19,15 L19,9 C19,8.45 18.55,8 18,8 Z" id="Shape" fill="#202022" fill-rule="nonzero"></path>
        </g>
    </g>
</svg>