<?xml version="1.0" encoding="UTF-8"?>
<svg width="24px" height="24px" viewBox="0 0 24 24" version="1.1" xmlns="http://www.w3.org/2000/svg" xmlns:xlink="http://www.w3.org/1999/xlink">
    <!-- Generator: Sketch 48.2 (47327) - http://www.bohemiancoding.com/sketch -->
    <title>@Trigger/URL Target</title>
    <desc>Created with Sketch.</desc>
    <defs></defs>
    <g id="Symbols" stroke="none" stroke-width="1" fill="none" fill-rule="evenodd">
        <g id="@Trigger/URL-Target">
            <rect id="Bounding-Box" x="0" y="0" width="24" height="24"></rect>
            <path d="M12.85,13.98 L8.41,18.42 L7.41,19.42 C7.05,19.78 6.55,20 6,20 C4.9,20 4,19.1 4,18 C4,17.45 4.22,16.95 4.59,16.59 L10.03,11.15 C9.69,11.06 9.36,11 9,11 C7.89,11 6.91,11.46 6.18,12.18 L6.17,12.17 L3.17,15.17 L3.18,15.18 C2.46,15.91 2,16.89 2,18 C2,20.21 3.79,22 6,22 C7.11,22 8.09,21.54 8.82,20.82 L8.83,20.83 L11.83,17.83 L11.82,17.82 C12.54,17.09 13,16.11 13,15 C13,14.64 12.94,14.31 12.85,13.98 Z M22,6 C22,3.79 20.21,2 18,2 C16.89,2 15.91,2.46 15.18,3.18 L15.17,3.17 L12.17,6.17 L12.18,6.18 C11.46,6.91 11,7.89 11,9 C11,9.36 11.06,9.69 11.15,10.02 L15.59,5.58 L16.59,4.58 C16.95,4.22 17.45,4 18,4 C19.1,4 20,4.9 20,6 C20,6.55 19.78,7.05 19.41,7.41 L13.97,12.85 C14.31,12.94 14.64,13 15,13 C16.11,13 17.09,12.54 17.82,11.82 L17.83,11.83 L20.83,8.83 L20.82,8.82 C21.54,8.09 22,7.11 22,6 Z M7,16 C7.00058453,16.4048395 7.24449184,16.7696363 7.61838396,16.9248781 C7.99227609,17.0801198 8.42283889,16.9953661 8.71,16.71 L16.71,8.71 C17.1021222,8.31787783 17.1021222,7.68212218 16.71,7.29000001 C16.3178778,6.89787784 15.6821222,6.89787784 15.29,7.29 L13.29,9.29 L11.29,11.29 L9.29,13.29 L7.29,15.29 C7.11,15.47 7,15.72 7,16 Z" id="Shape" fill="#202022" fill-rule="nonzero"></path>
        </g>
    </g>
</svg>